{"glyphs":{"0":{"ha":944,"x_min":21,"x_max":924,"o":"m 472 -14 q 129 102 238 -14 q 21 447 21 218 q 129 792 21 676 q 472 908 238 908 q 815 792 707 908 q 924 447 924 676 q 815 102 924 218 q 472 -14 707 -14 m 472 272 q 556 315 531 272 q 581 447 581 357 q 556 580 581 538 q 472 622 531 622 q 389 580 414 622 q 364 447 364 538 q 389 315 364 357 q 472 272 414 272 z "},"1":{"ha":557,"x_min":21,"x_max":508,"o":"m 172 582 l 21 560 l 21 839 l 508 908 l 508 0 l 172 0 l 172 582 z "},"2":{"ha":743,"x_min":21,"x_max":722,"o":"m 21 149 q 108 265 60 211 q 225 379 157 319 q 343 488 314 456 q 372 557 372 521 q 276 622 372 622 q 47 572 164 622 l 47 851 q 193 893 110 878 q 365 908 276 908 q 627 830 539 908 q 715 617 715 751 q 688 480 715 533 q 585 360 660 426 l 560 338 q 475 256 494 283 l 722 256 l 722 0 l 21 0 l 21 149 z "},"3":{"ha":764,"x_min":21,"x_max":743,"o":"m 340 -14 q 176 2 276 -14 q 21 40 76 18 l 21 294 q 151 253 79 267 q 285 239 224 239 q 373 251 346 239 q 400 296 400 263 q 381 331 400 318 q 319 343 361 343 l 156 343 l 176 556 l 311 556 q 368 567 351 556 q 385 607 385 579 q 358 642 385 629 q 274 656 331 656 q 144 640 210 656 q 33 600 79 625 l 33 853 q 176 893 93 878 q 340 908 258 908 q 546 874 458 908 q 681 778 633 839 q 728 640 728 717 q 657 449 728 524 q 743 271 743 394 q 633 57 743 128 q 340 -14 522 -14 z "},"4":{"ha":776,"x_min":-7,"x_max":783,"o":"m 372 150 l -7 150 l -7 363 l 421 894 l 708 894 l 708 419 l 783 419 l 783 150 l 708 150 l 708 0 l 372 0 l 372 150 m 435 406 l 435 535 l 317 406 l 435 406 z "},"5":{"ha":743,"x_min":21,"x_max":722,"o":"m 329 -14 q 172 -1 261 -14 q 25 39 83 13 l 25 294 q 149 257 71 272 q 274 242 228 242 q 354 258 329 242 q 379 306 379 274 q 360 349 379 336 q 297 363 340 363 l 21 363 l 21 494 l 44 894 l 671 894 l 650 639 l 333 639 l 329 582 l 397 582 q 640 508 558 582 q 722 293 722 435 q 623 69 722 153 q 329 -14 524 -14 z "},"6":{"ha":839,"x_min":21,"x_max":818,"o":"m 422 -14 q 121 81 221 -14 q 21 360 21 176 l 21 513 q 74 715 21 625 q 230 857 128 806 q 471 908 332 908 q 611 899 551 908 q 728 867 671 889 l 728 624 q 624 656 676 646 q 508 667 571 667 q 415 654 454 667 q 354 623 375 642 q 333 585 333 604 l 333 576 q 406 601 360 592 q 494 611 453 611 q 740 536 663 611 q 818 311 818 461 q 724 74 818 161 q 422 -14 629 -14 m 425 217 q 496 237 472 217 q 519 299 519 257 q 499 361 519 340 q 428 382 478 382 q 333 357 386 382 l 333 313 q 356 239 333 261 q 425 217 378 217 z "},"7":{"ha":700,"x_min":7,"x_max":693,"o":"m 313 639 l 7 639 l 7 894 l 693 894 l 693 710 l 392 0 l 42 0 l 313 639 z "},"8":{"ha":872,"x_min":21,"x_max":851,"o":"m 435 -14 q 121 57 221 -14 q 21 272 21 128 q 46 381 21 328 q 111 464 71 435 q 60 537 79 494 q 42 624 42 579 q 435 908 42 908 q 737 835 643 908 q 831 624 831 761 q 813 534 831 579 q 763 460 794 489 q 828 378 804 426 q 851 272 851 331 q 751 57 851 128 q 435 -14 650 -14 m 467 546 q 502 574 492 557 q 513 617 513 590 q 435 678 513 678 q 360 617 360 678 q 403 558 360 567 l 467 546 m 435 217 q 509 233 485 217 q 533 279 533 250 q 471 343 533 329 l 390 360 q 339 290 339 344 q 435 217 339 217 z "},"9":{"ha":839,"x_min":21,"x_max":818,"o":"m 368 -14 q 226 -6 283 -14 q 114 24 168 1 l 114 267 q 214 236 164 244 q 331 228 264 228 q 460 253 415 228 q 506 310 506 279 l 506 318 q 433 293 479 303 q 344 283 386 283 q 99 358 176 283 q 21 583 21 433 q 115 821 21 733 q 417 908 210 908 q 722 815 626 908 q 818 535 818 722 l 818 382 q 765 179 818 269 q 609 38 711 89 q 368 -14 507 -14 m 411 513 q 506 538 453 513 l 506 582 q 485 656 506 635 q 414 678 464 678 q 343 658 367 678 q 319 596 319 638 q 340 533 319 554 q 411 513 361 513 z "},"\r":{"ha":556,"x_min":0,"x_max":0,"o":""}," ":{"ha":417,"x_min":0,"x_max":0,"o":""},"A":{"ha":1079,"x_min":21,"x_max":1058,"o":"m 365 894 l 714 894 l 1058 0 l 708 0 l 644 167 l 435 167 l 371 0 l 21 0 l 365 894 m 607 396 l 539 567 l 471 396 l 607 396 z "},"Á":{"ha":1079,"x_min":21,"x_max":1058,"o":"m 544 1269 l 803 1269 l 657 956 l 411 956 l 544 1269 m 365 894 l 714 894 l 1058 0 l 708 0 l 644 167 l 435 167 l 371 0 l 21 0 l 365 894 m 607 396 l 539 567 l 471 396 l 607 396 z "},"Ă":{"ha":1079,"x_min":21,"x_max":1058,"o":"m 539 956 q 315 1035 397 956 q 233 1261 233 1115 l 449 1261 q 469 1174 449 1208 q 539 1139 490 1139 q 609 1174 588 1139 q 631 1261 631 1208 l 846 1261 q 763 1035 846 1114 q 539 956 681 956 m 365 894 l 714 894 l 1058 0 l 708 0 l 644 167 l 435 167 l 371 0 l 21 0 l 365 894 m 607 396 l 539 567 l 471 396 l 607 396 z "},"Ắ":{"ha":1079,"x_min":21,"x_max":1058,"o":"m 549 1482 l 765 1482 l 650 1243 l 444 1243 l 549 1482 m 539 956 q 337 1021 410 956 q 264 1217 264 1086 l 450 1217 q 472 1145 450 1172 q 539 1118 493 1118 q 607 1145 585 1118 q 629 1217 629 1172 l 815 1217 q 742 1021 815 1086 q 539 956 669 956 m 365 894 l 714 894 l 1058 0 l 708 0 l 644 167 l 435 167 l 371 0 l 21 0 l 365 894 m 607 396 l 539 567 l 471 396 l 607 396 z "},"Ặ":{"ha":1079,"x_min":21,"x_max":1058,"o":"m 539 956 q 315 1035 397 956 q 233 1261 233 1115 l 449 1261 q 469 1174 449 1208 q 539 1139 490 1139 q 609 1174 588 1139 q 631 1261 631 1208 l 846 1261 q 763 1035 846 1114 q 539 956 681 956 m 365 894 l 714 894 l 1058 0 l 708 0 l 644 167 l 435 167 l 371 0 l 21 0 l 365 894 m 607 396 l 539 567 l 471 396 l 607 396 m 431 -100 l 647 -100 l 647 -296 l 431 -296 l 431 -100 z "},"Ằ":{"ha":1079,"x_min":21,"x_max":1058,"o":"m 314 1482 l 531 1482 l 635 1243 l 429 1243 l 314 1482 m 540 956 q 337 1021 410 956 q 264 1217 264 1086 l 450 1217 q 472 1145 450 1172 q 540 1118 494 1118 q 608 1145 586 1118 q 629 1217 629 1172 l 815 1217 q 742 1021 815 1086 q 540 956 669 956 m 365 894 l 714 894 l 1058 0 l 708 0 l 644 167 l 435 167 l 371 0 l 21 0 l 365 894 m 607 396 l 539 567 l 471 396 l 607 396 z "},"Ẳ":{"ha":1079,"x_min":21,"x_max":1058,"o":"m 429 1332 q 506 1346 481 1333 q 532 1378 532 1358 q 517 1405 532 1397 q 471 1413 503 1413 q 404 1397 444 1413 l 404 1511 q 478 1524 433 1518 q 565 1529 524 1529 q 697 1493 649 1529 q 744 1401 744 1457 q 722 1326 744 1353 q 647 1282 700 1299 l 647 1244 l 429 1244 l 429 1332 m 540 956 q 337 1021 410 956 q 264 1217 264 1086 l 450 1217 q 472 1145 450 1172 q 540 1118 494 1118 q 608 1145 586 1118 q 629 1217 629 1172 l 815 1217 q 742 1021 815 1086 q 540 956 669 956 m 365 894 l 714 894 l 1058 0 l 708 0 l 644 167 l 435 167 l 371 0 l 21 0 l 365 894 m 607 396 l 539 567 l 471 396 l 607 396 z "},"Ẵ":{"ha":1079,"x_min":21,"x_max":1058,"o":"m 682 1251 q 616 1259 649 1251 q 539 1282 583 1267 q 468 1303 494 1296 q 415 1310 442 1310 q 276 1256 331 1310 l 276 1429 q 335 1462 297 1449 q 411 1475 372 1475 q 475 1467 444 1475 q 550 1444 506 1460 q 620 1424 592 1431 q 678 1417 649 1417 q 757 1432 722 1417 q 808 1471 792 1447 l 808 1297 q 759 1265 796 1279 q 682 1251 722 1251 m 540 956 q 337 1021 410 956 q 264 1217 264 1086 l 450 1217 q 472 1145 450 1172 q 540 1118 494 1118 q 608 1145 586 1118 q 629 1217 629 1172 l 815 1217 q 742 1021 815 1086 q 540 956 669 956 m 365 894 l 714 894 l 1058 0 l 708 0 l 644 167 l 435 167 l 371 0 l 21 0 l 365 894 m 607 396 l 539 567 l 471 396 l 607 396 z "},"Ǎ":{"ha":1079,"x_min":21,"x_max":1058,"o":"m 199 1256 l 439 1256 l 540 1107 l 647 1256 l 881 1256 l 638 956 l 442 956 l 199 1256 m 365 894 l 714 894 l 1058 0 l 708 0 l 644 167 l 435 167 l 371 0 l 21 0 l 365 894 m 607 396 l 539 567 l 471 396 l 607 396 z "},"Â":{"ha":1079,"x_min":21,"x_max":1058,"o":"m 442 1256 l 638 1256 l 881 956 l 647 956 l 540 1104 l 439 956 l 199 956 l 442 1256 m 365 894 l 714 894 l 1058 0 l 708 0 l 644 167 l 435 167 l 371 0 l 21 0 l 365 894 m 607 396 l 539 567 l 471 396 l 607 396 z "},"Ấ":{"ha":1079,"x_min":21,"x_max":1078,"o":"m 833 1378 l 1078 1378 l 963 1139 l 729 1139 l 833 1378 m 408 1189 l 651 1189 l 871 956 l 608 956 l 531 1061 l 457 956 l 189 956 l 408 1189 m 365 894 l 714 894 l 1058 0 l 708 0 l 644 167 l 435 167 l 371 0 l 21 0 l 365 894 m 607 396 l 539 567 l 471 396 l 607 396 z "},"Ậ":{"ha":1079,"x_min":21,"x_max":1058,"o":"m 443 1256 l 639 1256 l 882 956 l 649 956 l 542 1104 l 440 956 l 200 956 l 443 1256 m 365 894 l 714 894 l 1058 0 l 708 0 l 644 167 l 435 167 l 371 0 l 21 0 l 365 894 m 607 396 l 539 567 l 471 396 l 607 396 m 431 -100 l 647 -100 l 647 -296 l 431 -296 l 431 -100 z "},"Ầ":{"ha":1079,"x_min":-7,"x_max":1058,"o":"m -7 1378 l 238 1378 l 342 1139 l 108 1139 l -7 1378 m 419 1189 l 663 1189 l 882 956 l 614 956 l 540 1061 l 463 956 l 200 956 l 419 1189 m 365 894 l 714 894 l 1058 0 l 708 0 l 644 167 l 435 167 l 371 0 l 21 0 l 365 894 m 607 396 l 539 567 l 471 396 l 607 396 z "},"Ẩ":{"ha":1079,"x_min":21,"x_max":1065,"o":"m 750 1218 q 819 1228 800 1219 q 839 1250 839 1236 q 828 1267 839 1263 q 792 1271 817 1271 q 725 1257 761 1271 l 725 1385 q 886 1401 789 1401 q 1017 1365 969 1401 q 1065 1274 1065 1329 q 1041 1192 1065 1224 q 968 1150 1017 1160 l 968 1107 l 750 1107 l 750 1218 m 414 1189 l 657 1189 l 876 956 l 614 956 l 536 1061 l 463 956 l 194 956 l 414 1189 m 365 894 l 714 894 l 1058 0 l 708 0 l 644 167 l 435 167 l 371 0 l 21 0 l 365 894 m 607 396 l 539 567 l 471 396 l 607 396 z "},"Ẫ":{"ha":1079,"x_min":21,"x_max":1058,"o":"m 689 1210 q 624 1217 657 1210 q 546 1240 590 1225 q 475 1261 501 1254 q 422 1268 449 1268 q 283 1214 338 1268 l 283 1401 q 342 1434 304 1421 q 418 1447 379 1447 q 482 1440 451 1447 q 557 1417 513 1432 q 627 1396 599 1403 q 685 1389 656 1389 q 764 1404 729 1389 q 815 1443 799 1419 l 815 1256 q 766 1224 803 1238 q 689 1210 729 1210 m 418 1189 l 661 1189 l 881 956 l 618 956 l 540 1061 l 467 956 l 199 956 l 418 1189 m 365 894 l 714 894 l 1058 0 l 708 0 l 644 167 l 435 167 l 371 0 l 21 0 l 365 894 m 607 396 l 539 567 l 471 396 l 607 396 z "},"Ä":{"ha":1079,"x_min":21,"x_max":1058,"o":"m 268 1192 l 485 1192 l 485 996 l 268 996 l 268 1192 m 594 1192 l 811 1192 l 811 996 l 594 996 l 594 1192 m 365 894 l 714 894 l 1058 0 l 708 0 l 644 167 l 435 167 l 371 0 l 21 0 l 365 894 m 607 396 l 539 567 l 471 396 l 607 396 z "},"Ạ":{"ha":1079,"x_min":21,"x_max":1058,"o":"m 365 894 l 714 894 l 1058 0 l 708 0 l 644 167 l 435 167 l 371 0 l 21 0 l 365 894 m 607 396 l 539 567 l 471 396 l 607 396 m 432 -100 l 649 -100 l 649 -296 l 432 -296 l 432 -100 z "},"À":{"ha":1079,"x_min":21,"x_max":1058,"o":"m 267 1269 l 525 1269 l 658 956 l 413 956 l 267 1269 m 365 894 l 714 894 l 1058 0 l 708 0 l 644 167 l 435 167 l 371 0 l 21 0 l 365 894 m 607 396 l 539 567 l 471 396 l 607 396 z "},"Ả":{"ha":1079,"x_min":21,"x_max":1058,"o":"m 422 1068 q 540 1122 540 1075 q 524 1152 540 1143 q 471 1161 507 1161 q 393 1147 428 1161 l 393 1278 q 574 1299 467 1299 q 728 1257 672 1299 q 783 1150 783 1215 q 757 1057 783 1089 q 669 1006 731 1025 l 669 956 l 422 956 l 422 1068 m 365 894 l 714 894 l 1058 0 l 708 0 l 644 167 l 435 167 l 371 0 l 21 0 l 365 894 m 607 396 l 539 567 l 471 396 l 607 396 z "},"Ā":{"ha":1079,"x_min":21,"x_max":1058,"o":"m 297 1164 l 782 1164 l 782 969 l 297 969 l 297 1164 m 365 894 l 714 894 l 1058 0 l 708 0 l 644 167 l 435 167 l 371 0 l 21 0 l 365 894 m 607 396 l 539 567 l 471 396 l 607 396 z "},"Ą":{"ha":1079,"x_min":21,"x_max":1058,"o":"m 911 -106 q 927 -140 911 -131 q 976 -149 943 -149 q 1015 -144 994 -149 q 1047 -133 1035 -140 l 1047 -281 q 974 -298 1019 -290 q 881 -306 928 -306 q 729 -270 783 -306 q 675 -161 675 -235 q 704 -68 675 -110 q 779 0 733 -26 l 708 0 l 644 167 l 435 167 l 371 0 l 21 0 l 365 894 l 714 894 l 1058 0 l 979 0 q 911 -106 911 -51 m 607 396 l 539 567 l 471 396 l 607 396 z "},"Å":{"ha":1079,"x_min":21,"x_max":1058,"o":"m 1058 0 l 708 0 l 644 167 l 435 167 l 371 0 l 21 0 l 365 893 q 326 1015 326 942 q 382 1159 326 1103 q 539 1215 438 1215 q 697 1159 640 1215 q 753 1015 753 1103 q 714 893 753 942 l 1058 0 m 539 1086 q 483 1066 503 1086 q 464 1015 464 1046 q 483 965 464 985 q 539 944 503 944 q 594 965 575 944 q 614 1015 614 985 q 594 1066 614 1046 q 539 1086 575 1086 m 607 396 l 539 567 l 471 396 l 607 396 z "},"Ǻ":{"ha":1079,"x_min":21,"x_max":1058,"o":"m 654 1260 l 408 1260 l 542 1510 l 800 1510 l 654 1260 m 1058 0 l 708 0 l 644 167 l 435 167 l 371 0 l 21 0 l 365 893 q 326 1015 326 942 q 382 1159 326 1103 q 539 1215 438 1215 q 697 1159 640 1215 q 753 1015 753 1103 q 714 893 753 942 l 1058 0 m 539 1086 q 483 1066 503 1086 q 464 1015 464 1046 q 483 965 464 985 q 539 944 503 944 q 594 965 575 944 q 614 1015 614 985 q 594 1066 614 1046 q 539 1086 575 1086 m 607 396 l 539 567 l 471 396 l 607 396 z "},"Ã":{"ha":1079,"x_min":21,"x_max":1058,"o":"m 686 963 q 619 970 653 963 q 535 994 586 978 q 464 1016 493 1008 q 407 1024 435 1024 q 261 967 318 1024 l 261 1163 q 322 1197 283 1182 q 403 1211 361 1211 q 469 1203 438 1211 q 546 1181 500 1196 q 620 1158 590 1165 q 682 1150 650 1150 q 764 1166 728 1150 q 818 1207 800 1182 l 818 1011 q 766 977 804 992 q 686 963 728 963 m 365 894 l 714 894 l 1058 0 l 708 0 l 644 167 l 435 167 l 371 0 l 21 0 l 365 894 m 607 396 l 539 567 l 471 396 l 607 396 z "},"Æ":{"ha":1214,"x_min":21,"x_max":1193,"o":"m 365 894 l 1193 894 l 1193 653 l 883 653 l 883 572 l 1140 572 l 1140 322 l 883 322 l 883 242 l 1193 242 l 1193 0 l 561 0 l 561 167 l 435 167 l 371 0 l 21 0 l 365 894 m 561 396 l 561 653 l 553 653 l 471 396 l 561 396 z "},"Ǽ":{"ha":1214,"x_min":21,"x_max":1193,"o":"m 700 1269 l 958 1269 l 813 956 l 567 956 l 700 1269 m 365 894 l 1193 894 l 1193 653 l 883 653 l 883 572 l 1140 572 l 1140 322 l 883 322 l 883 242 l 1193 242 l 1193 0 l 561 0 l 561 167 l 435 167 l 371 0 l 21 0 l 365 894 m 561 396 l 561 653 l 553 653 l 471 396 l 561 396 z "},"B":{"ha":919,"x_min":49,"x_max":899,"o":"m 49 894 l 579 894 q 792 828 717 894 q 868 642 868 763 q 846 530 868 578 q 785 453 824 482 q 870 385 842 425 q 899 271 899 344 q 815 72 899 144 q 585 0 732 0 l 49 0 l 49 894 m 489 551 q 556 611 556 551 q 539 652 556 638 q 489 667 522 667 l 364 667 l 364 551 l 489 551 m 489 228 q 556 288 556 228 q 539 328 556 314 q 489 343 522 343 l 364 343 l 364 228 l 489 228 z "},"C":{"ha":858,"x_min":21,"x_max":838,"o":"m 556 -14 q 156 103 292 -14 q 21 447 21 219 q 155 792 21 675 q 553 908 289 908 q 701 897 635 908 q 835 860 767 885 l 835 567 q 575 625 708 625 q 417 585 471 625 q 364 447 364 544 q 419 310 364 351 q 578 269 474 269 q 838 328 711 269 l 838 35 q 703 -2 769 10 q 556 -14 638 -14 z "},"Ć":{"ha":858,"x_min":21,"x_max":838,"o":"m 535 1269 l 793 1269 l 647 956 l 401 956 l 535 1269 m 556 -14 q 156 103 292 -14 q 21 447 21 219 q 155 792 21 675 q 553 908 289 908 q 701 897 635 908 q 835 860 767 885 l 835 567 q 575 625 708 625 q 417 585 471 625 q 364 447 364 544 q 419 310 364 351 q 578 269 474 269 q 838 328 711 269 l 838 35 q 703 -2 769 10 q 556 -14 638 -14 z "},"Č":{"ha":858,"x_min":21,"x_max":875,"o":"m 193 1256 l 433 1256 l 535 1107 l 642 1256 l 875 1256 l 632 956 l 436 956 l 193 1256 m 556 -14 q 156 103 292 -14 q 21 447 21 219 q 155 792 21 675 q 553 908 289 908 q 701 897 635 908 q 835 860 767 885 l 835 567 q 575 625 708 625 q 417 585 471 625 q 364 447 364 544 q 419 310 364 351 q 578 269 474 269 q 838 328 711 269 l 838 35 q 703 -2 769 10 q 556 -14 638 -14 z "},"Ç":{"ha":858,"x_min":21,"x_max":838,"o":"m 838 35 q 617 -12 726 -6 l 603 -51 q 712 -89 671 -51 q 753 -185 753 -126 q 692 -294 753 -254 q 517 -333 632 -333 q 450 -330 490 -333 q 394 -322 410 -326 l 394 -215 q 475 -226 435 -226 q 544 -214 521 -226 q 568 -178 568 -201 q 517 -139 568 -139 l 414 -139 l 450 -8 q 129 128 238 14 q 21 447 21 243 q 155 792 21 675 q 553 908 289 908 q 701 897 635 908 q 835 860 767 885 l 835 567 q 575 625 708 625 q 417 585 471 625 q 364 447 364 544 q 419 310 364 351 q 578 269 474 269 q 838 328 711 269 l 838 35 z "},"Ĉ":{"ha":858,"x_min":21,"x_max":838,"o":"m 383 1256 l 579 1256 l 822 956 l 589 956 l 482 1104 l 381 956 l 140 956 l 383 1256 m 556 -14 q 156 103 292 -14 q 21 447 21 219 q 155 792 21 675 q 553 908 289 908 q 701 897 635 908 q 835 860 767 885 l 835 567 q 575 625 708 625 q 417 585 471 625 q 364 447 364 544 q 419 310 364 351 q 578 269 474 269 q 838 328 711 269 l 838 35 q 703 -2 769 10 q 556 -14 638 -14 z "},"Ċ":{"ha":858,"x_min":21,"x_max":838,"o":"m 400 1193 l 617 1193 l 617 997 l 400 997 l 400 1193 m 556 -14 q 156 103 292 -14 q 21 447 21 219 q 155 792 21 675 q 553 908 289 908 q 701 897 635 908 q 835 860 767 885 l 835 567 q 575 625 708 625 q 417 585 471 625 q 364 447 364 544 q 419 310 364 351 q 578 269 474 269 q 838 328 711 269 l 838 35 q 703 -2 769 10 q 556 -14 638 -14 z "},"D":{"ha":958,"x_min":49,"x_max":938,"o":"m 49 894 l 474 894 q 938 442 938 894 q 817 108 938 215 q 474 0 697 0 l 49 0 l 49 894 m 435 256 q 556 294 517 256 q 596 442 596 332 q 578 556 596 517 q 527 607 561 594 q 435 619 493 619 l 385 619 l 385 256 l 435 256 z "},"Ð":{"ha":1019,"x_min":-7,"x_max":999,"o":"m 535 894 q 999 442 999 894 q 878 108 999 215 q 535 0 758 0 l 110 0 l 110 331 l -7 331 l -7 544 l 110 544 l 110 894 l 535 894 m 496 256 q 617 294 578 256 q 657 442 657 332 q 640 556 657 517 q 588 607 622 594 q 496 619 554 619 l 446 619 l 446 544 l 531 544 l 531 331 l 446 331 l 446 256 l 496 256 z "},"Ď":{"ha":958,"x_min":49,"x_max":938,"o":"m 85 1256 l 325 1256 l 426 1107 l 533 1256 l 767 1256 l 524 956 l 328 956 l 85 1256 m 49 894 l 474 894 q 938 442 938 894 q 817 108 938 215 q 474 0 697 0 l 49 0 l 49 894 m 435 256 q 556 294 517 256 q 596 442 596 332 q 578 556 596 517 q 527 607 561 594 q 435 619 493 619 l 385 619 l 385 256 l 435 256 z "},"Đ":{"ha":1006,"x_min":-21,"x_max":985,"o":"m 521 894 q 985 442 985 894 q 865 108 985 215 q 521 0 744 0 l 96 0 l 96 331 l -21 331 l -21 544 l 96 544 l 96 894 l 521 894 m 482 256 q 603 294 564 256 q 643 442 643 332 q 626 556 643 517 q 574 607 608 594 q 482 619 540 619 l 432 619 l 432 544 l 517 544 l 517 331 l 432 331 l 432 256 l 482 256 z "},"Ḍ":{"ha":958,"x_min":49,"x_max":938,"o":"m 49 894 l 474 894 q 938 442 938 894 q 817 108 938 215 q 474 0 697 0 l 49 0 l 49 894 m 435 256 q 556 294 517 256 q 596 442 596 332 q 578 556 596 517 q 527 607 561 594 q 435 619 493 619 l 385 619 l 385 256 l 435 256 m 319 -100 l 536 -100 l 536 -296 l 319 -296 l 319 -100 z "},"Ḏ":{"ha":958,"x_min":49,"x_max":938,"o":"m 49 894 l 474 894 q 938 442 938 894 q 817 108 938 215 q 474 0 697 0 l 49 0 l 49 894 m 435 256 q 556 294 517 256 q 596 442 596 332 q 578 556 596 517 q 527 607 561 594 q 435 619 493 619 l 385 619 l 385 256 l 435 256 m 128 -72 l 613 -72 l 613 -267 l 128 -267 l 128 -72 z "},"E":{"ha":771,"x_min":49,"x_max":764,"o":"m 49 894 l 764 894 l 764 653 l 385 653 l 385 572 l 711 572 l 711 322 l 385 322 l 385 242 l 764 242 l 764 0 l 49 0 l 49 894 z "},"É":{"ha":771,"x_min":49,"x_max":764,"o":"m 381 1269 l 639 1269 l 493 956 l 247 956 l 381 1269 m 49 894 l 764 894 l 764 653 l 385 653 l 385 572 l 711 572 l 711 322 l 385 322 l 385 242 l 764 242 l 764 0 l 49 0 l 49 894 z "},"Ĕ":{"ha":771,"x_min":49,"x_max":764,"o":"m 408 956 q 185 1035 267 956 q 103 1261 103 1115 l 318 1261 q 339 1174 318 1208 q 408 1139 360 1139 q 478 1174 457 1139 q 500 1261 500 1208 l 715 1261 q 633 1035 715 1114 q 408 956 550 956 m 49 894 l 764 894 l 764 653 l 385 653 l 385 572 l 711 572 l 711 322 l 385 322 l 385 242 l 764 242 l 764 0 l 49 0 l 49 894 z "},"Ě":{"ha":771,"x_min":49,"x_max":764,"o":"m 71 1256 l 311 1256 l 413 1107 l 519 1256 l 753 1256 l 510 956 l 314 956 l 71 1256 m 49 894 l 764 894 l 764 653 l 385 653 l 385 572 l 711 572 l 711 322 l 385 322 l 385 242 l 764 242 l 764 0 l 49 0 l 49 894 z "},"Ê":{"ha":771,"x_min":49,"x_max":764,"o":"m 310 1256 l 506 1256 l 749 956 l 515 956 l 408 1104 l 307 956 l 67 956 l 310 1256 m 49 894 l 764 894 l 764 653 l 385 653 l 385 572 l 711 572 l 711 322 l 385 322 l 385 242 l 764 242 l 764 0 l 49 0 l 49 894 z "},"Ế":{"ha":771,"x_min":49,"x_max":963,"o":"m 718 1378 l 963 1378 l 847 1139 l 614 1139 l 718 1378 m 293 1189 l 536 1189 l 756 956 l 493 956 l 415 1061 l 342 956 l 74 956 l 293 1189 m 49 894 l 764 894 l 764 653 l 385 653 l 385 572 l 711 572 l 711 322 l 385 322 l 385 242 l 764 242 l 764 0 l 49 0 l 49 894 z "},"Ệ":{"ha":771,"x_min":49,"x_max":764,"o":"m 306 1256 l 501 1256 l 744 956 l 511 956 l 404 1104 l 303 956 l 63 956 l 306 1256 m 49 894 l 764 894 l 764 653 l 385 653 l 385 572 l 711 572 l 711 322 l 385 322 l 385 242 l 764 242 l 764 0 l 49 0 l 49 894 m 296 -100 l 513 -100 l 513 -296 l 296 -296 l 296 -100 z "},"Ề":{"ha":771,"x_min":-137,"x_max":764,"o":"m -137 1378 l 107 1378 l 211 1139 l -22 1139 l -137 1378 m 289 1189 l 532 1189 l 751 956 l 483 956 l 410 1061 l 332 956 l 69 956 l 289 1189 m 49 894 l 764 894 l 764 653 l 385 653 l 385 572 l 711 572 l 711 322 l 385 322 l 385 242 l 764 242 l 764 0 l 49 0 l 49 894 z "},"Ể":{"ha":771,"x_min":49,"x_max":933,"o":"m 618 1218 q 688 1228 668 1219 q 707 1250 707 1236 q 696 1267 707 1263 q 660 1271 685 1271 q 593 1257 629 1271 l 593 1385 q 754 1401 657 1401 q 885 1365 838 1401 q 933 1274 933 1329 q 909 1192 933 1224 q 836 1150 885 1160 l 836 1107 l 618 1107 l 618 1218 m 282 1189 l 525 1189 l 744 956 l 482 956 l 404 1061 l 331 956 l 63 956 l 282 1189 m 49 894 l 764 894 l 764 653 l 385 653 l 385 572 l 711 572 l 711 322 l 385 322 l 385 242 l 764 242 l 764 0 l 49 0 l 49 894 z "},"Ễ":{"ha":771,"x_min":49,"x_max":764,"o":"m 553 1210 q 488 1217 521 1210 q 410 1240 454 1225 q 339 1261 365 1254 q 286 1268 313 1268 q 147 1214 201 1268 l 147 1401 q 206 1434 168 1421 q 282 1447 243 1447 q 346 1440 315 1447 q 421 1417 376 1432 q 491 1396 463 1403 q 549 1389 519 1389 q 628 1404 593 1389 q 679 1443 663 1419 l 679 1256 q 630 1224 667 1238 q 553 1210 593 1210 m 282 1189 l 525 1189 l 744 956 l 482 956 l 404 1061 l 331 956 l 63 956 l 282 1189 m 49 894 l 764 894 l 764 653 l 385 653 l 385 572 l 711 572 l 711 322 l 385 322 l 385 242 l 764 242 l 764 0 l 49 0 l 49 894 z "},"Ë":{"ha":771,"x_min":49,"x_max":764,"o":"m 140 1193 l 357 1193 l 357 997 l 140 997 l 140 1193 m 467 1193 l 683 1193 l 683 997 l 467 997 l 467 1193 m 49 894 l 764 894 l 764 653 l 385 653 l 385 572 l 711 572 l 711 322 l 385 322 l 385 242 l 764 242 l 764 0 l 49 0 l 49 894 z "},"Ė":{"ha":771,"x_min":49,"x_max":764,"o":"m 290 1193 l 507 1193 l 507 997 l 290 997 l 290 1193 m 49 894 l 764 894 l 764 653 l 385 653 l 385 572 l 711 572 l 711 322 l 385 322 l 385 242 l 764 242 l 764 0 l 49 0 l 49 894 z "},"Ẹ":{"ha":771,"x_min":49,"x_max":764,"o":"m 49 894 l 764 894 l 764 653 l 385 653 l 385 572 l 711 572 l 711 322 l 385 322 l 385 242 l 764 242 l 764 0 l 49 0 l 49 894 m 283 -100 l 500 -100 l 500 -296 l 283 -296 l 283 -100 z "},"È":{"ha":771,"x_min":49,"x_max":764,"o":"m 163 1269 l 421 1269 l 554 956 l 308 956 l 163 1269 m 49 894 l 764 894 l 764 653 l 385 653 l 385 572 l 711 572 l 711 322 l 385 322 l 385 242 l 764 242 l 764 0 l 49 0 l 49 894 z "},"Ẻ":{"ha":771,"x_min":49,"x_max":764,"o":"m 282 1068 q 400 1122 400 1075 q 383 1152 400 1143 q 331 1161 367 1161 q 253 1147 288 1161 l 253 1278 q 433 1299 326 1299 q 588 1257 532 1299 q 643 1150 643 1215 q 617 1057 643 1089 q 529 1006 590 1025 l 529 956 l 282 956 l 282 1068 m 49 894 l 764 894 l 764 653 l 385 653 l 385 572 l 711 572 l 711 322 l 385 322 l 385 242 l 764 242 l 764 0 l 49 0 l 49 894 z "},"Ē":{"ha":771,"x_min":49,"x_max":764,"o":"m 143 1206 l 628 1206 l 628 1011 l 143 1011 l 143 1206 m 49 894 l 764 894 l 764 653 l 385 653 l 385 572 l 711 572 l 711 322 l 385 322 l 385 242 l 764 242 l 764 0 l 49 0 l 49 894 z "},"Ę":{"ha":771,"x_min":49,"x_max":764,"o":"m 385 653 l 385 572 l 711 572 l 711 322 l 385 322 l 385 242 l 764 242 l 764 0 l 674 0 q 606 -106 606 -51 q 622 -140 606 -131 q 671 -149 638 -149 q 709 -144 689 -149 q 742 -133 729 -140 l 742 -281 q 668 -298 714 -290 q 575 -306 622 -306 q 424 -270 478 -306 q 369 -161 369 -235 q 399 -68 369 -110 q 474 0 428 -26 l 49 0 l 49 894 l 764 894 l 764 653 l 385 653 z "},"Ẽ":{"ha":771,"x_min":49,"x_max":764,"o":"m 551 963 q 485 970 518 963 q 400 994 451 978 q 329 1016 358 1008 q 272 1024 300 1024 q 126 967 183 1024 l 126 1163 q 188 1197 149 1182 q 268 1211 226 1211 q 334 1203 303 1211 q 411 1181 365 1196 q 485 1158 456 1165 q 547 1150 515 1150 q 629 1166 593 1150 q 683 1207 665 1182 l 683 1011 q 631 977 669 992 q 551 963 593 963 m 49 894 l 764 894 l 764 653 l 385 653 l 385 572 l 711 572 l 711 322 l 385 322 l 385 242 l 764 242 l 764 0 l 49 0 l 49 894 z "},"F":{"ha":757,"x_min":49,"x_max":764,"o":"m 49 894 l 764 894 l 764 653 l 385 653 l 385 572 l 711 572 l 711 322 l 385 322 l 385 0 l 49 0 l 49 894 z "},"G":{"ha":921,"x_min":21,"x_max":900,"o":"m 542 -14 q 154 103 288 -14 q 21 447 21 219 q 160 791 21 674 q 565 908 300 908 q 722 899 653 908 q 853 868 790 889 l 853 582 q 588 625 742 625 q 423 584 482 625 q 364 447 364 543 q 407 310 364 350 q 539 269 450 269 q 622 279 583 269 l 622 333 l 474 333 l 474 536 l 900 536 l 900 74 q 747 10 836 35 q 542 -14 657 -14 z "},"Ğ":{"ha":921,"x_min":21,"x_max":900,"o":"m 538 956 q 314 1035 396 956 q 232 1261 232 1115 l 447 1261 q 468 1174 447 1208 q 538 1139 489 1139 q 608 1174 586 1139 q 629 1261 629 1208 l 844 1261 q 762 1035 844 1114 q 538 956 679 956 m 542 -14 q 154 103 288 -14 q 21 447 21 219 q 160 791 21 674 q 565 908 300 908 q 722 899 653 908 q 853 868 790 889 l 853 582 q 588 625 742 625 q 423 584 482 625 q 364 447 364 543 q 407 310 364 350 q 539 269 450 269 q 622 279 583 269 l 622 333 l 474 333 l 474 536 l 900 536 l 900 74 q 747 10 836 35 q 542 -14 657 -14 z "},"Ǧ":{"ha":921,"x_min":21,"x_max":900,"o":"m 188 1254 l 428 1254 l 529 1106 l 636 1254 l 869 1254 l 626 954 l 431 954 l 188 1254 m 542 -14 q 154 103 288 -14 q 21 447 21 219 q 160 791 21 674 q 565 908 300 908 q 722 899 653 908 q 853 868 790 889 l 853 582 q 588 625 742 625 q 423 584 482 625 q 364 447 364 543 q 407 310 364 350 q 539 269 450 269 q 622 279 583 269 l 622 333 l 474 333 l 474 536 l 900 536 l 900 74 q 747 10 836 35 q 542 -14 657 -14 z "},"Ĝ":{"ha":921,"x_min":21,"x_max":900,"o":"m 414 1256 l 610 1256 l 853 956 l 619 956 l 513 1104 l 411 956 l 171 956 l 414 1256 m 542 -14 q 154 103 288 -14 q 21 447 21 219 q 160 791 21 674 q 565 908 300 908 q 722 899 653 908 q 853 868 790 889 l 853 582 q 588 625 742 625 q 423 584 482 625 q 364 447 364 543 q 407 310 364 350 q 539 269 450 269 q 622 279 583 269 l 622 333 l 474 333 l 474 536 l 900 536 l 900 74 q 747 10 836 35 q 542 -14 657 -14 z "},"Ģ":{"ha":921,"x_min":21,"x_max":900,"o":"m 542 -14 q 154 103 288 -14 q 21 447 21 219 q 160 791 21 674 q 565 908 300 908 q 722 899 653 908 q 853 868 790 889 l 853 582 q 588 625 742 625 q 423 584 482 625 q 364 447 364 543 q 407 310 364 350 q 539 269 450 269 q 622 279 583 269 l 622 333 l 474 333 l 474 536 l 900 536 l 900 74 q 747 10 836 35 q 542 -14 657 -14 m 435 -51 l 683 -51 l 593 -397 l 383 -397 l 435 -51 z "},"Ġ":{"ha":921,"x_min":21,"x_max":900,"o":"m 446 1193 l 663 1193 l 663 997 l 446 997 l 446 1193 m 542 -14 q 154 103 288 -14 q 21 447 21 219 q 160 791 21 674 q 565 908 300 908 q 722 899 653 908 q 853 868 790 889 l 853 582 q 588 625 742 625 q 423 584 482 625 q 364 447 364 543 q 407 310 364 350 q 539 269 450 269 q 622 279 583 269 l 622 333 l 474 333 l 474 536 l 900 536 l 900 74 q 747 10 836 35 q 542 -14 657 -14 z "},"Ḡ":{"ha":921,"x_min":21,"x_max":900,"o":"m 303 1192 l 788 1192 l 788 997 l 303 997 l 303 1192 m 542 -14 q 154 103 288 -14 q 21 447 21 219 q 160 791 21 674 q 565 908 300 908 q 722 899 653 908 q 853 868 790 889 l 853 582 q 588 625 742 625 q 423 584 482 625 q 364 447 364 543 q 407 310 364 350 q 539 269 450 269 q 622 279 583 269 l 622 333 l 474 333 l 474 536 l 900 536 l 900 74 q 747 10 836 35 q 542 -14 657 -14 z "},"H":{"ha":993,"x_min":49,"x_max":944,"o":"m 49 894 l 385 894 l 385 603 l 608 603 l 608 894 l 944 894 l 944 0 l 608 0 l 608 292 l 385 292 l 385 0 l 49 0 l 49 894 z "},"Ħ":{"ha":1024,"x_min":21,"x_max":1003,"o":"m 1003 667 l 960 667 l 960 0 l 624 0 l 624 292 l 400 292 l 400 0 l 64 0 l 64 667 l 21 667 l 21 826 l 64 826 l 64 894 l 400 894 l 400 826 l 624 826 l 624 894 l 960 894 l 960 826 l 1003 826 l 1003 667 m 624 667 l 400 667 l 400 603 l 624 603 l 624 667 z "},"Ḫ":{"ha":993,"x_min":49,"x_max":944,"o":"m 49 894 l 385 894 l 385 603 l 608 603 l 608 894 l 944 894 l 944 0 l 608 0 l 608 292 l 385 292 l 385 0 l 49 0 l 49 894 m 497 -361 q 274 -281 356 -361 q 192 -56 192 -201 l 407 -56 q 428 -143 407 -108 q 497 -178 449 -178 q 567 -143 546 -178 q 589 -56 589 -108 l 804 -56 q 722 -282 804 -203 q 497 -361 639 -361 z "},"Ĥ":{"ha":993,"x_min":49,"x_max":944,"o":"m 397 1256 l 593 1256 l 836 956 l 603 956 l 496 1104 l 394 956 l 154 956 l 397 1256 m 49 894 l 385 894 l 385 603 l 608 603 l 608 894 l 944 894 l 944 0 l 608 0 l 608 292 l 385 292 l 385 0 l 49 0 l 49 894 z "},"Ḥ":{"ha":993,"x_min":49,"x_max":944,"o":"m 49 894 l 385 894 l 385 603 l 608 603 l 608 894 l 944 894 l 944 0 l 608 0 l 608 292 l 385 292 l 385 0 l 49 0 l 49 894 m 386 -100 l 603 -100 l 603 -296 l 386 -296 l 386 -100 z "},"I":{"ha":433,"x_min":49,"x_max":385,"o":"m 49 894 l 385 894 l 385 0 l 49 0 l 49 894 z "},"Ĳ":{"ha":1069,"x_min":49,"x_max":1028,"o":"m 49 894 l 385 894 l 385 0 l 49 0 l 49 894 m 646 -14 q 421 18 518 -14 l 421 297 q 576 271 488 271 q 665 296 639 271 q 692 382 692 321 l 692 894 l 1028 894 l 1028 300 q 930 65 1028 144 q 646 -14 832 -14 z "},"Í":{"ha":433,"x_min":49,"x_max":479,"o":"m 221 1269 l 479 1269 l 333 956 l 88 956 l 221 1269 m 49 894 l 385 894 l 385 0 l 49 0 l 49 894 z "},"Ĭ":{"ha":433,"x_min":-89,"x_max":524,"o":"m 217 992 q -7 1072 75 992 q -89 1297 -89 1151 l 126 1297 q 147 1210 126 1244 q 217 1175 168 1175 q 287 1210 265 1175 q 308 1297 308 1244 l 524 1297 q 441 1071 524 1150 q 217 992 358 992 m 49 894 l 385 894 l 385 0 l 49 0 l 49 894 z "},"Ǐ":{"ha":433,"x_min":-124,"x_max":558,"o":"m -124 1256 l 117 1256 l 218 1107 l 325 1256 l 558 1256 l 315 956 l 119 956 l -124 1256 m 49 894 l 385 894 l 385 0 l 49 0 l 49 894 z "},"Î":{"ha":433,"x_min":-124,"x_max":558,"o":"m 119 1256 l 315 1256 l 558 956 l 325 956 l 218 1104 l 117 956 l -124 956 l 119 1256 m 49 894 l 385 894 l 385 0 l 49 0 l 49 894 z "},"Ï":{"ha":433,"x_min":-54,"x_max":489,"o":"m -54 1207 l 163 1207 l 163 1011 l -54 1011 l -54 1207 m 272 1207 l 489 1207 l 489 1011 l 272 1011 l 272 1207 m 49 894 l 385 894 l 385 0 l 49 0 l 49 894 z "},"İ":{"ha":433,"x_min":49,"x_max":385,"o":"m 108 1207 l 325 1207 l 325 1011 l 108 1011 l 108 1207 m 49 894 l 385 894 l 385 0 l 49 0 l 49 894 z "},"Ị":{"ha":433,"x_min":49,"x_max":385,"o":"m 49 894 l 385 894 l 385 0 l 49 0 l 49 894 m 108 -100 l 325 -100 l 325 -296 l 108 -296 l 108 -100 z "},"Ì":{"ha":433,"x_min":-54,"x_max":385,"o":"m -54 1269 l 204 1269 l 338 956 l 92 956 l -54 1269 m 49 894 l 385 894 l 385 0 l 49 0 l 49 894 z "},"Ỉ":{"ha":433,"x_min":49,"x_max":451,"o":"m 90 1068 q 208 1122 208 1075 q 192 1152 208 1143 q 139 1161 175 1161 q 61 1147 96 1161 l 61 1278 q 242 1299 135 1299 q 396 1257 340 1299 q 451 1150 451 1215 q 425 1057 451 1089 q 338 1006 399 1025 l 338 956 l 90 956 l 90 1068 m 49 894 l 385 894 l 385 0 l 49 0 l 49 894 z "},"Ī":{"ha":433,"x_min":-25,"x_max":460,"o":"m -25 1206 l 460 1206 l 460 1011 l -25 1011 l -25 1206 m 49 894 l 385 894 l 385 0 l 49 0 l 49 894 z "},"Į":{"ha":433,"x_min":13,"x_max":385,"o":"m 317 0 q 249 -106 249 -51 q 265 -140 249 -131 q 314 -149 281 -149 q 352 -144 332 -149 q 385 -133 372 -140 l 385 -281 q 311 -298 357 -290 q 218 -306 265 -306 q 67 -270 121 -306 q 13 -161 13 -235 q 42 -68 13 -110 q 117 0 71 -26 l 49 0 l 49 894 l 385 894 l 385 0 l 317 0 z "},"Ĩ":{"ha":433,"x_min":-61,"x_max":496,"o":"m 364 1004 q 297 1012 331 1004 q 213 1036 264 1019 q 142 1058 171 1050 q 85 1065 113 1065 q -61 1008 -4 1065 l -61 1204 q 0 1238 -39 1224 q 81 1253 39 1253 q 147 1245 115 1253 q 224 1222 178 1238 q 298 1199 268 1207 q 360 1192 328 1192 q 442 1208 406 1192 q 496 1249 478 1224 l 496 1053 q 444 1019 482 1033 q 364 1004 406 1004 m 49 894 l 385 894 l 385 0 l 49 0 l 49 894 z "},"J":{"ha":642,"x_min":-7,"x_max":600,"o":"m 218 -14 q -7 18 90 -14 l -7 297 q 149 271 60 271 q 238 296 211 271 q 264 382 264 321 l 264 894 l 600 894 l 600 300 q 502 65 600 144 q 218 -14 404 -14 z "},"Ĵ":{"ha":642,"x_min":-7,"x_max":781,"o":"m 342 1256 l 538 1256 l 781 956 l 547 956 l 440 1104 l 339 956 l 99 956 l 342 1256 m 218 -14 q -7 18 90 -14 l -7 297 q 149 271 60 271 q 238 296 211 271 q 264 382 264 321 l 264 894 l 600 894 l 600 300 q 502 65 600 144 q 218 -14 404 -14 z "},"K":{"ha":1008,"x_min":49,"x_max":988,"o":"m 49 894 l 385 894 l 385 644 l 581 894 l 960 894 l 654 524 l 988 0 l 632 0 l 449 311 l 385 233 l 385 0 l 49 0 l 49 894 z "},"Ķ":{"ha":1008,"x_min":49,"x_max":988,"o":"m 49 894 l 385 894 l 385 644 l 581 894 l 960 894 l 654 524 l 988 0 l 632 0 l 449 311 l 385 233 l 385 0 l 49 0 l 49 894 m 399 -51 l 647 -51 l 557 -397 l 347 -397 l 399 -51 z "},"L":{"ha":743,"x_min":49,"x_max":750,"o":"m 49 894 l 385 894 l 385 256 l 750 256 l 750 0 l 49 0 l 49 894 z "},"Ĺ":{"ha":743,"x_min":49,"x_max":750,"o":"m 231 1269 l 489 1269 l 343 956 l 97 956 l 231 1269 m 49 894 l 385 894 l 385 256 l 750 256 l 750 0 l 49 0 l 49 894 z "},"Ľ":{"ha":743,"x_min":49,"x_max":750,"o":"m 168 1301 l 417 1301 l 326 956 l 117 956 l 168 1301 m 49 894 l 385 894 l 385 256 l 750 256 l 750 0 l 49 0 l 49 894 z "},"Ļ":{"ha":743,"x_min":49,"x_max":750,"o":"m 49 894 l 385 894 l 385 256 l 750 256 l 750 0 l 49 0 l 49 894 m 332 -51 l 581 -51 l 490 -397 l 281 -397 l 332 -51 z "},"Ŀ":{"ha":743,"x_min":49,"x_max":750,"o":"m 49 894 l 385 894 l 385 256 l 750 256 l 750 0 l 49 0 l 49 894 m 451 626 l 668 626 l 668 431 l 451 431 l 451 626 z "},"Ḷ":{"ha":743,"x_min":49,"x_max":750,"o":"m 49 894 l 385 894 l 385 256 l 750 256 l 750 0 l 49 0 l 49 894 m 276 -100 l 493 -100 l 493 -296 l 276 -296 l 276 -100 z "},"Ḹ":{"ha":749,"x_min":-26,"x_max":756,"o":"m -26 1192 l 458 1192 l 458 997 l -26 997 l -26 1192 m 54 894 l 390 894 l 390 256 l 756 256 l 756 0 l 54 0 l 54 894 m 279 -100 l 496 -100 l 496 -296 l 279 -296 l 279 -100 z "},"Ḻ":{"ha":743,"x_min":49,"x_max":750,"o":"m 49 894 l 385 894 l 385 256 l 750 256 l 750 0 l 49 0 l 49 894 m 142 -103 l 626 -103 l 626 -297 l 142 -297 l 142 -103 z "},"Ł":{"ha":800,"x_min":21,"x_max":807,"o":"m 807 256 l 807 0 l 106 0 l 106 297 l 21 260 l 21 494 l 106 532 l 106 894 l 442 894 l 442 679 l 538 721 l 538 486 l 442 444 l 442 256 l 807 256 z "},"M":{"ha":1099,"x_min":49,"x_max":1050,"o":"m 49 894 l 368 894 l 550 525 l 731 894 l 1050 894 l 1050 0 l 714 0 l 714 314 l 635 153 l 464 153 l 385 314 l 385 0 l 49 0 l 49 894 z "},"Ṃ":{"ha":1099,"x_min":49,"x_max":1050,"o":"m 49 894 l 368 894 l 550 525 l 731 894 l 1050 894 l 1050 0 l 714 0 l 714 314 l 635 153 l 464 153 l 385 314 l 385 0 l 49 0 l 49 894 m 442 -100 l 658 -100 l 658 -296 l 442 -296 l 442 -100 z "},"N":{"ha":965,"x_min":49,"x_max":917,"o":"m 49 894 l 331 894 l 581 544 l 581 894 l 917 894 l 917 0 l 633 0 l 385 350 l 385 0 l 49 0 l 49 894 z "},"Ń":{"ha":965,"x_min":49,"x_max":917,"o":"m 447 1269 l 706 1269 l 560 956 l 314 956 l 447 1269 m 49 894 l 331 894 l 581 544 l 581 894 l 917 894 l 917 0 l 633 0 l 385 350 l 385 0 l 49 0 l 49 894 z "},"Ň":{"ha":965,"x_min":49,"x_max":917,"o":"m 133 1256 l 374 1256 l 475 1107 l 582 1256 l 815 1256 l 572 956 l 376 956 l 133 1256 m 49 894 l 331 894 l 581 544 l 581 894 l 917 894 l 917 0 l 633 0 l 385 350 l 385 0 l 49 0 l 49 894 z "},"Ņ":{"ha":965,"x_min":49,"x_max":917,"o":"m 49 894 l 331 894 l 581 544 l 581 894 l 917 894 l 917 0 l 633 0 l 385 350 l 385 0 l 49 0 l 49 894 m 385 -51 l 633 -51 l 543 -397 l 333 -397 l 385 -51 z "},"Ṅ":{"ha":965,"x_min":49,"x_max":917,"o":"m 371 1193 l 588 1193 l 588 997 l 371 997 l 371 1193 m 49 894 l 331 894 l 581 544 l 581 894 l 917 894 l 917 0 l 633 0 l 385 350 l 385 0 l 49 0 l 49 894 z "},"Ṇ":{"ha":965,"x_min":49,"x_max":917,"o":"m 49 894 l 331 894 l 581 544 l 581 894 l 917 894 l 917 0 l 633 0 l 385 350 l 385 0 l 49 0 l 49 894 m 383 -100 l 600 -100 l 600 -296 l 383 -296 l 383 -100 z "},"Ŋ":{"ha":965,"x_min":49,"x_max":917,"o":"m 636 -325 q 432 -287 519 -325 l 432 -79 q 515 -93 472 -93 q 581 -37 581 -93 l 581 74 l 385 350 l 385 0 l 49 0 l 49 894 l 331 894 l 581 544 l 581 894 l 917 894 l 917 -60 q 848 -253 917 -182 q 636 -325 779 -325 z "},"Ṉ":{"ha":965,"x_min":49,"x_max":917,"o":"m 49 894 l 331 894 l 581 544 l 581 894 l 917 894 l 917 0 l 633 0 l 385 350 l 385 0 l 49 0 l 49 894 m 239 -94 l 724 -94 l 724 -289 l 239 -289 l 239 -94 z "},"Ñ":{"ha":965,"x_min":49,"x_max":917,"o":"m 638 963 q 571 970 604 963 q 486 994 538 978 q 415 1016 444 1008 q 358 1024 386 1024 q 213 967 269 1024 l 213 1163 q 274 1197 235 1182 q 354 1211 313 1211 q 420 1203 389 1211 q 497 1181 451 1196 q 572 1158 542 1165 q 633 1150 601 1150 q 715 1166 679 1150 q 769 1207 751 1182 l 769 1011 q 717 977 756 992 q 638 963 679 963 m 49 894 l 331 894 l 581 544 l 581 894 l 917 894 l 917 0 l 633 0 l 385 350 l 385 0 l 49 0 l 49 894 z "},"O":{"ha":1000,"x_min":21,"x_max":979,"o":"m 500 -14 q 142 94 264 -14 q 21 447 21 203 q 142 800 21 692 q 500 908 264 908 q 858 800 736 908 q 979 447 979 692 q 858 94 979 203 q 500 -14 736 -14 m 500 271 q 605 310 574 271 q 636 447 636 350 q 605 584 636 544 q 500 624 574 624 q 395 584 426 624 q 364 447 364 544 q 395 310 364 350 q 500 271 426 271 z "},"Ó":{"ha":1000,"x_min":21,"x_max":979,"o":"m 483 1269 l 742 1269 l 596 956 l 350 956 l 483 1269 m 500 -14 q 142 94 264 -14 q 21 447 21 203 q 142 800 21 692 q 500 908 264 908 q 858 800 736 908 q 979 447 979 692 q 858 94 979 203 q 500 -14 736 -14 m 500 271 q 605 310 574 271 q 636 447 636 350 q 605 584 636 544 q 500 624 574 624 q 395 584 426 624 q 364 447 364 544 q 395 310 364 350 q 500 271 426 271 z "},"Ŏ":{"ha":1000,"x_min":21,"x_max":979,"o":"m 500 956 q 276 1035 358 956 q 194 1261 194 1115 l 410 1261 q 431 1174 410 1208 q 500 1139 451 1139 q 570 1174 549 1139 q 592 1261 592 1208 l 807 1261 q 724 1035 807 1114 q 500 956 642 956 m 500 -14 q 142 94 264 -14 q 21 447 21 203 q 142 800 21 692 q 500 908 264 908 q 858 800 736 908 q 979 447 979 692 q 858 94 979 203 q 500 -14 736 -14 m 500 271 q 605 310 574 271 q 636 447 636 350 q 605 584 636 544 q 500 624 574 624 q 395 584 426 624 q 364 447 364 544 q 395 310 364 350 q 500 271 426 271 z "},"Ǒ":{"ha":1000,"x_min":21,"x_max":979,"o":"m 160 1256 l 400 1256 l 501 1107 l 608 1256 l 842 1256 l 599 956 l 403 956 l 160 1256 m 500 -14 q 142 94 264 -14 q 21 447 21 203 q 142 800 21 692 q 500 908 264 908 q 858 800 736 908 q 979 447 979 692 q 858 94 979 203 q 500 -14 736 -14 m 500 271 q 605 310 574 271 q 636 447 636 350 q 605 584 636 544 q 500 624 574 624 q 395 584 426 624 q 364 447 364 544 q 395 310 364 350 q 500 271 426 271 z "},"Ô":{"ha":1000,"x_min":21,"x_max":979,"o":"m 403 1256 l 599 1256 l 842 956 l 608 956 l 501 1104 l 400 956 l 160 956 l 403 1256 m 500 -14 q 142 94 264 -14 q 21 447 21 203 q 142 800 21 692 q 500 908 264 908 q 858 800 736 908 q 979 447 979 692 q 858 94 979 203 q 500 -14 736 -14 m 500 271 q 605 310 574 271 q 636 447 636 350 q 605 584 636 544 q 500 624 574 624 q 395 584 426 624 q 364 447 364 544 q 395 310 364 350 q 500 271 426 271 z "},"Ố":{"ha":1000,"x_min":21,"x_max":1046,"o":"m 801 1378 l 1046 1378 l 931 1139 l 697 1139 l 801 1378 m 376 1189 l 619 1189 l 839 956 l 576 956 l 499 1061 l 425 956 l 157 956 l 376 1189 m 500 -14 q 142 94 264 -14 q 21 447 21 203 q 142 800 21 692 q 500 908 264 908 q 858 800 736 908 q 979 447 979 692 q 858 94 979 203 q 500 -14 736 -14 m 500 271 q 605 310 574 271 q 636 447 636 350 q 605 584 636 544 q 500 624 574 624 q 395 584 426 624 q 364 447 364 544 q 395 310 364 350 q 500 271 426 271 z "},"Ộ":{"ha":1000,"x_min":21,"x_max":979,"o":"m 403 1256 l 599 1256 l 842 956 l 608 956 l 501 1104 l 400 956 l 160 956 l 403 1256 m 500 -14 q 142 94 264 -14 q 21 447 21 203 q 142 800 21 692 q 500 908 264 908 q 858 800 736 908 q 979 447 979 692 q 858 94 979 203 q 500 -14 736 -14 m 500 271 q 605 310 574 271 q 636 447 636 350 q 605 584 636 544 q 500 624 574 624 q 395 584 426 624 q 364 447 364 544 q 395 310 364 350 q 500 271 426 271 m 393 -100 l 610 -100 l 610 -296 l 393 -296 l 393 -100 z "},"Ồ":{"ha":1000,"x_min":-49,"x_max":979,"o":"m -49 1378 l 196 1378 l 300 1139 l 67 1139 l -49 1378 m 378 1189 l 621 1189 l 840 956 l 572 956 l 499 1061 l 421 956 l 158 956 l 378 1189 m 500 -14 q 142 94 264 -14 q 21 447 21 203 q 142 800 21 692 q 500 908 264 908 q 858 800 736 908 q 979 447 979 692 q 858 94 979 203 q 500 -14 736 -14 m 500 271 q 605 310 574 271 q 636 447 636 350 q 605 584 636 544 q 500 624 574 624 q 395 584 426 624 q 364 447 364 544 q 395 310 364 350 q 500 271 426 271 z "},"Ổ":{"ha":1000,"x_min":21,"x_max":1019,"o":"m 704 1218 q 774 1228 754 1219 q 793 1250 793 1236 q 782 1267 793 1263 q 746 1271 771 1271 q 679 1257 715 1271 l 679 1385 q 840 1401 743 1401 q 972 1365 924 1401 q 1019 1274 1019 1329 q 995 1192 1019 1224 q 922 1150 971 1160 l 922 1107 l 704 1107 l 704 1218 m 368 1189 l 611 1189 l 831 956 l 568 956 l 490 1061 l 417 956 l 149 956 l 368 1189 m 500 -14 q 142 94 264 -14 q 21 447 21 203 q 142 800 21 692 q 500 908 264 908 q 858 800 736 908 q 979 447 979 692 q 858 94 979 203 q 500 -14 736 -14 m 500 271 q 605 310 574 271 q 636 447 636 350 q 605 584 636 544 q 500 624 574 624 q 395 584 426 624 q 364 447 364 544 q 395 310 364 350 q 500 271 426 271 z "},"Ỗ":{"ha":1000,"x_min":21,"x_max":979,"o":"m 643 1251 q 577 1259 610 1251 q 500 1282 544 1267 q 429 1303 456 1296 q 376 1310 403 1310 q 238 1256 292 1310 l 238 1429 q 296 1462 258 1449 q 372 1475 333 1475 q 436 1467 406 1475 q 511 1444 467 1460 q 581 1424 553 1431 q 639 1417 610 1417 q 718 1432 683 1417 q 769 1471 753 1447 l 769 1297 q 720 1265 757 1279 q 643 1251 683 1251 m 501 956 q 298 1021 371 956 q 225 1217 225 1086 l 411 1217 q 433 1145 411 1172 q 501 1118 456 1118 q 569 1145 547 1118 q 590 1217 590 1172 l 776 1217 q 703 1021 776 1086 q 501 956 631 956 m 500 -14 q 142 94 264 -14 q 21 447 21 203 q 142 800 21 692 q 500 908 264 908 q 858 800 736 908 q 979 447 979 692 q 858 94 979 203 q 500 -14 736 -14 m 500 271 q 605 310 574 271 q 636 447 636 350 q 605 584 636 544 q 500 624 574 624 q 395 584 426 624 q 364 447 364 544 q 395 310 364 350 q 500 271 426 271 z "},"Ö":{"ha":1000,"x_min":21,"x_max":979,"o":"m 229 1193 l 446 1193 l 446 997 l 229 997 l 229 1193 m 556 1193 l 772 1193 l 772 997 l 556 997 l 556 1193 m 500 -14 q 142 94 264 -14 q 21 447 21 203 q 142 800 21 692 q 500 908 264 908 q 858 800 736 908 q 979 447 979 692 q 858 94 979 203 q 500 -14 736 -14 m 500 271 q 605 310 574 271 q 636 447 636 350 q 605 584 636 544 q 500 624 574 624 q 395 584 426 624 q 364 447 364 544 q 395 310 364 350 q 500 271 426 271 z "},"Ọ":{"ha":1000,"x_min":21,"x_max":979,"o":"m 500 -14 q 142 94 264 -14 q 21 447 21 203 q 142 800 21 692 q 500 908 264 908 q 858 800 736 908 q 979 447 979 692 q 858 94 979 203 q 500 -14 736 -14 m 500 271 q 605 310 574 271 q 636 447 636 350 q 605 584 636 544 q 500 624 574 624 q 395 584 426 624 q 364 447 364 544 q 395 310 364 350 q 500 271 426 271 m 392 -100 l 608 -100 l 608 -296 l 392 -296 l 392 -100 z "},"Ò":{"ha":1000,"x_min":21,"x_max":979,"o":"m 239 1269 l 497 1269 l 631 956 l 385 956 l 239 1269 m 500 -14 q 142 94 264 -14 q 21 447 21 203 q 142 800 21 692 q 500 908 264 908 q 858 800 736 908 q 979 447 979 692 q 858 94 979 203 q 500 -14 736 -14 m 500 271 q 605 310 574 271 q 636 447 636 350 q 605 584 636 544 q 500 624 574 624 q 395 584 426 624 q 364 447 364 544 q 395 310 364 350 q 500 271 426 271 z "},"Ỏ":{"ha":1000,"x_min":21,"x_max":979,"o":"m 371 1068 q 489 1122 489 1075 q 472 1152 489 1143 q 419 1161 456 1161 q 342 1147 376 1161 l 342 1278 q 522 1299 415 1299 q 676 1257 621 1299 q 732 1150 732 1215 q 706 1057 732 1089 q 618 1006 679 1025 l 618 956 l 371 956 l 371 1068 m 500 -14 q 142 94 264 -14 q 21 447 21 203 q 142 800 21 692 q 500 908 264 908 q 858 800 736 908 q 979 447 979 692 q 858 94 979 203 q 500 -14 736 -14 m 500 271 q 605 310 574 271 q 636 447 636 350 q 605 584 636 544 q 500 624 574 624 q 395 584 426 624 q 364 447 364 544 q 395 310 364 350 q 500 271 426 271 z "},"Ơ":{"ha":1140,"x_min":21,"x_max":1147,"o":"m 500 -14 q 142 94 264 -14 q 21 447 21 203 q 142 800 21 692 q 500 908 264 908 q 813 835 699 908 q 892 865 872 840 q 913 956 913 890 l 1147 956 q 1103 737 1147 811 q 954 636 1058 663 q 979 447 979 557 q 858 94 979 203 q 500 -14 736 -14 m 500 271 q 605 310 574 271 q 636 447 636 350 q 605 584 636 544 q 500 624 574 624 q 395 584 426 624 q 364 447 364 544 q 395 310 364 350 q 500 271 426 271 z "},"Ớ":{"ha":1140,"x_min":21,"x_max":1147,"o":"m 519 1269 l 778 1269 l 632 956 l 386 956 l 519 1269 m 500 -14 q 142 94 264 -14 q 21 447 21 203 q 142 800 21 692 q 500 908 264 908 q 813 835 699 908 q 892 865 872 840 q 913 956 913 890 l 1147 956 q 1103 737 1147 811 q 954 636 1058 663 q 979 447 979 557 q 858 94 979 203 q 500 -14 736 -14 m 500 271 q 605 310 574 271 q 636 447 636 350 q 605 584 636 544 q 500 624 574 624 q 395 584 426 624 q 364 447 364 544 q 395 310 364 350 q 500 271 426 271 z "},"Ợ":{"ha":1140,"x_min":21,"x_max":1147,"o":"m 500 -14 q 142 94 264 -14 q 21 447 21 203 q 142 800 21 692 q 500 908 264 908 q 813 835 699 908 q 892 865 872 840 q 913 956 913 890 l 1147 956 q 1103 737 1147 811 q 954 636 1058 663 q 979 447 979 557 q 858 94 979 203 q 500 -14 736 -14 m 500 271 q 605 310 574 271 q 636 447 636 350 q 605 584 636 544 q 500 624 574 624 q 395 584 426 624 q 364 447 364 544 q 395 310 364 350 q 500 271 426 271 m 394 -100 l 611 -100 l 611 -296 l 394 -296 l 394 -100 z "},"Ờ":{"ha":1140,"x_min":21,"x_max":1147,"o":"m 258 1269 l 517 1269 l 650 956 l 404 956 l 258 1269 m 500 -14 q 142 94 264 -14 q 21 447 21 203 q 142 800 21 692 q 500 908 264 908 q 813 835 699 908 q 892 865 872 840 q 913 956 913 890 l 1147 956 q 1103 737 1147 811 q 954 636 1058 663 q 979 447 979 557 q 858 94 979 203 q 500 -14 736 -14 m 500 271 q 605 310 574 271 q 636 447 636 350 q 605 584 636 544 q 500 624 574 624 q 395 584 426 624 q 364 447 364 544 q 395 310 364 350 q 500 271 426 271 z "},"Ở":{"ha":1140,"x_min":21,"x_max":1147,"o":"m 372 1068 q 490 1122 490 1075 q 474 1152 490 1143 q 421 1161 457 1161 q 343 1147 378 1161 l 343 1278 q 524 1299 417 1299 q 678 1257 622 1299 q 733 1150 733 1215 q 707 1057 733 1089 q 619 1006 681 1025 l 619 956 l 372 956 l 372 1068 m 500 -14 q 142 94 264 -14 q 21 447 21 203 q 142 800 21 692 q 500 908 264 908 q 813 835 699 908 q 892 865 872 840 q 913 956 913 890 l 1147 956 q 1103 737 1147 811 q 954 636 1058 663 q 979 447 979 557 q 858 94 979 203 q 500 -14 736 -14 m 500 271 q 605 310 574 271 q 636 447 636 350 q 605 584 636 544 q 500 624 574 624 q 395 584 426 624 q 364 447 364 544 q 395 310 364 350 q 500 271 426 271 z "},"Ỡ":{"ha":1140,"x_min":21,"x_max":1147,"o":"m 650 956 q 583 963 617 956 q 499 988 550 971 q 428 1009 457 1001 q 371 1017 399 1017 q 225 960 282 1017 l 225 1156 q 286 1190 247 1175 q 367 1204 325 1204 q 433 1197 401 1204 q 510 1174 464 1189 q 584 1151 554 1158 q 646 1143 614 1143 q 728 1159 692 1143 q 782 1200 764 1175 l 782 1004 q 730 970 768 985 q 650 956 692 956 m 500 -14 q 142 94 264 -14 q 21 447 21 203 q 142 800 21 692 q 500 908 264 908 q 813 835 699 908 q 892 865 872 840 q 913 956 913 890 l 1147 956 q 1103 737 1147 811 q 954 636 1058 663 q 979 447 979 557 q 858 94 979 203 q 500 -14 736 -14 m 500 271 q 605 310 574 271 q 636 447 636 350 q 605 584 636 544 q 500 624 574 624 q 395 584 426 624 q 364 447 364 544 q 395 310 364 350 q 500 271 426 271 z "},"Ő":{"ha":1000,"x_min":21,"x_max":979,"o":"m 257 1238 l 543 1238 l 385 956 l 125 956 l 257 1238 m 632 1238 l 918 1238 l 760 956 l 500 956 l 632 1238 m 500 -14 q 142 94 264 -14 q 21 447 21 203 q 142 800 21 692 q 500 908 264 908 q 858 800 736 908 q 979 447 979 692 q 858 94 979 203 q 500 -14 736 -14 m 500 271 q 605 310 574 271 q 636 447 636 350 q 605 584 636 544 q 500 624 574 624 q 395 584 426 624 q 364 447 364 544 q 395 310 364 350 q 500 271 426 271 z "},"Ō":{"ha":1000,"x_min":21,"x_max":979,"o":"m 249 1207 l 733 1207 l 733 1013 l 249 1013 l 249 1207 m 500 -14 q 142 94 264 -14 q 21 447 21 203 q 142 800 21 692 q 500 908 264 908 q 858 800 736 908 q 979 447 979 692 q 858 94 979 203 q 500 -14 736 -14 m 500 271 q 605 310 574 271 q 636 447 636 350 q 605 584 636 544 q 500 624 574 624 q 395 584 426 624 q 364 447 364 544 q 395 310 364 350 q 500 271 426 271 z "},"Ø":{"ha":1000,"x_min":21,"x_max":979,"o":"m 271 19 q 84 167 147 63 q 21 447 21 271 q 142 800 21 692 q 500 908 264 908 q 629 899 572 908 l 656 963 l 763 963 l 726 875 q 915 728 851 832 q 979 447 979 624 q 858 94 979 203 q 500 -14 736 -14 q 368 -4 425 -14 l 340 -74 l 233 -74 l 271 19 m 519 631 q 500 632 514 632 q 390 590 422 632 q 357 447 357 549 q 388 306 357 346 l 519 631 m 500 263 q 610 304 578 263 q 643 447 643 346 q 610 590 643 547 l 476 263 l 500 263 z "},"Ǿ":{"ha":1000,"x_min":21,"x_max":979,"o":"m 436 1269 l 694 1269 l 549 956 l 303 956 l 436 1269 m 271 19 q 84 167 147 63 q 21 447 21 271 q 142 800 21 692 q 500 908 264 908 q 629 899 572 908 l 656 963 l 763 963 l 726 875 q 915 728 851 832 q 979 447 979 624 q 858 94 979 203 q 500 -14 736 -14 q 368 -4 425 -14 l 340 -74 l 233 -74 l 271 19 m 519 631 q 500 632 514 632 q 390 590 422 632 q 357 447 357 549 q 388 306 357 346 l 519 631 m 500 263 q 610 304 578 263 q 643 447 643 346 q 610 590 643 547 l 476 263 l 500 263 z "},"Õ":{"ha":1000,"x_min":21,"x_max":979,"o":"m 647 990 q 581 998 614 990 q 496 1022 547 1006 q 425 1044 454 1036 q 368 1051 396 1051 q 222 994 279 1051 l 222 1190 q 283 1224 244 1210 q 364 1239 322 1239 q 430 1231 399 1239 q 507 1208 461 1224 q 581 1185 551 1193 q 643 1178 611 1178 q 725 1194 689 1178 q 779 1235 761 1210 l 779 1039 q 727 1005 765 1019 q 647 990 689 990 m 500 -14 q 142 94 264 -14 q 21 447 21 203 q 142 800 21 692 q 500 908 264 908 q 858 800 736 908 q 979 447 979 692 q 858 94 979 203 q 500 -14 736 -14 m 500 271 q 605 310 574 271 q 636 447 636 350 q 605 584 636 544 q 500 624 574 624 q 395 584 426 624 q 364 447 364 544 q 395 310 364 350 q 500 271 426 271 z "},"Œ":{"ha":1376,"x_min":21,"x_max":1356,"o":"m 976 653 l 976 572 l 1303 572 l 1303 322 l 976 322 l 976 242 l 1356 242 l 1356 0 l 658 0 q 500 -14 589 -14 q 142 94 264 -14 q 21 447 21 203 q 142 800 21 692 q 500 908 264 908 q 658 894 589 908 l 1356 894 l 1356 653 l 976 653 m 500 271 q 605 310 574 271 q 636 447 636 350 q 605 584 636 544 q 500 624 574 624 q 395 584 426 624 q 364 447 364 544 q 395 310 364 350 q 500 271 426 271 z "},"P":{"ha":883,"x_min":49,"x_max":890,"o":"m 49 894 l 551 894 q 738 848 663 894 q 852 722 814 801 q 890 546 890 643 q 848 369 890 449 q 727 245 806 290 q 546 200 649 200 l 385 200 l 385 0 l 49 0 l 49 894 m 467 463 q 528 485 507 463 q 549 546 549 507 q 472 632 549 632 l 385 632 l 385 463 l 467 463 z "},"Þ":{"ha":883,"x_min":49,"x_max":890,"o":"m 49 894 l 385 894 l 385 794 l 551 794 q 738 748 663 794 q 852 622 814 701 q 890 446 890 543 q 848 269 890 349 q 727 145 806 190 q 546 100 649 100 l 385 100 l 385 0 l 49 0 l 49 894 m 467 363 q 528 385 507 363 q 549 446 549 407 q 472 532 549 532 l 385 532 l 385 363 l 467 363 z "},"Q":{"ha":1000,"x_min":21,"x_max":979,"o":"m 618 -239 q 425 -176 489 -239 q 356 -3 361 -114 q 106 133 190 25 q 21 447 21 242 q 142 800 21 692 q 500 908 264 908 q 858 800 736 908 q 979 447 979 692 q 890 128 979 238 q 626 -6 800 19 q 650 -37 632 -28 q 703 -47 668 -47 q 803 -31 756 -47 l 803 -217 q 722 -233 772 -226 q 618 -239 671 -239 m 500 271 q 605 310 574 271 q 636 447 636 350 q 605 584 636 544 q 500 624 574 624 q 395 584 426 624 q 364 447 364 544 q 395 310 364 350 q 500 271 426 271 z "},"R":{"ha":911,"x_min":49,"x_max":890,"o":"m 49 894 l 551 894 q 803 802 717 894 q 890 560 890 710 q 847 405 890 474 q 732 289 803 336 q 769 243 758 271 l 875 0 l 525 0 l 438 199 q 422 222 431 215 q 399 228 414 228 l 385 228 l 385 0 l 49 0 l 49 894 m 467 490 q 549 560 549 490 q 530 615 549 597 q 472 632 511 632 l 385 632 l 385 490 l 467 490 z "},"Ŕ":{"ha":911,"x_min":49,"x_max":890,"o":"m 410 1269 l 668 1269 l 522 956 l 276 956 l 410 1269 m 49 894 l 551 894 q 803 802 717 894 q 890 560 890 710 q 847 405 890 474 q 732 289 803 336 q 769 243 758 271 l 875 0 l 525 0 l 438 199 q 422 222 431 215 q 399 228 414 228 l 385 228 l 385 0 l 49 0 l 49 894 m 467 490 q 549 560 549 490 q 530 615 549 597 q 472 632 511 632 l 385 632 l 385 490 l 467 490 z "},"Ř":{"ha":911,"x_min":49,"x_max":890,"o":"m 82 1256 l 322 1256 l 424 1107 l 531 1256 l 764 1256 l 521 956 l 325 956 l 82 1256 m 49 894 l 551 894 q 803 802 717 894 q 890 560 890 710 q 847 405 890 474 q 732 289 803 336 q 769 243 758 271 l 875 0 l 525 0 l 438 199 q 422 222 431 215 q 399 228 414 228 l 385 228 l 385 0 l 49 0 l 49 894 m 467 490 q 549 560 549 490 q 530 615 549 597 q 472 632 511 632 l 385 632 l 385 490 l 467 490 z "},"Ŗ":{"ha":911,"x_min":49,"x_max":890,"o":"m 49 894 l 551 894 q 803 802 717 894 q 890 560 890 710 q 847 405 890 474 q 732 289 803 336 q 769 243 758 271 l 875 0 l 525 0 l 438 199 q 422 222 431 215 q 399 228 414 228 l 385 228 l 385 0 l 49 0 l 49 894 m 467 490 q 549 560 549 490 q 530 615 549 597 q 472 632 511 632 l 385 632 l 385 490 l 467 490 m 333 -51 l 582 -51 l 492 -397 l 282 -397 l 333 -51 z "},"Ṛ":{"ha":911,"x_min":49,"x_max":890,"o":"m 49 894 l 551 894 q 803 802 717 894 q 890 560 890 710 q 847 405 890 474 q 732 289 803 336 q 769 243 758 271 l 875 0 l 525 0 l 438 199 q 422 222 431 215 q 399 228 414 228 l 385 228 l 385 0 l 49 0 l 49 894 m 467 490 q 549 560 549 490 q 530 615 549 597 q 472 632 511 632 l 385 632 l 385 490 l 467 490 m 326 -100 l 543 -100 l 543 -296 l 326 -296 l 326 -100 z "},"Ṝ":{"ha":911,"x_min":49,"x_max":890,"o":"m 174 1192 l 658 1192 l 658 997 l 174 997 l 174 1192 m 49 894 l 551 894 q 803 802 717 894 q 890 560 890 710 q 847 405 890 474 q 732 289 803 336 q 769 243 758 271 l 875 0 l 525 0 l 438 199 q 422 222 431 215 q 399 228 414 228 l 385 228 l 385 0 l 49 0 l 49 894 m 467 490 q 549 560 549 490 q 530 615 549 597 q 472 632 511 632 l 385 632 l 385 490 l 467 490 m 326 -100 l 543 -100 l 543 -296 l 326 -296 l 326 -100 z "},"Ṟ":{"ha":911,"x_min":49,"x_max":890,"o":"m 49 894 l 551 894 q 803 802 717 894 q 890 560 890 710 q 847 405 890 474 q 732 289 803 336 q 769 243 758 271 l 875 0 l 525 0 l 438 199 q 422 222 431 215 q 399 228 414 228 l 385 228 l 385 0 l 49 0 l 49 894 m 467 490 q 549 560 549 490 q 530 615 549 597 q 472 632 511 632 l 385 632 l 385 490 l 467 490 m 192 -94 l 676 -94 l 676 -289 l 192 -289 l 192 -94 z "},"S":{"ha":778,"x_min":21,"x_max":757,"o":"m 358 -14 q 175 3 263 -14 q 29 49 88 19 l 29 300 q 177 247 96 268 q 322 226 258 226 q 388 237 364 226 q 411 267 411 247 q 392 294 411 283 q 319 322 372 304 q 250 346 258 343 q 113 415 161 379 q 42 501 64 451 q 21 629 21 551 q 119 840 21 771 q 414 908 217 908 q 565 895 479 908 q 708 865 651 882 l 708 613 q 471 667 576 667 q 364 632 364 667 q 383 609 364 618 q 461 583 403 600 l 497 574 q 660 502 604 544 q 737 405 717 460 q 757 268 757 350 q 655 62 757 138 q 358 -14 553 -14 z "},"Ś":{"ha":778,"x_min":21,"x_max":757,"o":"m 382 1269 l 640 1269 l 494 956 l 249 956 l 382 1269 m 358 -14 q 175 3 263 -14 q 29 49 88 19 l 29 300 q 177 247 96 268 q 322 226 258 226 q 388 237 364 226 q 411 267 411 247 q 392 294 411 283 q 319 322 372 304 q 250 346 258 343 q 113 415 161 379 q 42 501 64 451 q 21 629 21 551 q 119 840 21 771 q 414 908 217 908 q 565 895 479 908 q 708 865 651 882 l 708 613 q 471 667 576 667 q 364 632 364 667 q 383 609 364 618 q 461 583 403 600 l 497 574 q 660 502 604 544 q 737 405 717 460 q 757 268 757 350 q 655 62 757 138 q 358 -14 553 -14 z "},"Š":{"ha":778,"x_min":21,"x_max":757,"o":"m 53 1256 l 293 1256 l 394 1107 l 501 1256 l 735 1256 l 492 956 l 296 956 l 53 1256 m 358 -14 q 175 3 263 -14 q 29 49 88 19 l 29 300 q 177 247 96 268 q 322 226 258 226 q 388 237 364 226 q 411 267 411 247 q 392 294 411 283 q 319 322 372 304 q 250 346 258 343 q 113 415 161 379 q 42 501 64 451 q 21 629 21 551 q 119 840 21 771 q 414 908 217 908 q 565 895 479 908 q 708 865 651 882 l 708 613 q 471 667 576 667 q 364 632 364 667 q 383 609 364 618 q 461 583 403 600 l 497 574 q 660 502 604 544 q 737 405 717 460 q 757 268 757 350 q 655 62 757 138 q 358 -14 553 -14 z "},"Ş":{"ha":778,"x_min":21,"x_max":757,"o":"m 757 268 q 674 76 757 150 q 433 -11 592 3 l 419 -51 q 528 -89 488 -51 q 569 -185 569 -126 q 509 -294 569 -254 q 333 -333 449 -333 q 267 -330 307 -333 q 211 -322 226 -326 l 211 -215 q 292 -226 251 -226 q 361 -214 338 -226 q 385 -178 385 -201 q 333 -139 385 -139 l 231 -139 l 267 -10 q 29 49 117 4 l 29 300 q 177 247 96 268 q 322 226 258 226 q 388 237 364 226 q 411 267 411 247 q 392 294 411 283 q 319 322 372 304 q 250 346 258 343 q 113 415 161 379 q 42 501 64 451 q 21 629 21 551 q 119 840 21 771 q 414 908 217 908 q 565 895 479 908 q 708 865 651 882 l 708 613 q 471 667 576 667 q 364 632 364 667 q 383 609 364 618 q 461 583 403 600 l 497 574 q 660 502 604 544 q 737 405 717 460 q 757 268 757 350 z "},"Ŝ":{"ha":778,"x_min":21,"x_max":772,"o":"m 333 1256 l 529 1256 l 772 956 l 539 956 l 432 1104 l 331 956 l 90 956 l 333 1256 m 358 -14 q 175 3 263 -14 q 29 49 88 19 l 29 300 q 177 247 96 268 q 322 226 258 226 q 388 237 364 226 q 411 267 411 247 q 392 294 411 283 q 319 322 372 304 q 250 346 258 343 q 113 415 161 379 q 42 501 64 451 q 21 629 21 551 q 119 840 21 771 q 414 908 217 908 q 565 895 479 908 q 708 865 651 882 l 708 613 q 471 667 576 667 q 364 632 364 667 q 383 609 364 618 q 461 583 403 600 l 497 574 q 660 502 604 544 q 737 405 717 460 q 757 268 757 350 q 655 62 757 138 q 358 -14 553 -14 z "},"Ș":{"ha":778,"x_min":21,"x_max":757,"o":"m 358 -14 q 175 3 263 -14 q 29 49 88 19 l 29 300 q 177 247 96 268 q 322 226 258 226 q 388 237 364 226 q 411 267 411 247 q 392 294 411 283 q 319 322 372 304 q 250 346 258 343 q 113 415 161 379 q 42 501 64 451 q 21 629 21 551 q 119 840 21 771 q 414 908 217 908 q 565 895 479 908 q 708 865 651 882 l 708 613 q 471 667 576 667 q 364 632 364 667 q 383 609 364 618 q 461 583 403 600 l 497 574 q 660 502 604 544 q 737 405 717 460 q 757 268 757 350 q 655 62 757 138 q 358 -14 553 -14 m 261 -51 l 540 -51 l 469 -335 l 214 -335 l 261 -51 z "},"Ṡ":{"ha":778,"x_min":21,"x_max":757,"o":"m 272 1193 l 489 1193 l 489 997 l 272 997 l 272 1193 m 358 -14 q 175 3 263 -14 q 29 49 88 19 l 29 300 q 177 247 96 268 q 322 226 258 226 q 388 237 364 226 q 411 267 411 247 q 392 294 411 283 q 319 322 372 304 q 250 346 258 343 q 113 415 161 379 q 42 501 64 451 q 21 629 21 551 q 119 840 21 771 q 414 908 217 908 q 565 895 479 908 q 708 865 651 882 l 708 613 q 471 667 576 667 q 364 632 364 667 q 383 609 364 618 q 461 583 403 600 l 497 574 q 660 502 604 544 q 737 405 717 460 q 757 268 757 350 q 655 62 757 138 q 358 -14 553 -14 z "},"Ṣ":{"ha":778,"x_min":21,"x_max":757,"o":"m 358 -14 q 175 3 263 -14 q 29 49 88 19 l 29 300 q 177 247 96 268 q 322 226 258 226 q 388 237 364 226 q 411 267 411 247 q 392 294 411 283 q 319 322 372 304 q 250 346 258 343 q 113 415 161 379 q 42 501 64 451 q 21 629 21 551 q 119 840 21 771 q 414 908 217 908 q 565 895 479 908 q 708 865 651 882 l 708 613 q 471 667 576 667 q 364 632 364 667 q 383 609 364 618 q 461 583 403 600 l 497 574 q 660 502 604 544 q 737 405 717 460 q 757 268 757 350 q 655 62 757 138 q 358 -14 553 -14 m 276 -100 l 493 -100 l 493 -296 l 276 -296 l 276 -100 z "},"ẞ":{"ha":913,"x_min":42,"x_max":892,"o":"m 578 -14 q 476 -6 525 -14 q 399 17 426 3 l 399 226 q 438 217 413 221 q 483 214 464 214 q 534 228 519 214 q 549 269 549 242 q 475 311 549 311 l 400 311 l 400 460 l 549 596 q 525 627 549 615 q 454 639 501 639 q 357 553 357 639 l 357 0 l 42 0 l 42 557 q 92 741 42 661 q 237 865 143 821 q 454 908 331 908 q 760 814 658 908 q 861 568 861 719 l 707 425 l 722 425 q 845 374 799 425 q 892 229 892 322 q 810 46 892 106 q 578 -14 729 -14 z "},"Ə":{"ha":978,"x_min":21,"x_max":957,"o":"m 485 -14 q 143 94 265 -14 q 21 401 21 203 l 21 558 l 650 558 q 575 665 635 633 q 383 697 515 697 q 214 677 315 697 q 64 636 113 657 l 64 840 q 242 889 139 869 q 456 908 346 908 q 718 849 604 908 q 894 683 832 790 q 957 433 957 575 q 838 105 957 224 q 485 -14 719 -14 m 485 183 q 650 349 650 183 l 308 349 l 308 322 q 353 225 308 267 q 485 183 399 183 z "},"T":{"ha":778,"x_min":-7,"x_max":785,"o":"m 221 653 l -7 653 l -7 894 l 785 894 l 785 653 l 557 653 l 557 0 l 221 0 l 221 653 z "},"Ŧ":{"ha":778,"x_min":-7,"x_max":785,"o":"m 557 653 l 557 546 l 650 546 l 650 332 l 557 332 l 557 0 l 221 0 l 221 332 l 114 332 l 114 546 l 221 546 l 221 653 l -7 653 l -7 894 l 785 894 l 785 653 l 557 653 z "},"Ť":{"ha":778,"x_min":-7,"x_max":785,"o":"m 49 1256 l 289 1256 l 390 1107 l 497 1256 l 731 1256 l 488 956 l 292 956 l 49 1256 m 221 653 l -7 653 l -7 894 l 785 894 l 785 653 l 557 653 l 557 0 l 221 0 l 221 653 z "},"Ţ":{"ha":778,"x_min":-7,"x_max":785,"o":"m 469 0 l 451 -51 q 560 -89 519 -51 q 601 -185 601 -126 q 541 -294 601 -254 q 365 -333 481 -333 q 299 -330 339 -333 q 243 -322 258 -326 l 243 -215 q 324 -226 283 -226 q 393 -214 369 -226 q 417 -178 417 -201 q 365 -139 417 -139 l 263 -139 l 301 0 l 221 0 l 221 653 l -7 653 l -7 894 l 785 894 l 785 653 l 557 653 l 557 0 l 469 0 z "},"Ț":{"ha":778,"x_min":-7,"x_max":785,"o":"m 221 653 l -7 653 l -7 894 l 785 894 l 785 653 l 557 653 l 557 0 l 221 0 l 221 653 m 279 -51 l 528 -51 l 438 -397 l 228 -397 l 279 -51 z "},"Ṭ":{"ha":778,"x_min":-7,"x_max":785,"o":"m 221 653 l -7 653 l -7 894 l 785 894 l 785 653 l 557 653 l 557 0 l 221 0 l 221 653 m 275 -72 l 492 -72 l 492 -268 l 275 -268 l 275 -72 z "},"Ṯ":{"ha":778,"x_min":-7,"x_max":785,"o":"m 221 653 l -7 653 l -7 894 l 785 894 l 785 653 l 557 653 l 557 0 l 221 0 l 221 653 m 147 -67 l 632 -67 l 632 -261 l 147 -261 l 147 -67 z "},"U":{"ha":978,"x_min":42,"x_max":936,"o":"m 489 -14 q 260 28 361 -14 q 100 153 158 71 q 42 353 42 236 l 42 894 l 378 894 l 378 396 q 489 271 378 271 q 600 396 600 271 l 600 894 l 936 894 l 936 353 q 878 153 936 236 q 718 28 819 71 q 489 -14 617 -14 z "},"Ú":{"ha":978,"x_min":42,"x_max":936,"o":"m 500 1269 l 758 1269 l 613 956 l 367 956 l 500 1269 m 489 -14 q 260 28 361 -14 q 100 153 158 71 q 42 353 42 236 l 42 894 l 378 894 l 378 396 q 489 271 378 271 q 600 396 600 271 l 600 894 l 936 894 l 936 353 q 878 153 936 236 q 718 28 819 71 q 489 -14 617 -14 z "},"Ŭ":{"ha":978,"x_min":42,"x_max":936,"o":"m 489 956 q 265 1035 347 956 q 183 1261 183 1115 l 399 1261 q 419 1174 399 1208 q 489 1139 440 1139 q 559 1174 538 1139 q 581 1261 581 1208 l 796 1261 q 713 1035 796 1114 q 489 956 631 956 m 489 -14 q 260 28 361 -14 q 100 153 158 71 q 42 353 42 236 l 42 894 l 378 894 l 378 396 q 489 271 378 271 q 600 396 600 271 l 600 894 l 936 894 l 936 353 q 878 153 936 236 q 718 28 819 71 q 489 -14 617 -14 z "},"Ǔ":{"ha":978,"x_min":42,"x_max":936,"o":"m 149 1256 l 389 1256 l 490 1107 l 597 1256 l 831 1256 l 588 956 l 392 956 l 149 1256 m 489 -14 q 260 28 361 -14 q 100 153 158 71 q 42 353 42 236 l 42 894 l 378 894 l 378 396 q 489 271 378 271 q 600 396 600 271 l 600 894 l 936 894 l 936 353 q 878 153 936 236 q 718 28 819 71 q 489 -14 617 -14 z "},"Û":{"ha":978,"x_min":42,"x_max":936,"o":"m 392 1256 l 588 1256 l 831 956 l 597 956 l 490 1104 l 389 956 l 149 956 l 392 1256 m 489 -14 q 260 28 361 -14 q 100 153 158 71 q 42 353 42 236 l 42 894 l 378 894 l 378 396 q 489 271 378 271 q 600 396 600 271 l 600 894 l 936 894 l 936 353 q 878 153 936 236 q 718 28 819 71 q 489 -14 617 -14 z "},"Ü":{"ha":978,"x_min":42,"x_max":936,"o":"m 218 1193 l 435 1193 l 435 997 l 218 997 l 218 1193 m 544 1193 l 761 1193 l 761 997 l 544 997 l 544 1193 m 489 -14 q 260 28 361 -14 q 100 153 158 71 q 42 353 42 236 l 42 894 l 378 894 l 378 396 q 489 271 378 271 q 600 396 600 271 l 600 894 l 936 894 l 936 353 q 878 153 936 236 q 718 28 819 71 q 489 -14 617 -14 z "},"Ǘ":{"ha":978,"x_min":42,"x_max":936,"o":"m 450 1399 l 697 1399 l 594 1197 l 372 1197 l 450 1399 m 225 1154 l 436 1154 l 436 969 l 225 969 l 225 1154 m 543 1154 l 754 1154 l 754 969 l 543 969 l 543 1154 m 489 -14 q 260 28 361 -14 q 100 153 158 71 q 42 353 42 236 l 42 894 l 378 894 l 378 396 q 489 271 378 271 q 600 396 600 271 l 600 894 l 936 894 l 936 353 q 878 153 936 236 q 718 28 819 71 q 489 -14 617 -14 z "},"Ǚ":{"ha":978,"x_min":42,"x_max":936,"o":"m 168 1399 l 413 1399 l 490 1297 l 571 1399 l 811 1399 l 604 1197 l 375 1197 l 168 1399 m 218 1154 l 429 1154 l 429 969 l 218 969 l 218 1154 m 536 1154 l 747 1154 l 747 969 l 536 969 l 536 1154 m 489 -14 q 260 28 361 -14 q 100 153 158 71 q 42 353 42 236 l 42 894 l 378 894 l 378 396 q 489 271 378 271 q 600 396 600 271 l 600 894 l 936 894 l 936 353 q 878 153 936 236 q 718 28 819 71 q 489 -14 617 -14 z "},"Ǜ":{"ha":978,"x_min":42,"x_max":936,"o":"m 282 1447 l 529 1447 l 607 1246 l 385 1246 l 282 1447 m 225 1203 l 436 1203 l 436 1018 l 225 1018 l 225 1203 m 543 1203 l 754 1203 l 754 1018 l 543 1018 l 543 1203 m 489 -14 q 260 28 361 -14 q 100 153 158 71 q 42 353 42 236 l 42 894 l 378 894 l 378 396 q 489 271 378 271 q 600 396 600 271 l 600 894 l 936 894 l 936 353 q 878 153 936 236 q 718 28 819 71 q 489 -14 617 -14 z "},"Ǖ":{"ha":978,"x_min":42,"x_max":936,"o":"m 247 1428 l 732 1428 l 732 1233 l 247 1233 l 247 1428 m 218 1164 l 435 1164 l 435 968 l 218 968 l 218 1164 m 544 1164 l 761 1164 l 761 968 l 544 968 l 544 1164 m 489 -14 q 260 28 361 -14 q 100 153 158 71 q 42 353 42 236 l 42 894 l 378 894 l 378 396 q 489 271 378 271 q 600 396 600 271 l 600 894 l 936 894 l 936 353 q 878 153 936 236 q 718 28 819 71 q 489 -14 617 -14 z "},"Ụ":{"ha":978,"x_min":42,"x_max":936,"o":"m 489 -14 q 260 28 361 -14 q 100 153 158 71 q 42 353 42 236 l 42 894 l 378 894 l 378 396 q 489 271 378 271 q 600 396 600 271 l 600 894 l 936 894 l 936 353 q 878 153 936 236 q 718 28 819 71 q 489 -14 617 -14 m 381 -100 l 597 -100 l 597 -296 l 381 -296 l 381 -100 z "},"Ù":{"ha":978,"x_min":42,"x_max":936,"o":"m 221 1269 l 479 1269 l 613 956 l 367 956 l 221 1269 m 489 -14 q 260 28 361 -14 q 100 153 158 71 q 42 353 42 236 l 42 894 l 378 894 l 378 396 q 489 271 378 271 q 600 396 600 271 l 600 894 l 936 894 l 936 353 q 878 153 936 236 q 718 28 819 71 q 489 -14 617 -14 z "},"Ủ":{"ha":978,"x_min":42,"x_max":936,"o":"m 365 1067 q 483 1121 483 1074 q 467 1151 483 1142 q 414 1160 450 1160 q 336 1146 371 1160 l 336 1276 q 517 1297 410 1297 q 671 1256 615 1297 q 726 1149 726 1214 q 700 1056 726 1088 q 613 1004 674 1024 l 613 954 l 365 954 l 365 1067 m 489 -14 q 260 28 361 -14 q 100 153 158 71 q 42 353 42 236 l 42 894 l 378 894 l 378 396 q 489 271 378 271 q 600 396 600 271 l 600 894 l 936 894 l 936 353 q 878 153 936 236 q 718 28 819 71 q 489 -14 617 -14 z "},"Ư":{"ha":1264,"x_min":42,"x_max":1271,"o":"m 489 -14 q 260 28 361 -14 q 100 153 158 71 q 42 353 42 236 l 42 894 l 378 894 l 378 396 q 489 271 378 271 q 600 396 600 271 l 600 894 l 936 894 l 936 835 q 1016 865 996 839 q 1036 956 1036 890 l 1271 956 q 1236 761 1271 833 q 1129 656 1201 689 q 936 621 1057 624 l 936 353 q 878 153 936 236 q 718 28 819 71 q 489 -14 617 -14 z "},"Ứ":{"ha":1264,"x_min":42,"x_max":1271,"o":"m 503 1269 l 761 1269 l 615 956 l 369 956 l 503 1269 m 489 -14 q 260 28 361 -14 q 100 153 158 71 q 42 353 42 236 l 42 894 l 378 894 l 378 396 q 489 271 378 271 q 600 396 600 271 l 600 894 l 936 894 l 936 835 q 1016 865 996 839 q 1036 956 1036 890 l 1271 956 q 1236 761 1271 833 q 1129 656 1201 689 q 936 621 1057 624 l 936 353 q 878 153 936 236 q 718 28 819 71 q 489 -14 617 -14 z "},"Ự":{"ha":1264,"x_min":42,"x_max":1271,"o":"m 489 -14 q 260 28 361 -14 q 100 153 158 71 q 42 353 42 236 l 42 894 l 378 894 l 378 396 q 489 271 378 271 q 600 396 600 271 l 600 894 l 936 894 l 936 835 q 1016 865 996 839 q 1036 956 1036 890 l 1271 956 q 1236 761 1271 833 q 1129 656 1201 689 q 936 621 1057 624 l 936 353 q 878 153 936 236 q 718 28 819 71 q 489 -14 617 -14 m 383 -100 l 600 -100 l 600 -296 l 383 -296 l 383 -100 z "},"Ừ":{"ha":1264,"x_min":42,"x_max":1271,"o":"m 232 1269 l 490 1269 l 624 956 l 378 956 l 232 1269 m 489 -14 q 260 28 361 -14 q 100 153 158 71 q 42 353 42 236 l 42 894 l 378 894 l 378 396 q 489 271 378 271 q 600 396 600 271 l 600 894 l 936 894 l 936 835 q 1016 865 996 839 q 1036 956 1036 890 l 1271 956 q 1236 761 1271 833 q 1129 656 1201 689 q 936 621 1057 624 l 936 353 q 878 153 936 236 q 718 28 819 71 q 489 -14 617 -14 z "},"Ử":{"ha":1264,"x_min":42,"x_max":1271,"o":"m 368 1068 q 486 1122 486 1075 q 469 1152 486 1143 q 417 1161 453 1161 q 339 1147 374 1161 l 339 1278 q 519 1299 413 1299 q 674 1257 618 1299 q 729 1150 729 1215 q 703 1057 729 1089 q 615 1006 676 1025 l 615 956 l 368 956 l 368 1068 m 489 -14 q 260 28 361 -14 q 100 153 158 71 q 42 353 42 236 l 42 894 l 378 894 l 378 396 q 489 271 378 271 q 600 396 600 271 l 600 894 l 936 894 l 936 835 q 1016 865 996 839 q 1036 956 1036 890 l 1271 956 q 1236 761 1271 833 q 1129 656 1201 689 q 936 621 1057 624 l 936 353 q 878 153 936 236 q 718 28 819 71 q 489 -14 617 -14 z "},"Ữ":{"ha":1264,"x_min":42,"x_max":1271,"o":"m 643 956 q 576 963 610 956 q 492 988 543 971 q 421 1009 450 1001 q 364 1017 392 1017 q 218 960 275 1017 l 218 1156 q 279 1190 240 1175 q 360 1204 318 1204 q 426 1197 394 1204 q 503 1174 457 1189 q 577 1151 547 1158 q 639 1143 607 1143 q 721 1159 685 1143 q 775 1200 757 1175 l 775 1004 q 723 970 761 985 q 643 956 685 956 m 489 -14 q 260 28 361 -14 q 100 153 158 71 q 42 353 42 236 l 42 894 l 378 894 l 378 396 q 489 271 378 271 q 600 396 600 271 l 600 894 l 936 894 l 936 835 q 1016 865 996 839 q 1036 956 1036 890 l 1271 956 q 1236 761 1271 833 q 1129 656 1201 689 q 936 621 1057 624 l 936 353 q 878 153 936 236 q 718 28 819 71 q 489 -14 617 -14 z "},"Ű":{"ha":978,"x_min":42,"x_max":946,"o":"m 285 1238 l 571 1238 l 413 956 l 153 956 l 285 1238 m 660 1238 l 946 1238 l 788 956 l 528 956 l 660 1238 m 489 -14 q 260 28 361 -14 q 100 153 158 71 q 42 353 42 236 l 42 894 l 378 894 l 378 396 q 489 271 378 271 q 600 396 600 271 l 600 894 l 936 894 l 936 353 q 878 153 936 236 q 718 28 819 71 q 489 -14 617 -14 z "},"Ū":{"ha":978,"x_min":42,"x_max":936,"o":"m 247 1206 l 732 1206 l 732 1011 l 247 1011 l 247 1206 m 489 -14 q 260 28 361 -14 q 100 153 158 71 q 42 353 42 236 l 42 894 l 378 894 l 378 396 q 489 271 378 271 q 600 396 600 271 l 600 894 l 936 894 l 936 353 q 878 153 936 236 q 718 28 819 71 q 489 -14 617 -14 z "},"Ų":{"ha":978,"x_min":42,"x_max":936,"o":"m 936 894 l 936 353 q 843 112 936 204 q 596 -6 750 19 q 535 -106 535 -53 q 551 -140 535 -131 q 600 -149 567 -149 q 638 -144 618 -149 q 671 -133 658 -140 l 671 -281 q 597 -298 643 -290 q 504 -306 551 -306 q 353 -270 407 -306 q 299 -161 299 -235 q 324 -74 299 -114 q 390 -7 349 -33 q 137 109 232 15 q 42 353 42 203 l 42 894 l 378 894 l 378 396 q 489 271 378 271 q 600 396 600 271 l 600 894 l 936 894 z "},"Ů":{"ha":978,"x_min":42,"x_max":936,"o":"m 489 956 q 333 1012 389 956 q 276 1154 276 1068 q 332 1298 276 1242 q 489 1354 388 1354 q 647 1298 590 1354 q 703 1154 703 1242 q 647 1011 703 1067 q 489 956 590 956 m 489 1083 q 544 1103 525 1083 q 564 1154 564 1124 q 544 1205 564 1185 q 489 1225 525 1225 q 433 1205 453 1225 q 414 1154 414 1185 q 433 1103 414 1124 q 489 1083 453 1083 m 489 -14 q 260 28 361 -14 q 100 153 158 71 q 42 353 42 236 l 42 894 l 378 894 l 378 396 q 489 271 378 271 q 600 396 600 271 l 600 894 l 936 894 l 936 353 q 878 153 936 236 q 718 28 819 71 q 489 -14 617 -14 z "},"Ũ":{"ha":978,"x_min":42,"x_max":936,"o":"m 636 963 q 569 970 603 963 q 485 994 536 978 q 414 1016 443 1008 q 357 1024 385 1024 q 211 967 268 1024 l 211 1163 q 272 1197 233 1182 q 353 1211 311 1211 q 419 1203 388 1211 q 496 1181 450 1196 q 570 1158 540 1165 q 632 1150 600 1150 q 714 1166 678 1150 q 768 1207 750 1182 l 768 1011 q 716 977 754 992 q 636 963 678 963 m 489 -14 q 260 28 361 -14 q 100 153 158 71 q 42 353 42 236 l 42 894 l 378 894 l 378 396 q 489 271 378 271 q 600 396 600 271 l 600 894 l 936 894 l 936 353 q 878 153 936 236 q 718 28 819 71 q 489 -14 617 -14 z "},"V":{"ha":1079,"x_min":21,"x_max":1058,"o":"m 21 894 l 371 894 l 539 397 l 708 894 l 1058 894 l 714 0 l 365 0 l 21 894 z "},"W":{"ha":1265,"x_min":21,"x_max":1244,"o":"m 21 894 l 349 894 l 417 553 l 468 743 l 468 894 l 742 894 l 842 551 l 918 894 l 1244 894 l 1038 0 l 744 0 l 638 353 l 522 0 l 229 0 l 21 894 z "},"Ẃ":{"ha":1265,"x_min":21,"x_max":1244,"o":"m 608 1269 l 867 1269 l 721 956 l 475 956 l 608 1269 m 21 894 l 349 894 l 417 553 l 468 743 l 468 894 l 742 894 l 842 551 l 918 894 l 1244 894 l 1038 0 l 744 0 l 638 353 l 522 0 l 229 0 l 21 894 z "},"Ŵ":{"ha":1265,"x_min":21,"x_max":1244,"o":"m 540 1256 l 736 1256 l 979 956 l 746 956 l 639 1104 l 538 956 l 297 956 l 540 1256 m 21 894 l 349 894 l 417 553 l 468 743 l 468 894 l 742 894 l 842 551 l 918 894 l 1244 894 l 1038 0 l 744 0 l 638 353 l 522 0 l 229 0 l 21 894 z "},"Ẅ":{"ha":1265,"x_min":21,"x_max":1244,"o":"m 367 1193 l 583 1193 l 583 997 l 367 997 l 367 1193 m 693 1193 l 910 1193 l 910 997 l 693 997 l 693 1193 m 21 894 l 349 894 l 417 553 l 468 743 l 468 894 l 742 894 l 842 551 l 918 894 l 1244 894 l 1038 0 l 744 0 l 638 353 l 522 0 l 229 0 l 21 894 z "},"Ẁ":{"ha":1265,"x_min":21,"x_max":1244,"o":"m 347 1269 l 606 1269 l 739 956 l 493 956 l 347 1269 m 21 894 l 349 894 l 417 553 l 468 743 l 468 894 l 742 894 l 842 551 l 918 894 l 1244 894 l 1038 0 l 744 0 l 638 353 l 522 0 l 229 0 l 21 894 z "},"X":{"ha":1124,"x_min":21,"x_max":1103,"o":"m 360 457 l 38 894 l 439 894 l 561 729 l 685 894 l 1086 894 l 764 457 l 1103 0 l 696 0 l 561 182 l 428 0 l 21 0 l 360 457 z "},"Y":{"ha":1025,"x_min":21,"x_max":1004,"o":"m 344 325 l 21 894 l 371 894 l 513 610 l 654 894 l 1004 894 l 681 325 l 681 0 l 344 0 l 344 325 z "},"Ý":{"ha":1025,"x_min":21,"x_max":1004,"o":"m 522 1269 l 781 1269 l 635 956 l 389 956 l 522 1269 m 344 325 l 21 894 l 371 894 l 513 610 l 654 894 l 1004 894 l 681 325 l 681 0 l 344 0 l 344 325 z "},"Ŷ":{"ha":1025,"x_min":21,"x_max":1004,"o":"m 415 1256 l 611 1256 l 854 956 l 621 956 l 514 1104 l 413 956 l 172 956 l 415 1256 m 344 325 l 21 894 l 371 894 l 513 610 l 654 894 l 1004 894 l 681 325 l 681 0 l 344 0 l 344 325 z "},"Ÿ":{"ha":1025,"x_min":21,"x_max":1004,"o":"m 242 1193 l 458 1193 l 458 997 l 242 997 l 242 1193 m 568 1193 l 785 1193 l 785 997 l 568 997 l 568 1193 m 344 325 l 21 894 l 371 894 l 513 610 l 654 894 l 1004 894 l 681 325 l 681 0 l 344 0 l 344 325 z "},"Ẏ":{"ha":1025,"x_min":21,"x_max":1004,"o":"m 404 1193 l 621 1193 l 621 997 l 404 997 l 404 1193 m 344 325 l 21 894 l 371 894 l 513 610 l 654 894 l 1004 894 l 681 325 l 681 0 l 344 0 l 344 325 z "},"Ỵ":{"ha":1025,"x_min":21,"x_max":1004,"o":"m 344 325 l 21 894 l 371 894 l 513 610 l 654 894 l 1004 894 l 681 325 l 681 0 l 344 0 l 344 325 m 404 -100 l 621 -100 l 621 -296 l 404 -296 l 404 -100 z "},"Ỳ":{"ha":1025,"x_min":21,"x_max":1004,"o":"m 249 1269 l 507 1269 l 640 956 l 394 956 l 249 1269 m 344 325 l 21 894 l 371 894 l 513 610 l 654 894 l 1004 894 l 681 325 l 681 0 l 344 0 l 344 325 z "},"Ỷ":{"ha":1025,"x_min":21,"x_max":1004,"o":"m 392 1067 q 510 1121 510 1074 q 493 1151 510 1142 q 440 1160 476 1160 q 363 1146 397 1160 l 363 1276 q 543 1297 436 1297 q 697 1256 642 1297 q 753 1149 753 1214 q 726 1056 753 1088 q 639 1004 700 1024 l 639 954 l 392 954 l 392 1067 m 344 325 l 21 894 l 371 894 l 513 610 l 654 894 l 1004 894 l 681 325 l 681 0 l 344 0 l 344 325 z "},"Ỹ":{"ha":1025,"x_min":21,"x_max":1004,"o":"m 660 963 q 593 970 626 963 q 508 994 560 978 q 438 1016 467 1008 q 381 1024 408 1024 q 235 967 292 1024 l 235 1163 q 296 1197 257 1182 q 376 1211 335 1211 q 442 1203 411 1211 q 519 1181 474 1196 q 594 1158 564 1165 q 656 1150 624 1150 q 738 1166 701 1150 q 792 1207 774 1182 l 792 1011 q 740 977 778 992 q 660 963 701 963 m 344 325 l 21 894 l 371 894 l 513 610 l 654 894 l 1004 894 l 681 325 l 681 0 l 344 0 l 344 325 z "},"Z":{"ha":814,"x_min":21,"x_max":800,"o":"m 21 165 l 349 619 l 40 619 l 40 894 l 792 894 l 792 704 l 468 256 l 800 256 l 800 0 l 21 0 l 21 165 z "},"Ź":{"ha":814,"x_min":21,"x_max":800,"o":"m 400 1269 l 658 1269 l 513 956 l 267 956 l 400 1269 m 21 165 l 349 619 l 40 619 l 40 894 l 792 894 l 792 704 l 468 256 l 800 256 l 800 0 l 21 0 l 21 165 z "},"Ž":{"ha":814,"x_min":21,"x_max":800,"o":"m 94 1256 l 335 1256 l 436 1107 l 543 1256 l 776 1256 l 533 956 l 338 956 l 94 1256 m 21 165 l 349 619 l 40 619 l 40 894 l 792 894 l 792 704 l 468 256 l 800 256 l 800 0 l 21 0 l 21 165 z "},"Ż":{"ha":814,"x_min":21,"x_max":800,"o":"m 314 1193 l 531 1193 l 531 997 l 314 997 l 314 1193 m 21 165 l 349 619 l 40 619 l 40 894 l 792 894 l 792 704 l 468 256 l 800 256 l 800 0 l 21 0 l 21 165 z "},"Ẓ":{"ha":814,"x_min":21,"x_max":800,"o":"m 21 165 l 349 619 l 40 619 l 40 894 l 792 894 l 792 704 l 468 256 l 800 256 l 800 0 l 21 0 l 21 165 m 328 -100 l 544 -100 l 544 -296 l 328 -296 l 328 -100 z "},"a":{"ha":815,"x_min":21,"x_max":774,"o":"m 253 -14 q 85 40 150 -14 q 21 206 21 94 q 307 431 21 431 l 454 431 l 454 438 q 424 465 454 454 q 336 476 393 476 q 220 467 282 476 q 104 442 158 458 l 104 622 q 241 658 157 644 q 403 672 325 672 q 674 602 574 672 q 774 393 774 532 l 774 0 l 479 0 l 465 47 q 253 -14 390 -14 m 379 169 q 454 200 424 169 l 454 261 l 393 261 q 345 251 360 261 q 331 215 331 240 q 379 169 331 169 z "},"á":{"ha":815,"x_min":21,"x_max":774,"o":"m 421 1039 l 679 1039 l 533 725 l 288 725 l 421 1039 m 253 -14 q 85 40 150 -14 q 21 206 21 94 q 307 431 21 431 l 454 431 l 454 438 q 424 465 454 454 q 336 476 393 476 q 220 467 282 476 q 104 442 158 458 l 104 622 q 241 658 157 644 q 403 672 325 672 q 674 602 574 672 q 774 393 774 532 l 774 0 l 479 0 l 465 47 q 253 -14 390 -14 m 379 169 q 454 200 424 169 l 454 261 l 393 261 q 345 251 360 261 q 331 215 331 240 q 379 169 331 169 z "},"ă":{"ha":815,"x_min":21,"x_max":774,"o":"m 435 725 q 211 805 293 725 q 129 1031 129 885 l 344 1031 q 365 943 344 978 q 435 908 386 908 q 505 943 483 908 q 526 1031 526 978 l 742 1031 q 659 804 742 883 q 435 725 576 725 m 253 -14 q 85 40 150 -14 q 21 206 21 94 q 307 431 21 431 l 454 431 l 454 438 q 424 465 454 454 q 336 476 393 476 q 220 467 282 476 q 104 442 158 458 l 104 622 q 241 658 157 644 q 403 672 325 672 q 674 602 574 672 q 774 393 774 532 l 774 0 l 479 0 l 465 47 q 253 -14 390 -14 m 379 169 q 454 200 424 169 l 454 261 l 393 261 q 345 251 360 261 q 331 215 331 240 q 379 169 331 169 z "},"ắ":{"ha":815,"x_min":21,"x_max":774,"o":"m 442 1251 l 658 1251 l 543 1013 l 338 1013 l 442 1251 m 432 725 q 230 790 303 725 q 157 986 157 856 l 343 986 q 365 915 343 942 q 432 888 386 888 q 500 915 478 888 q 522 986 522 942 l 708 986 q 635 790 708 856 q 432 725 563 725 m 253 -14 q 85 40 150 -14 q 21 206 21 94 q 307 431 21 431 l 454 431 l 454 438 q 424 465 454 454 q 336 476 393 476 q 220 467 282 476 q 104 442 158 458 l 104 622 q 241 658 157 644 q 403 672 325 672 q 674 602 574 672 q 774 393 774 532 l 774 0 l 479 0 l 465 47 q 253 -14 390 -14 m 379 169 q 454 200 424 169 l 454 261 l 393 261 q 345 251 360 261 q 331 215 331 240 q 379 169 331 169 z "},"ặ":{"ha":815,"x_min":21,"x_max":774,"o":"m 446 725 q 222 805 304 725 q 140 1031 140 885 l 356 1031 q 376 943 356 978 q 446 908 397 908 q 516 943 494 908 q 538 1031 538 978 l 753 1031 q 670 804 753 883 q 446 725 588 725 m 253 -14 q 85 40 150 -14 q 21 206 21 94 q 307 431 21 431 l 454 431 l 454 438 q 424 465 454 454 q 336 476 393 476 q 220 467 282 476 q 104 442 158 458 l 104 622 q 241 658 157 644 q 403 672 325 672 q 674 602 574 672 q 774 393 774 532 l 774 0 l 479 0 l 465 47 q 253 -14 390 -14 m 379 169 q 454 200 424 169 l 454 261 l 393 261 q 345 251 360 261 q 331 215 331 240 q 379 169 331 169 m 340 -100 l 557 -100 l 557 -296 l 340 -296 l 340 -100 z "},"ằ":{"ha":815,"x_min":21,"x_max":774,"o":"m 203 1251 l 419 1251 l 524 1013 l 318 1013 l 203 1251 m 429 725 q 226 790 299 725 q 153 986 153 856 l 339 986 q 361 915 339 942 q 429 888 383 888 q 497 915 475 888 q 518 986 518 942 l 704 986 q 631 790 704 856 q 429 725 558 725 m 253 -14 q 85 40 150 -14 q 21 206 21 94 q 307 431 21 431 l 454 431 l 454 438 q 424 465 454 454 q 336 476 393 476 q 220 467 282 476 q 104 442 158 458 l 104 622 q 241 658 157 644 q 403 672 325 672 q 674 602 574 672 q 774 393 774 532 l 774 0 l 479 0 l 465 47 q 253 -14 390 -14 m 379 169 q 454 200 424 169 l 454 261 l 393 261 q 345 251 360 261 q 331 215 331 240 q 379 169 331 169 z "},"ẳ":{"ha":815,"x_min":21,"x_max":774,"o":"m 304 1101 q 381 1115 356 1103 q 407 1147 407 1128 q 392 1174 407 1167 q 346 1182 378 1182 q 279 1167 319 1182 l 279 1281 q 353 1293 308 1288 q 440 1299 399 1299 q 572 1263 524 1299 q 619 1171 619 1226 q 597 1095 619 1122 q 522 1051 575 1068 l 522 1014 l 304 1014 l 304 1101 m 415 725 q 212 790 285 725 q 139 986 139 856 l 325 986 q 347 915 325 942 q 415 888 369 888 q 483 915 461 888 q 504 986 504 942 l 690 986 q 617 790 690 856 q 415 725 544 725 m 253 -14 q 85 40 150 -14 q 21 206 21 94 q 307 431 21 431 l 454 431 l 454 438 q 424 465 454 454 q 336 476 393 476 q 220 467 282 476 q 104 442 158 458 l 104 622 q 241 658 157 644 q 403 672 325 672 q 674 602 574 672 q 774 393 774 532 l 774 0 l 479 0 l 465 47 q 253 -14 390 -14 m 379 169 q 454 200 424 169 l 454 261 l 393 261 q 345 251 360 261 q 331 215 331 240 q 379 169 331 169 z "},"ẵ":{"ha":815,"x_min":21,"x_max":774,"o":"m 554 1021 q 488 1028 521 1021 q 411 1051 456 1036 q 340 1072 367 1065 q 288 1079 314 1079 q 149 1025 203 1079 l 149 1199 q 207 1231 169 1218 q 283 1244 244 1244 q 347 1237 317 1244 q 422 1214 378 1229 q 492 1193 464 1200 q 550 1186 521 1186 q 629 1201 594 1186 q 681 1240 664 1217 l 681 1067 q 631 1035 668 1049 q 554 1021 594 1021 m 413 725 q 209 790 282 725 q 136 986 136 856 l 322 986 q 344 915 322 942 q 413 888 367 888 q 480 915 458 888 q 501 986 501 942 l 688 986 q 615 790 688 856 q 413 725 542 725 m 253 -14 q 85 40 150 -14 q 21 206 21 94 q 307 431 21 431 l 454 431 l 454 438 q 424 465 454 454 q 336 476 393 476 q 220 467 282 476 q 104 442 158 458 l 104 622 q 241 658 157 644 q 403 672 325 672 q 674 602 574 672 q 774 393 774 532 l 774 0 l 479 0 l 465 47 q 253 -14 390 -14 m 379 169 q 454 200 424 169 l 454 261 l 393 261 q 345 251 360 261 q 331 215 331 240 q 379 169 331 169 z "},"ǎ":{"ha":815,"x_min":21,"x_max":774,"o":"m 78 1025 l 318 1025 l 419 876 l 526 1025 l 760 1025 l 517 725 l 321 725 l 78 1025 m 253 -14 q 85 40 150 -14 q 21 206 21 94 q 307 431 21 431 l 454 431 l 454 438 q 424 465 454 454 q 336 476 393 476 q 220 467 282 476 q 104 442 158 458 l 104 622 q 241 658 157 644 q 403 672 325 672 q 674 602 574 672 q 774 393 774 532 l 774 0 l 479 0 l 465 47 q 253 -14 390 -14 m 379 169 q 454 200 424 169 l 454 261 l 393 261 q 345 251 360 261 q 331 215 331 240 q 379 169 331 169 z "},"â":{"ha":815,"x_min":21,"x_max":774,"o":"m 324 1025 l 519 1025 l 763 725 l 529 725 l 422 874 l 321 725 l 81 725 l 324 1025 m 253 -14 q 85 40 150 -14 q 21 206 21 94 q 307 431 21 431 l 454 431 l 454 438 q 424 465 454 454 q 336 476 393 476 q 220 467 282 476 q 104 442 158 458 l 104 622 q 241 658 157 644 q 403 672 325 672 q 674 602 574 672 q 774 393 774 532 l 774 0 l 479 0 l 465 47 q 253 -14 390 -14 m 379 169 q 454 200 424 169 l 454 261 l 393 261 q 345 251 360 261 q 331 215 331 240 q 379 169 331 169 z "},"ấ":{"ha":815,"x_min":21,"x_max":976,"o":"m 732 1147 l 976 1147 l 861 908 l 628 908 l 732 1147 m 307 958 l 550 958 l 769 725 l 507 725 l 429 831 l 356 725 l 88 725 l 307 958 m 253 -14 q 85 40 150 -14 q 21 206 21 94 q 307 431 21 431 l 454 431 l 454 438 q 424 465 454 454 q 336 476 393 476 q 220 467 282 476 q 104 442 158 458 l 104 622 q 241 658 157 644 q 403 672 325 672 q 674 602 574 672 q 774 393 774 532 l 774 0 l 479 0 l 465 47 q 253 -14 390 -14 m 379 169 q 454 200 424 169 l 454 261 l 393 261 q 345 251 360 261 q 331 215 331 240 q 379 169 331 169 z "},"ậ":{"ha":815,"x_min":21,"x_max":774,"o":"m 328 1025 l 524 1025 l 767 725 l 533 725 l 426 874 l 325 725 l 85 725 l 328 1025 m 253 -14 q 85 40 150 -14 q 21 206 21 94 q 307 431 21 431 l 454 431 l 454 438 q 424 465 454 454 q 336 476 393 476 q 220 467 282 476 q 104 442 158 458 l 104 622 q 241 658 157 644 q 403 672 325 672 q 674 602 574 672 q 774 393 774 532 l 774 0 l 479 0 l 465 47 q 253 -14 390 -14 m 379 169 q 454 200 424 169 l 454 261 l 393 261 q 345 251 360 261 q 331 215 331 240 q 379 169 331 169 m 317 -100 l 533 -100 l 533 -296 l 317 -296 l 317 -100 z "},"ầ":{"ha":815,"x_min":-125,"x_max":774,"o":"m -125 1147 l 119 1147 l 224 908 l -10 908 l -125 1147 m 301 958 l 544 958 l 764 725 l 496 725 l 422 831 l 344 725 l 82 725 l 301 958 m 253 -14 q 85 40 150 -14 q 21 206 21 94 q 307 431 21 431 l 454 431 l 454 438 q 424 465 454 454 q 336 476 393 476 q 220 467 282 476 q 104 442 158 458 l 104 622 q 241 658 157 644 q 403 672 325 672 q 674 602 574 672 q 774 393 774 532 l 774 0 l 479 0 l 465 47 q 253 -14 390 -14 m 379 169 q 454 200 424 169 l 454 261 l 393 261 q 345 251 360 261 q 331 215 331 240 q 379 169 331 169 z "},"ẩ":{"ha":815,"x_min":21,"x_max":947,"o":"m 632 988 q 701 997 682 989 q 721 1019 721 1006 q 710 1036 721 1032 q 674 1040 699 1040 q 607 1026 643 1040 l 607 1154 q 768 1171 671 1171 q 899 1135 851 1171 q 947 1043 947 1099 q 923 961 947 993 q 850 919 899 929 l 850 876 l 632 876 l 632 988 m 296 958 l 539 958 l 758 725 l 496 725 l 418 831 l 344 725 l 76 725 l 296 958 m 253 -14 q 85 40 150 -14 q 21 206 21 94 q 307 431 21 431 l 454 431 l 454 438 q 424 465 454 454 q 336 476 393 476 q 220 467 282 476 q 104 442 158 458 l 104 622 q 241 658 157 644 q 403 672 325 672 q 674 602 574 672 q 774 393 774 532 l 774 0 l 479 0 l 465 47 q 253 -14 390 -14 m 379 169 q 454 200 424 169 l 454 261 l 393 261 q 345 251 360 261 q 331 215 331 240 q 379 169 331 169 z "},"ẫ":{"ha":815,"x_min":21,"x_max":774,"o":"m 567 979 q 501 987 533 979 q 424 1010 468 994 q 353 1031 379 1024 q 300 1038 326 1038 q 161 983 215 1038 l 161 1171 q 219 1203 182 1190 q 296 1217 257 1217 q 360 1209 329 1217 q 435 1186 390 1201 q 505 1165 476 1172 q 563 1158 533 1158 q 642 1174 607 1158 q 693 1213 676 1189 l 693 1025 q 644 993 681 1007 q 567 979 607 979 m 296 958 l 539 958 l 758 725 l 496 725 l 418 831 l 344 725 l 76 725 l 296 958 m 253 -14 q 85 40 150 -14 q 21 206 21 94 q 307 431 21 431 l 454 431 l 454 438 q 424 465 454 454 q 336 476 393 476 q 220 467 282 476 q 104 442 158 458 l 104 622 q 241 658 157 644 q 403 672 325 672 q 674 602 574 672 q 774 393 774 532 l 774 0 l 479 0 l 465 47 q 253 -14 390 -14 m 379 169 q 454 200 424 169 l 454 261 l 393 261 q 345 251 360 261 q 331 215 331 240 q 379 169 331 169 z "},"ä":{"ha":815,"x_min":21,"x_max":774,"o":"m 168 963 l 385 963 l 385 767 l 168 767 l 168 963 m 494 963 l 711 963 l 711 767 l 494 767 l 494 963 m 253 -14 q 85 40 150 -14 q 21 206 21 94 q 307 431 21 431 l 454 431 l 454 438 q 424 465 454 454 q 336 476 393 476 q 220 467 282 476 q 104 442 158 458 l 104 622 q 241 658 157 644 q 403 672 325 672 q 674 602 574 672 q 774 393 774 532 l 774 0 l 479 0 l 465 47 q 253 -14 390 -14 m 379 169 q 454 200 424 169 l 454 261 l 393 261 q 345 251 360 261 q 331 215 331 240 q 379 169 331 169 z "},"ạ":{"ha":815,"x_min":21,"x_max":774,"o":"m 253 -14 q 85 40 150 -14 q 21 206 21 94 q 307 431 21 431 l 454 431 l 454 438 q 424 465 454 454 q 336 476 393 476 q 220 467 282 476 q 104 442 158 458 l 104 622 q 241 658 157 644 q 403 672 325 672 q 674 602 574 672 q 774 393 774 532 l 774 0 l 479 0 l 465 47 q 253 -14 390 -14 m 379 169 q 454 200 424 169 l 454 261 l 393 261 q 345 251 360 261 q 331 215 331 240 q 379 169 331 169 m 333 -100 l 550 -100 l 550 -296 l 333 -296 l 333 -100 z "},"à":{"ha":815,"x_min":21,"x_max":774,"o":"m 156 1039 l 414 1039 l 547 725 l 301 725 l 156 1039 m 253 -14 q 85 40 150 -14 q 21 206 21 94 q 307 431 21 431 l 454 431 l 454 438 q 424 465 454 454 q 336 476 393 476 q 220 467 282 476 q 104 442 158 458 l 104 622 q 241 658 157 644 q 403 672 325 672 q 674 602 574 672 q 774 393 774 532 l 774 0 l 479 0 l 465 47 q 253 -14 390 -14 m 379 169 q 454 200 424 169 l 454 261 l 393 261 q 345 251 360 261 q 331 215 331 240 q 379 169 331 169 z "},"ả":{"ha":815,"x_min":21,"x_max":774,"o":"m 290 838 q 408 892 408 844 q 392 922 408 913 q 339 931 375 931 q 261 917 296 931 l 261 1047 q 442 1068 335 1068 q 596 1026 540 1068 q 651 919 651 985 q 625 826 651 858 q 538 775 599 794 l 538 725 l 290 725 l 290 838 m 253 -14 q 85 40 150 -14 q 21 206 21 94 q 307 431 21 431 l 454 431 l 454 438 q 424 465 454 454 q 336 476 393 476 q 220 467 282 476 q 104 442 158 458 l 104 622 q 241 658 157 644 q 403 672 325 672 q 674 602 574 672 q 774 393 774 532 l 774 0 l 479 0 l 465 47 q 253 -14 390 -14 m 379 169 q 454 200 424 169 l 454 261 l 393 261 q 345 251 360 261 q 331 215 331 240 q 379 169 331 169 z "},"ɑ":{"ha":872,"x_min":21,"x_max":824,"o":"m 315 -14 q 21 300 21 -14 q 105 573 21 474 q 338 672 189 672 q 426 659 386 672 q 493 624 467 646 l 493 658 l 824 658 l 824 0 l 532 0 l 517 43 q 427 1 479 17 q 315 -14 375 -14 m 429 226 q 488 247 464 226 l 488 411 q 460 427 474 422 q 429 432 447 432 q 364 311 364 432 q 380 244 364 261 q 429 226 396 226 z "},"ā":{"ha":815,"x_min":21,"x_max":774,"o":"m 207 933 l 692 933 l 692 739 l 207 739 l 207 933 m 253 -14 q 85 40 150 -14 q 21 206 21 94 q 307 431 21 431 l 454 431 l 454 438 q 424 465 454 454 q 336 476 393 476 q 220 467 282 476 q 104 442 158 458 l 104 622 q 241 658 157 644 q 403 672 325 672 q 674 602 574 672 q 774 393 774 532 l 774 0 l 479 0 l 465 47 q 253 -14 390 -14 m 379 169 q 454 200 424 169 l 454 261 l 393 261 q 345 251 360 261 q 331 215 331 240 q 379 169 331 169 z "},"ą":{"ha":815,"x_min":21,"x_max":774,"o":"m 679 0 q 611 -106 611 -51 q 627 -140 611 -131 q 676 -149 643 -149 q 715 -144 694 -149 q 747 -133 735 -140 l 747 -281 q 674 -298 719 -290 q 581 -306 628 -306 q 429 -270 483 -306 q 375 -161 375 -235 q 404 -68 375 -110 q 479 0 433 -26 l 465 47 q 253 -14 390 -14 q 85 40 150 -14 q 21 206 21 94 q 307 431 21 431 l 454 431 l 454 438 q 424 465 454 454 q 336 476 393 476 q 220 467 282 476 q 104 442 158 458 l 104 622 q 241 658 157 644 q 403 672 325 672 q 674 602 574 672 q 774 393 774 532 l 774 0 l 679 0 m 454 261 l 393 261 q 345 251 360 261 q 331 215 331 240 q 379 169 331 169 q 454 200 424 169 l 454 261 z "},"å":{"ha":815,"x_min":21,"x_max":774,"o":"m 443 725 q 287 781 343 725 q 231 924 231 838 q 286 1067 231 1011 q 443 1124 342 1124 q 601 1067 544 1124 q 657 924 657 1011 q 601 781 657 836 q 443 725 544 725 m 443 853 q 499 873 479 853 q 518 924 518 893 q 499 974 518 954 q 443 994 479 994 q 388 974 407 994 q 368 924 368 954 q 388 873 368 893 q 443 853 407 853 m 253 -14 q 85 40 150 -14 q 21 206 21 94 q 307 431 21 431 l 454 431 l 454 438 q 424 465 454 454 q 336 476 393 476 q 220 467 282 476 q 104 442 158 458 l 104 622 q 241 658 157 644 q 403 672 325 672 q 674 602 574 672 q 774 393 774 532 l 774 0 l 479 0 l 465 47 q 253 -14 390 -14 m 379 169 q 454 200 424 169 l 454 261 l 393 261 q 345 251 360 261 q 331 215 331 240 q 379 169 331 169 z "},"ǻ":{"ha":815,"x_min":21,"x_max":774,"o":"m 421 1421 l 679 1421 l 533 1171 l 288 1171 l 421 1421 m 443 725 q 287 781 343 725 q 231 924 231 838 q 286 1067 231 1011 q 443 1124 342 1124 q 601 1067 544 1124 q 657 924 657 1011 q 601 781 657 836 q 443 725 544 725 m 443 853 q 499 873 479 853 q 518 924 518 893 q 499 974 518 954 q 443 994 479 994 q 388 974 407 994 q 368 924 368 954 q 388 873 368 893 q 443 853 407 853 m 253 -14 q 85 40 150 -14 q 21 206 21 94 q 307 431 21 431 l 454 431 l 454 438 q 424 465 454 454 q 336 476 393 476 q 220 467 282 476 q 104 442 158 458 l 104 622 q 241 658 157 644 q 403 672 325 672 q 674 602 574 672 q 774 393 774 532 l 774 0 l 479 0 l 465 47 q 253 -14 390 -14 m 379 169 q 454 200 424 169 l 454 261 l 393 261 q 345 251 360 261 q 331 215 331 240 q 379 169 331 169 z "},"ã":{"ha":815,"x_min":21,"x_max":774,"o":"m 588 732 q 521 740 554 732 q 436 764 488 747 q 365 785 394 778 q 308 793 336 793 q 163 736 219 793 l 163 932 q 224 966 185 951 q 304 981 263 981 q 370 973 339 981 q 447 950 401 965 q 522 927 492 935 q 583 919 551 919 q 665 935 629 919 q 719 976 701 951 l 719 781 q 667 747 706 761 q 588 732 629 732 m 253 -14 q 85 40 150 -14 q 21 206 21 94 q 307 431 21 431 l 454 431 l 454 438 q 424 465 454 454 q 336 476 393 476 q 220 467 282 476 q 104 442 158 458 l 104 622 q 241 658 157 644 q 403 672 325 672 q 674 602 574 672 q 774 393 774 532 l 774 0 l 479 0 l 465 47 q 253 -14 390 -14 m 379 169 q 454 200 424 169 l 454 261 l 393 261 q 345 251 360 261 q 331 215 331 240 q 379 169 331 169 z "},"æ":{"ha":1235,"x_min":21,"x_max":1214,"o":"m 307 -14 q 101 41 182 -14 q 21 206 21 96 q 307 431 21 431 l 454 431 l 454 438 q 424 465 454 454 q 336 476 393 476 q 220 467 282 476 q 104 442 158 458 l 104 622 q 241 658 157 644 q 403 672 325 672 q 524 655 465 672 q 621 607 582 638 q 720 654 661 636 q 842 672 779 672 q 1113 588 1013 672 q 1214 351 1214 504 l 1214 239 l 775 239 q 968 183 819 183 q 1085 193 1026 183 q 1181 217 1144 203 l 1181 36 q 886 -14 1076 -14 q 736 13 811 -14 q 621 86 661 40 q 492 12 563 38 q 307 -14 421 -14 m 926 407 l 926 419 q 909 458 926 443 q 853 474 892 474 q 794 456 813 474 q 775 407 775 438 l 926 407 m 379 169 q 454 200 429 169 l 454 261 l 393 261 q 345 251 360 261 q 331 215 331 240 q 379 169 331 169 z "},"ǽ":{"ha":1235,"x_min":21,"x_max":1214,"o":"m 597 1039 l 856 1039 l 710 725 l 464 725 l 597 1039 m 307 -14 q 101 41 182 -14 q 21 206 21 96 q 307 431 21 431 l 454 431 l 454 438 q 424 465 454 454 q 336 476 393 476 q 220 467 282 476 q 104 442 158 458 l 104 622 q 241 658 157 644 q 403 672 325 672 q 524 655 465 672 q 621 607 582 638 q 720 654 661 636 q 842 672 779 672 q 1113 588 1013 672 q 1214 351 1214 504 l 1214 239 l 775 239 q 968 183 819 183 q 1085 193 1026 183 q 1181 217 1144 203 l 1181 36 q 886 -14 1076 -14 q 736 13 811 -14 q 621 86 661 40 q 492 12 563 38 q 307 -14 421 -14 m 926 407 l 926 419 q 909 458 926 443 q 853 474 892 474 q 794 456 813 474 q 775 407 775 438 l 926 407 m 379 169 q 454 200 429 169 l 454 261 l 393 261 q 345 251 360 261 q 331 215 331 240 q 379 169 331 169 z "},"b":{"ha":872,"x_min":49,"x_max":851,"o":"m 540 -14 q 439 1 483 -14 q 356 43 394 15 l 340 0 l 49 0 l 49 936 l 385 936 l 385 647 q 451 665 411 658 q 528 672 492 672 q 769 592 686 672 q 851 335 851 513 q 768 75 851 164 q 540 -14 685 -14 m 443 226 q 492 249 475 226 q 508 329 508 272 q 492 409 508 386 q 443 432 475 432 q 412 427 425 432 q 385 411 399 422 l 385 247 q 412 231 399 236 q 443 226 425 226 z "},"c":{"ha":722,"x_min":21,"x_max":701,"o":"m 433 -14 q 132 72 243 -14 q 21 329 21 158 q 131 586 21 500 q 431 672 242 672 q 577 661 513 672 q 699 624 642 650 l 699 390 q 506 432 614 432 q 398 408 432 432 q 364 329 364 385 q 399 250 364 274 q 508 226 435 226 q 701 279 603 226 l 701 35 q 580 -3 644 8 q 433 -14 515 -14 z "},"ć":{"ha":722,"x_min":21,"x_max":701,"o":"m 415 1039 l 674 1039 l 528 725 l 282 725 l 415 1039 m 433 -14 q 132 72 243 -14 q 21 329 21 158 q 131 586 21 500 q 431 672 242 672 q 577 661 513 672 q 699 624 642 650 l 699 390 q 506 432 614 432 q 398 408 432 432 q 364 329 364 385 q 399 250 364 274 q 508 226 435 226 q 701 279 603 226 l 701 35 q 580 -3 644 8 q 433 -14 515 -14 z "},"č":{"ha":722,"x_min":21,"x_max":744,"o":"m 63 1025 l 303 1025 l 404 876 l 511 1025 l 744 1025 l 501 725 l 306 725 l 63 1025 m 433 -14 q 132 72 243 -14 q 21 329 21 158 q 131 586 21 500 q 431 672 242 672 q 577 661 513 672 q 699 624 642 650 l 699 390 q 506 432 614 432 q 398 408 432 432 q 364 329 364 385 q 399 250 364 274 q 508 226 435 226 q 701 279 603 226 l 701 35 q 580 -3 644 8 q 433 -14 515 -14 z "},"ç":{"ha":722,"x_min":21,"x_max":701,"o":"m 701 35 q 503 -11 614 -4 l 489 -51 q 598 -89 557 -51 q 639 -185 639 -126 q 578 -294 639 -254 q 403 -333 518 -333 q 336 -330 376 -333 q 281 -322 296 -326 l 281 -215 q 361 -226 321 -226 q 431 -214 407 -226 q 454 -178 454 -201 q 403 -139 454 -139 l 300 -139 l 336 -7 q 105 97 189 13 q 21 329 21 182 q 131 586 21 500 q 431 672 242 672 q 577 661 513 672 q 699 624 642 650 l 699 390 q 506 432 614 432 q 398 408 432 432 q 364 329 364 385 q 399 250 364 274 q 508 226 435 226 q 701 279 603 226 l 701 35 z "},"ĉ":{"ha":722,"x_min":21,"x_max":725,"o":"m 286 1025 l 482 1025 l 725 725 l 492 725 l 385 874 l 283 725 l 43 725 l 286 1025 m 433 -14 q 132 72 243 -14 q 21 329 21 158 q 131 586 21 500 q 431 672 242 672 q 577 661 513 672 q 699 624 642 650 l 699 390 q 506 432 614 432 q 398 408 432 432 q 364 329 364 385 q 399 250 364 274 q 508 226 435 226 q 701 279 603 226 l 701 35 q 580 -3 644 8 q 433 -14 515 -14 z "},"ċ":{"ha":722,"x_min":21,"x_max":701,"o":"m 278 963 l 494 963 l 494 767 l 278 767 l 278 963 m 433 -14 q 132 72 243 -14 q 21 329 21 158 q 131 586 21 500 q 431 672 242 672 q 577 661 513 672 q 699 624 642 650 l 699 390 q 506 432 614 432 q 398 408 432 432 q 364 329 364 385 q 399 250 364 274 q 508 226 435 226 q 701 279 603 226 l 701 35 q 580 -3 644 8 q 433 -14 515 -14 z "},"d":{"ha":872,"x_min":21,"x_max":824,"o":"m 332 -14 q 21 308 21 -14 q 109 580 21 488 q 344 672 197 672 q 421 665 381 672 q 488 647 461 658 l 488 936 l 824 936 l 824 0 l 532 0 l 517 43 q 433 1 478 15 q 332 -14 389 -14 m 429 226 q 460 231 447 226 q 488 247 474 236 l 488 411 q 460 427 474 422 q 429 432 447 432 q 381 401 399 432 q 364 311 364 369 q 379 242 364 257 q 429 226 394 226 z "},"ð":{"ha":860,"x_min":21,"x_max":818,"o":"m 417 -14 q 114 63 207 -14 q 21 285 21 139 q 105 499 21 428 q 344 569 189 569 q 433 560 386 569 q 506 535 479 550 l 506 553 q 489 642 506 610 l 367 589 l 367 665 l 426 690 q 344 701 390 701 q 242 690 290 701 q 139 654 193 678 l 139 865 q 403 908 247 908 q 697 807 588 908 l 813 857 l 813 781 l 746 751 q 800 635 782 700 q 818 497 818 569 l 818 360 q 718 81 818 176 q 417 -14 618 -14 m 414 203 q 483 225 461 203 q 506 299 506 247 l 506 343 q 411 368 453 368 q 340 347 361 368 q 319 285 319 326 q 343 223 319 243 q 414 203 367 203 z "},"ď":{"ha":1197,"x_min":21,"x_max":1286,"o":"m 332 -14 q 21 308 21 -14 q 109 580 21 488 q 344 672 197 672 q 421 665 381 672 q 488 647 461 658 l 488 936 l 824 936 l 824 0 l 532 0 l 517 43 q 433 1 478 15 q 332 -14 389 -14 m 1013 929 l 1286 929 l 1125 588 l 867 588 l 1013 929 m 429 226 q 460 231 447 226 q 488 247 474 236 l 488 411 q 460 427 474 422 q 429 432 447 432 q 381 401 399 432 q 364 311 364 369 q 379 242 364 257 q 429 226 394 226 z "},"đ":{"ha":876,"x_min":21,"x_max":869,"o":"m 869 703 l 824 703 l 824 0 l 532 0 l 517 43 q 433 1 478 15 q 332 -14 389 -14 q 21 308 21 -14 q 109 580 21 488 q 344 672 197 672 q 421 665 381 672 q 488 647 461 658 l 488 703 l 332 703 l 332 890 l 488 890 l 488 936 l 824 936 l 824 890 l 869 890 l 869 703 m 488 411 q 460 427 474 422 q 429 432 447 432 q 381 401 399 432 q 364 311 364 369 q 379 242 364 257 q 429 226 394 226 q 460 231 447 226 q 488 247 474 236 l 488 411 z "},"ḍ":{"ha":872,"x_min":21,"x_max":824,"o":"m 332 -14 q 21 308 21 -14 q 109 580 21 488 q 344 672 197 672 q 421 665 381 672 q 488 647 461 658 l 488 936 l 824 936 l 824 0 l 532 0 l 517 43 q 433 1 478 15 q 332 -14 389 -14 m 429 226 q 460 231 447 226 q 488 247 474 236 l 488 411 q 460 427 474 422 q 429 432 447 432 q 381 401 399 432 q 364 311 364 369 q 379 242 364 257 q 429 226 394 226 m 283 -100 l 500 -100 l 500 -296 l 283 -296 l 283 -100 z "},"ḏ":{"ha":872,"x_min":21,"x_max":824,"o":"m 332 -14 q 21 308 21 -14 q 109 580 21 488 q 344 672 197 672 q 421 665 381 672 q 488 647 461 658 l 488 936 l 824 936 l 824 0 l 532 0 l 517 43 q 433 1 478 15 q 332 -14 389 -14 m 429 226 q 460 231 447 226 q 488 247 474 236 l 488 411 q 460 427 474 422 q 429 432 447 432 q 381 401 399 432 q 364 311 364 369 q 379 242 364 257 q 429 226 394 226 m 239 -72 l 724 -72 l 724 -267 l 239 -267 l 239 -72 z "},"e":{"ha":788,"x_min":21,"x_max":767,"o":"m 431 -14 q 219 26 313 -14 q 74 142 126 65 q 21 326 21 218 q 117 580 21 488 q 394 672 213 672 q 666 588 565 672 q 767 351 767 504 l 767 239 l 328 239 q 521 183 372 183 q 638 193 579 183 q 733 217 697 203 l 733 36 q 431 -14 629 -14 m 479 407 l 479 419 q 462 458 479 443 q 406 474 444 474 q 347 456 365 474 q 328 407 328 438 l 479 407 z "},"é":{"ha":788,"x_min":21,"x_max":767,"o":"m 419 1039 l 678 1039 l 532 725 l 286 725 l 419 1039 m 431 -14 q 219 26 313 -14 q 74 142 126 65 q 21 326 21 218 q 117 580 21 488 q 394 672 213 672 q 666 588 565 672 q 767 351 767 504 l 767 239 l 328 239 q 521 183 372 183 q 638 193 579 183 q 733 217 697 203 l 733 36 q 431 -14 629 -14 m 479 407 l 479 419 q 462 458 479 443 q 406 474 444 474 q 347 456 365 474 q 328 407 328 438 l 479 407 z "},"ĕ":{"ha":788,"x_min":21,"x_max":767,"o":"m 404 725 q 181 805 263 725 q 99 1031 99 885 l 314 1031 q 335 943 314 978 q 404 908 356 908 q 474 943 453 908 q 496 1031 496 978 l 711 1031 q 628 804 711 883 q 404 725 546 725 m 431 -14 q 219 26 313 -14 q 74 142 126 65 q 21 326 21 218 q 117 580 21 488 q 394 672 213 672 q 666 588 565 672 q 767 351 767 504 l 767 239 l 328 239 q 521 183 372 183 q 638 193 579 183 q 733 217 697 203 l 733 36 q 431 -14 629 -14 m 479 407 l 479 419 q 462 458 479 443 q 406 474 444 474 q 347 456 365 474 q 328 407 328 438 l 479 407 z "},"ě":{"ha":788,"x_min":21,"x_max":767,"o":"m 68 1025 l 308 1025 l 410 876 l 517 1025 l 750 1025 l 507 725 l 311 725 l 68 1025 m 431 -14 q 219 26 313 -14 q 74 142 126 65 q 21 326 21 218 q 117 580 21 488 q 394 672 213 672 q 666 588 565 672 q 767 351 767 504 l 767 239 l 328 239 q 521 183 372 183 q 638 193 579 183 q 733 217 697 203 l 733 36 q 431 -14 629 -14 m 479 407 l 479 419 q 462 458 479 443 q 406 474 444 474 q 347 456 365 474 q 328 407 328 438 l 479 407 z "},"ê":{"ha":788,"x_min":21,"x_max":767,"o":"m 303 1025 l 499 1025 l 742 725 l 508 725 l 401 874 l 300 725 l 60 725 l 303 1025 m 431 -14 q 219 26 313 -14 q 74 142 126 65 q 21 326 21 218 q 117 580 21 488 q 394 672 213 672 q 666 588 565 672 q 767 351 767 504 l 767 239 l 328 239 q 521 183 372 183 q 638 193 579 183 q 733 217 697 203 l 733 36 q 431 -14 629 -14 m 479 407 l 479 419 q 462 458 479 443 q 406 474 444 474 q 347 456 365 474 q 328 407 328 438 l 479 407 z "},"ế":{"ha":788,"x_min":21,"x_max":964,"o":"m 719 1147 l 964 1147 l 849 908 l 615 908 l 719 1147 m 294 958 l 538 958 l 757 725 l 494 725 l 417 831 l 343 725 l 75 725 l 294 958 m 431 -14 q 219 26 313 -14 q 74 142 126 65 q 21 326 21 218 q 117 580 21 488 q 394 672 213 672 q 666 588 565 672 q 767 351 767 504 l 767 239 l 328 239 q 521 183 372 183 q 638 193 579 183 q 733 217 697 203 l 733 36 q 431 -14 629 -14 m 479 407 l 479 419 q 462 458 479 443 q 406 474 444 474 q 347 456 365 474 q 328 407 328 438 l 479 407 z "},"ệ":{"ha":788,"x_min":21,"x_max":767,"o":"m 292 1025 l 488 1025 l 731 725 l 497 725 l 390 874 l 289 725 l 49 725 l 292 1025 m 431 -14 q 219 26 313 -14 q 74 142 126 65 q 21 326 21 218 q 117 580 21 488 q 394 672 213 672 q 666 588 565 672 q 767 351 767 504 l 767 239 l 328 239 q 521 183 372 183 q 638 193 579 183 q 733 217 697 203 l 733 36 q 431 -14 629 -14 m 479 407 l 479 419 q 462 458 479 443 q 406 474 444 474 q 347 456 365 474 q 328 407 328 438 l 479 407 m 282 -100 l 499 -100 l 499 -296 l 282 -296 l 282 -100 z "},"ề":{"ha":788,"x_min":-135,"x_max":767,"o":"m -135 1147 l 110 1147 l 214 908 l -19 908 l -135 1147 m 292 958 l 535 958 l 754 725 l 486 725 l 413 831 l 335 725 l 72 725 l 292 958 m 431 -14 q 219 26 313 -14 q 74 142 126 65 q 21 326 21 218 q 117 580 21 488 q 394 672 213 672 q 666 588 565 672 q 767 351 767 504 l 767 239 l 328 239 q 521 183 372 183 q 638 193 579 183 q 733 217 697 203 l 733 36 q 431 -14 629 -14 m 479 407 l 479 419 q 462 458 479 443 q 406 474 444 474 q 347 456 365 474 q 328 407 328 438 l 479 407 z "},"ể":{"ha":788,"x_min":21,"x_max":933,"o":"m 618 988 q 688 997 668 989 q 707 1019 707 1006 q 696 1036 707 1032 q 660 1040 685 1040 q 593 1026 629 1040 l 593 1154 q 754 1171 657 1171 q 885 1135 838 1171 q 933 1043 933 1099 q 909 961 933 993 q 836 919 885 929 l 836 876 l 618 876 l 618 988 m 282 958 l 525 958 l 744 725 l 482 725 l 404 831 l 331 725 l 63 725 l 282 958 m 431 -14 q 219 26 313 -14 q 74 142 126 65 q 21 326 21 218 q 117 580 21 488 q 394 672 213 672 q 666 588 565 672 q 767 351 767 504 l 767 239 l 328 239 q 521 183 372 183 q 638 193 579 183 q 733 217 697 203 l 733 36 q 431 -14 629 -14 m 479 407 l 479 419 q 462 458 479 443 q 406 474 444 474 q 347 456 365 474 q 328 407 328 438 l 479 407 z "},"ễ":{"ha":788,"x_min":21,"x_max":767,"o":"m 553 979 q 488 987 521 979 q 410 1010 454 994 q 339 1031 365 1024 q 286 1038 313 1038 q 147 983 201 1038 l 147 1171 q 206 1203 168 1190 q 282 1217 243 1217 q 346 1209 315 1217 q 421 1186 376 1201 q 491 1165 463 1172 q 549 1158 519 1158 q 628 1174 593 1158 q 679 1213 663 1189 l 679 1025 q 630 993 667 1007 q 553 979 593 979 m 282 958 l 525 958 l 744 725 l 482 725 l 404 831 l 331 725 l 63 725 l 282 958 m 431 -14 q 219 26 313 -14 q 74 142 126 65 q 21 326 21 218 q 117 580 21 488 q 394 672 213 672 q 666 588 565 672 q 767 351 767 504 l 767 239 l 328 239 q 521 183 372 183 q 638 193 579 183 q 733 217 697 203 l 733 36 q 431 -14 629 -14 m 479 407 l 479 419 q 462 458 479 443 q 406 474 444 474 q 347 456 365 474 q 328 407 328 438 l 479 407 z "},"ë":{"ha":788,"x_min":21,"x_max":767,"o":"m 129 963 l 346 963 l 346 767 l 129 767 l 129 963 m 456 963 l 672 963 l 672 767 l 456 767 l 456 963 m 431 -14 q 219 26 313 -14 q 74 142 126 65 q 21 326 21 218 q 117 580 21 488 q 394 672 213 672 q 666 588 565 672 q 767 351 767 504 l 767 239 l 328 239 q 521 183 372 183 q 638 193 579 183 q 733 217 697 203 l 733 36 q 431 -14 629 -14 m 479 407 l 479 419 q 462 458 479 443 q 406 474 444 474 q 347 456 365 474 q 328 407 328 438 l 479 407 z "},"ė":{"ha":788,"x_min":21,"x_max":767,"o":"m 294 963 l 511 963 l 511 767 l 294 767 l 294 963 m 431 -14 q 219 26 313 -14 q 74 142 126 65 q 21 326 21 218 q 117 580 21 488 q 394 672 213 672 q 666 588 565 672 q 767 351 767 504 l 767 239 l 328 239 q 521 183 372 183 q 638 193 579 183 q 733 217 697 203 l 733 36 q 431 -14 629 -14 m 479 407 l 479 419 q 462 458 479 443 q 406 474 444 474 q 347 456 365 474 q 328 407 328 438 l 479 407 z "},"ẹ":{"ha":788,"x_min":21,"x_max":767,"o":"m 431 -14 q 219 26 313 -14 q 74 142 126 65 q 21 326 21 218 q 117 580 21 488 q 394 672 213 672 q 666 588 565 672 q 767 351 767 504 l 767 239 l 328 239 q 521 183 372 183 q 638 193 579 183 q 733 217 697 203 l 733 36 q 431 -14 629 -14 m 479 407 l 479 419 q 462 458 479 443 q 406 474 444 474 q 347 456 365 474 q 328 407 328 438 l 479 407 m 307 -100 l 524 -100 l 524 -296 l 307 -296 l 307 -100 z "},"è":{"ha":788,"x_min":21,"x_max":767,"o":"m 132 1039 l 390 1039 l 524 725 l 278 725 l 132 1039 m 431 -14 q 219 26 313 -14 q 74 142 126 65 q 21 326 21 218 q 117 580 21 488 q 394 672 213 672 q 666 588 565 672 q 767 351 767 504 l 767 239 l 328 239 q 521 183 372 183 q 638 193 579 183 q 733 217 697 203 l 733 36 q 431 -14 629 -14 m 479 407 l 479 419 q 462 458 479 443 q 406 474 444 474 q 347 456 365 474 q 328 407 328 438 l 479 407 z "},"ẻ":{"ha":788,"x_min":21,"x_max":767,"o":"m 281 838 q 399 892 399 844 q 382 922 399 913 q 329 931 365 931 q 251 917 286 931 l 251 1047 q 432 1068 325 1068 q 586 1026 531 1068 q 642 919 642 985 q 615 826 642 858 q 528 775 589 794 l 528 725 l 281 725 l 281 838 m 431 -14 q 219 26 313 -14 q 74 142 126 65 q 21 326 21 218 q 117 580 21 488 q 394 672 213 672 q 666 588 565 672 q 767 351 767 504 l 767 239 l 328 239 q 521 183 372 183 q 638 193 579 183 q 733 217 697 203 l 733 36 q 431 -14 629 -14 m 479 407 l 479 419 q 462 458 479 443 q 406 474 444 474 q 347 456 365 474 q 328 407 328 438 l 479 407 z "},"ē":{"ha":788,"x_min":21,"x_max":767,"o":"m 153 975 l 638 975 l 638 781 l 153 781 l 153 975 m 431 -14 q 219 26 313 -14 q 74 142 126 65 q 21 326 21 218 q 117 580 21 488 q 394 672 213 672 q 666 588 565 672 q 767 351 767 504 l 767 239 l 328 239 q 521 183 372 183 q 638 193 579 183 q 733 217 697 203 l 733 36 q 431 -14 629 -14 m 479 407 l 479 419 q 462 458 479 443 q 406 474 444 474 q 347 456 365 474 q 328 407 328 438 l 479 407 z "},"ę":{"ha":788,"x_min":21,"x_max":767,"o":"m 767 239 l 328 239 q 521 183 372 183 q 638 193 579 183 q 733 217 697 203 l 733 36 q 571 -7 669 6 q 511 -106 511 -54 q 527 -140 511 -131 q 576 -149 543 -149 q 615 -144 594 -149 q 647 -133 635 -140 l 647 -281 q 574 -298 619 -290 q 481 -306 528 -306 q 329 -270 383 -306 q 275 -161 275 -235 q 299 -76 275 -115 q 363 -10 324 -36 q 115 94 208 7 q 21 326 21 181 q 117 580 21 488 q 394 672 213 672 q 666 588 565 672 q 767 351 767 504 l 767 239 m 479 419 q 462 458 479 443 q 406 474 444 474 q 347 456 365 474 q 328 407 328 438 l 479 407 l 479 419 z "},"ẽ":{"ha":788,"x_min":21,"x_max":767,"o":"m 557 732 q 490 740 524 732 q 406 764 457 747 q 335 785 364 778 q 278 793 306 793 q 132 736 189 793 l 132 932 q 193 966 154 951 q 274 981 232 981 q 340 973 308 981 q 417 950 371 965 q 491 927 461 935 q 553 919 521 919 q 635 935 599 919 q 689 976 671 951 l 689 781 q 637 747 675 761 q 557 732 599 732 m 431 -14 q 219 26 313 -14 q 74 142 126 65 q 21 326 21 218 q 117 580 21 488 q 394 672 213 672 q 666 588 565 672 q 767 351 767 504 l 767 239 l 328 239 q 521 183 372 183 q 638 193 579 183 q 733 217 697 203 l 733 36 q 431 -14 629 -14 m 479 407 l 479 419 q 462 458 479 443 q 406 474 444 474 q 347 456 365 474 q 328 407 328 438 l 479 407 z "},"f":{"ha":549,"x_min":-7,"x_max":556,"o":"m 71 417 l -7 417 l -7 658 l 71 658 l 71 679 q 143 881 71 804 q 351 958 215 958 q 556 921 468 958 l 556 713 q 472 726 515 726 q 407 671 407 726 l 407 658 l 550 658 l 536 417 l 407 417 l 407 0 l 71 0 l 71 417 z "},"g":{"ha":814,"x_min":21,"x_max":807,"o":"m 358 -244 q 181 -236 272 -244 q 44 -211 89 -228 l 44 -19 q 178 -45 96 -36 q 338 -54 261 -54 q 471 -32 471 -54 q 457 -19 471 -22 q 413 -17 443 -17 l 254 -17 q 79 15 138 -17 q 21 113 21 46 q 50 193 21 160 q 131 242 79 226 q 49 313 74 271 q 25 422 25 354 q 117 610 25 549 q 385 672 210 672 q 468 667 419 672 q 539 658 517 663 l 807 658 l 801 460 l 729 460 q 738 418 738 438 q 681 257 738 313 q 500 201 624 201 q 429 204 468 201 q 378 179 378 201 q 387 165 378 168 q 414 161 396 161 l 531 161 q 698 115 638 161 q 758 -26 758 68 q 660 -186 758 -128 q 358 -244 563 -244 m 388 382 q 440 394 425 382 q 456 436 456 407 q 440 480 456 467 q 388 493 424 493 q 335 480 351 493 q 319 436 319 467 q 335 394 319 407 q 388 382 350 382 z "},"ğ":{"ha":814,"x_min":21,"x_max":807,"o":"m 418 725 q 194 805 276 725 q 113 1031 113 885 l 328 1031 q 349 943 328 978 q 418 908 369 908 q 488 943 467 908 q 510 1031 510 978 l 725 1031 q 642 804 725 883 q 418 725 560 725 m 358 -244 q 181 -236 272 -244 q 44 -211 89 -228 l 44 -19 q 178 -45 96 -36 q 338 -54 261 -54 q 471 -32 471 -54 q 457 -19 471 -22 q 413 -17 443 -17 l 254 -17 q 79 15 138 -17 q 21 113 21 46 q 50 193 21 160 q 131 242 79 226 q 49 313 74 271 q 25 422 25 354 q 117 610 25 549 q 385 672 210 672 q 468 667 419 672 q 539 658 517 663 l 807 658 l 801 460 l 729 460 q 738 418 738 438 q 681 257 738 313 q 500 201 624 201 q 429 204 468 201 q 378 179 378 201 q 387 165 378 168 q 414 161 396 161 l 531 161 q 698 115 638 161 q 758 -26 758 68 q 660 -186 758 -128 q 358 -244 563 -244 m 388 382 q 440 394 425 382 q 456 436 456 407 q 440 480 456 467 q 388 493 424 493 q 335 480 351 493 q 319 436 319 467 q 335 394 319 407 q 388 382 350 382 z "},"ǧ":{"ha":814,"x_min":21,"x_max":807,"o":"m 69 1025 l 310 1025 l 411 876 l 518 1025 l 751 1025 l 508 725 l 313 725 l 69 1025 m 358 -244 q 181 -236 272 -244 q 44 -211 89 -228 l 44 -19 q 178 -45 96 -36 q 338 -54 261 -54 q 471 -32 471 -54 q 457 -19 471 -22 q 413 -17 443 -17 l 254 -17 q 79 15 138 -17 q 21 113 21 46 q 50 193 21 160 q 131 242 79 226 q 49 313 74 271 q 25 422 25 354 q 117 610 25 549 q 385 672 210 672 q 468 667 419 672 q 539 658 517 663 l 807 658 l 801 460 l 729 460 q 738 418 738 438 q 681 257 738 313 q 500 201 624 201 q 429 204 468 201 q 378 179 378 201 q 387 165 378 168 q 414 161 396 161 l 531 161 q 698 115 638 161 q 758 -26 758 68 q 660 -186 758 -128 q 358 -244 563 -244 m 388 382 q 440 394 425 382 q 456 436 456 407 q 440 480 456 467 q 388 493 424 493 q 335 480 351 493 q 319 436 319 467 q 335 394 319 407 q 388 382 350 382 z "},"ĝ":{"ha":814,"x_min":21,"x_max":807,"o":"m 321 1025 l 517 1025 l 760 725 l 526 725 l 419 874 l 318 725 l 78 725 l 321 1025 m 358 -244 q 181 -236 272 -244 q 44 -211 89 -228 l 44 -19 q 178 -45 96 -36 q 338 -54 261 -54 q 471 -32 471 -54 q 457 -19 471 -22 q 413 -17 443 -17 l 254 -17 q 79 15 138 -17 q 21 113 21 46 q 50 193 21 160 q 131 242 79 226 q 49 313 74 271 q 25 422 25 354 q 117 610 25 549 q 385 672 210 672 q 468 667 419 672 q 539 658 517 663 l 807 658 l 801 460 l 729 460 q 738 418 738 438 q 681 257 738 313 q 500 201 624 201 q 429 204 468 201 q 378 179 378 201 q 387 165 378 168 q 414 161 396 161 l 531 161 q 698 115 638 161 q 758 -26 758 68 q 660 -186 758 -128 q 358 -244 563 -244 m 388 382 q 440 394 425 382 q 456 436 456 407 q 440 480 456 467 q 388 493 424 493 q 335 480 351 493 q 319 436 319 467 q 335 394 319 407 q 388 382 350 382 z "},"ģ":{"ha":814,"x_min":21,"x_max":807,"o":"m 363 1071 l 572 1071 l 521 725 l 272 725 l 363 1071 m 358 -244 q 181 -236 272 -244 q 44 -211 89 -228 l 44 -19 q 178 -45 96 -36 q 338 -54 261 -54 q 471 -32 471 -54 q 457 -19 471 -22 q 413 -17 443 -17 l 254 -17 q 79 15 138 -17 q 21 113 21 46 q 50 193 21 160 q 131 242 79 226 q 49 313 74 271 q 25 422 25 354 q 117 610 25 549 q 385 672 210 672 q 468 667 419 672 q 539 658 517 663 l 807 658 l 801 460 l 729 460 q 738 418 738 438 q 681 257 738 313 q 500 201 624 201 q 429 204 468 201 q 378 179 378 201 q 387 165 378 168 q 414 161 396 161 l 531 161 q 698 115 638 161 q 758 -26 758 68 q 660 -186 758 -128 q 358 -244 563 -244 m 388 382 q 440 394 425 382 q 456 436 456 407 q 440 480 456 467 q 388 493 424 493 q 335 480 351 493 q 319 436 319 467 q 335 394 319 407 q 388 382 350 382 z "},"ġ":{"ha":814,"x_min":21,"x_max":807,"o":"m 296 935 l 513 935 l 513 739 l 296 739 l 296 935 m 358 -244 q 181 -236 272 -244 q 44 -211 89 -228 l 44 -19 q 178 -45 96 -36 q 338 -54 261 -54 q 471 -32 471 -54 q 457 -19 471 -22 q 413 -17 443 -17 l 254 -17 q 79 15 138 -17 q 21 113 21 46 q 50 193 21 160 q 131 242 79 226 q 49 313 74 271 q 25 422 25 354 q 117 610 25 549 q 385 672 210 672 q 468 667 419 672 q 539 658 517 663 l 807 658 l 801 460 l 729 460 q 738 418 738 438 q 681 257 738 313 q 500 201 624 201 q 429 204 468 201 q 378 179 378 201 q 387 165 378 168 q 414 161 396 161 l 531 161 q 698 115 638 161 q 758 -26 758 68 q 660 -186 758 -128 q 358 -244 563 -244 m 388 382 q 440 394 425 382 q 456 436 456 407 q 440 480 456 467 q 388 493 424 493 q 335 480 351 493 q 319 436 319 467 q 335 394 319 407 q 388 382 350 382 z "},"ḡ":{"ha":814,"x_min":21,"x_max":807,"o":"m 151 961 l 636 961 l 636 767 l 151 767 l 151 961 m 358 -244 q 181 -236 272 -244 q 44 -211 89 -228 l 44 -19 q 178 -45 96 -36 q 338 -54 261 -54 q 471 -32 471 -54 q 457 -19 471 -22 q 413 -17 443 -17 l 254 -17 q 79 15 138 -17 q 21 113 21 46 q 50 193 21 160 q 131 242 79 226 q 49 313 74 271 q 25 422 25 354 q 117 610 25 549 q 385 672 210 672 q 468 667 419 672 q 539 658 517 663 l 807 658 l 801 460 l 729 460 q 738 418 738 438 q 681 257 738 313 q 500 201 624 201 q 429 204 468 201 q 378 179 378 201 q 387 165 378 168 q 414 161 396 161 l 531 161 q 698 115 638 161 q 758 -26 758 68 q 660 -186 758 -128 q 358 -244 563 -244 m 388 382 q 440 394 425 382 q 456 436 456 407 q 440 480 456 467 q 388 493 424 493 q 335 480 351 493 q 319 436 319 467 q 335 394 319 407 q 388 382 350 382 z "},"h":{"ha":869,"x_min":49,"x_max":828,"o":"m 49 936 l 385 936 l 385 633 q 461 661 414 650 q 557 672 508 672 q 762 607 696 672 q 828 406 828 542 l 828 0 l 492 0 l 492 378 q 446 425 492 425 q 413 417 431 425 q 385 397 394 408 l 385 0 l 49 0 l 49 936 z "},"ħ":{"ha":883,"x_min":14,"x_max":842,"o":"m 571 672 q 776 607 710 672 q 842 406 842 542 l 842 0 l 506 0 l 506 378 q 460 425 506 425 q 426 417 444 425 q 399 397 408 408 l 399 0 l 63 0 l 63 722 l 14 722 l 14 858 l 63 858 l 63 936 l 399 936 l 399 858 l 519 858 l 519 722 l 399 722 l 399 633 q 475 661 428 650 q 571 672 522 672 z "},"ḫ":{"ha":869,"x_min":49,"x_max":828,"o":"m 49 936 l 385 936 l 385 633 q 461 661 414 650 q 557 672 508 672 q 762 607 696 672 q 828 406 828 542 l 828 0 l 492 0 l 492 378 q 446 425 492 425 q 413 417 431 425 q 385 397 394 408 l 385 0 l 49 0 l 49 936 m 446 -361 q 222 -281 304 -361 q 140 -56 140 -201 l 356 -56 q 376 -143 356 -108 q 446 -178 397 -178 q 516 -143 494 -178 q 538 -56 538 -108 l 753 -56 q 670 -282 753 -203 q 446 -361 588 -361 z "},"ĥ":{"ha":869,"x_min":49,"x_max":828,"o":"m 303 1289 l 499 1289 l 742 989 l 508 989 l 401 1138 l 300 989 l 60 989 l 303 1289 m 49 936 l 385 936 l 385 633 q 461 661 414 650 q 557 672 508 672 q 762 607 696 672 q 828 406 828 542 l 828 0 l 492 0 l 492 378 q 446 425 492 425 q 413 417 431 425 q 385 397 394 408 l 385 0 l 49 0 l 49 936 z "},"ḥ":{"ha":869,"x_min":49,"x_max":828,"o":"m 49 936 l 385 936 l 385 633 q 461 661 414 650 q 557 672 508 672 q 762 607 696 672 q 828 406 828 542 l 828 0 l 492 0 l 492 378 q 446 425 492 425 q 413 417 431 425 q 385 397 394 408 l 385 0 l 49 0 l 49 936 m 322 -100 l 539 -100 l 539 -296 l 322 -296 l 322 -100 z "},"i":{"ha":525,"x_min":49,"x_max":476,"o":"m 117 944 l 476 944 l 476 713 l 117 713 l 117 944 m 140 417 l 49 417 l 76 658 l 476 658 l 476 0 l 140 0 l 140 417 z "},"ı":{"ha":525,"x_min":49,"x_max":476,"o":"m 140 417 l 49 417 l 76 658 l 476 658 l 476 0 l 140 0 l 140 417 z "},"í":{"ha":525,"x_min":49,"x_max":554,"o":"m 296 1039 l 554 1039 l 408 725 l 163 725 l 296 1039 m 140 417 l 49 417 l 76 658 l 476 658 l 476 0 l 140 0 l 140 417 z "},"ĭ":{"ha":525,"x_min":-28,"x_max":585,"o":"m 278 725 q 54 805 136 725 q -28 1031 -28 885 l 188 1031 q 208 943 188 978 q 278 908 229 908 q 348 943 326 908 q 369 1031 369 978 l 585 1031 q 502 804 585 883 q 278 725 419 725 m 140 417 l 49 417 l 76 658 l 476 658 l 476 0 l 140 0 l 140 417 z "},"ǐ":{"ha":525,"x_min":-46,"x_max":636,"o":"m -46 1025 l 194 1025 l 296 876 l 403 1025 l 636 1025 l 393 725 l 197 725 l -46 1025 m 140 417 l 49 417 l 76 658 l 476 658 l 476 0 l 140 0 l 140 417 z "},"î":{"ha":525,"x_min":-57,"x_max":625,"o":"m 186 1025 l 382 1025 l 625 725 l 392 725 l 285 874 l 183 725 l -57 725 l 186 1025 m 140 417 l 49 417 l 76 658 l 476 658 l 476 0 l 140 0 l 140 417 z "},"ï":{"ha":525,"x_min":3,"x_max":546,"o":"m 3 963 l 219 963 l 219 767 l 3 767 l 3 963 m 329 963 l 546 963 l 546 767 l 329 767 l 329 963 m 140 417 l 49 417 l 76 658 l 476 658 l 476 0 l 140 0 l 140 417 z "},"ị":{"ha":525,"x_min":49,"x_max":476,"o":"m 117 944 l 476 944 l 476 713 l 117 713 l 117 944 m 140 417 l 49 417 l 76 658 l 476 658 l 476 0 l 140 0 l 140 417 m 201 -100 l 418 -100 l 418 -296 l 201 -296 l 201 -100 z "},"ì":{"ha":525,"x_min":32,"x_max":476,"o":"m 32 1039 l 290 1039 l 424 725 l 178 725 l 32 1039 m 140 417 l 49 417 l 76 658 l 476 658 l 476 0 l 140 0 l 140 417 z "},"ỉ":{"ha":525,"x_min":49,"x_max":521,"o":"m 160 838 q 278 892 278 844 q 261 922 278 913 q 208 931 244 931 q 131 917 165 931 l 131 1047 q 311 1068 204 1068 q 465 1026 410 1068 q 521 919 521 985 q 494 826 521 858 q 407 775 468 794 l 407 725 l 160 725 l 160 838 m 140 417 l 49 417 l 76 658 l 476 658 l 476 0 l 140 0 l 140 417 z "},"ĳ":{"ha":992,"x_min":49,"x_max":943,"o":"m 117 944 l 476 944 l 476 713 l 117 713 l 117 944 m 583 944 l 943 944 l 943 713 l 583 713 l 583 944 m 140 417 l 49 417 l 76 658 l 476 658 l 476 0 l 140 0 l 140 417 m 663 -325 q 458 -287 546 -325 l 458 -79 q 542 -93 499 -93 q 607 -37 607 -93 l 607 417 l 515 417 l 543 658 l 943 658 l 943 -60 q 874 -253 943 -182 q 663 -325 806 -325 z "},"ī":{"ha":525,"x_min":29,"x_max":514,"o":"m 29 1014 l 514 1014 l 514 819 l 29 819 l 29 1014 m 140 417 l 49 417 l 76 658 l 476 658 l 476 0 l 140 0 l 140 417 z "},"į":{"ha":525,"x_min":49,"x_max":481,"o":"m 476 713 l 117 713 l 117 944 l 476 944 l 476 713 m 410 -149 q 448 -144 428 -149 q 481 -133 468 -140 l 481 -281 q 407 -298 453 -290 q 314 -306 361 -306 q 163 -270 217 -306 q 108 -161 108 -235 q 138 -68 108 -110 q 213 0 167 -26 l 140 0 l 140 417 l 49 417 l 76 658 l 476 658 l 476 0 l 413 0 q 344 -106 344 -51 q 360 -140 344 -131 q 410 -149 376 -149 z "},"ĩ":{"ha":525,"x_min":-11,"x_max":546,"o":"m 414 771 q 347 778 381 771 q 263 803 314 786 q 192 824 221 817 q 135 832 163 832 q -11 775 46 832 l -11 971 q 50 1005 11 990 q 131 1019 89 1019 q 197 1012 165 1019 q 274 989 228 1004 q 348 966 318 974 q 410 958 378 958 q 492 974 456 958 q 546 1015 528 990 l 546 819 q 494 785 532 800 q 414 771 456 771 m 140 417 l 49 417 l 76 658 l 476 658 l 476 0 l 140 0 l 140 417 z "},"j":{"ha":525,"x_min":-8,"x_max":476,"o":"m 117 944 l 476 944 l 476 713 l 117 713 l 117 944 m 196 -325 q -8 -287 79 -325 l -8 -79 q 75 -93 32 -93 q 140 -37 140 -93 l 140 417 l 49 417 l 76 658 l 476 658 l 476 -60 q 408 -253 476 -182 q 196 -325 339 -325 z "},"ȷ":{"ha":525,"x_min":-8,"x_max":476,"o":"m 196 -325 q -8 -287 79 -325 l -8 -79 q 75 -93 32 -93 q 140 -37 140 -93 l 140 417 l 49 417 l 76 658 l 476 658 l 476 -60 q 408 -253 476 -182 q 196 -325 339 -325 z "},"ĵ":{"ha":525,"x_min":-65,"x_max":617,"o":"m 178 1025 l 374 1025 l 617 725 l 383 725 l 276 874 l 175 725 l -65 725 l 178 1025 m 197 -325 q -7 -287 81 -325 l -7 -79 q 76 -93 33 -93 q 142 -37 142 -93 l 142 417 l 50 417 l 78 658 l 478 658 l 478 -60 q 409 -253 478 -182 q 197 -325 340 -325 z "},"k":{"ha":918,"x_min":49,"x_max":897,"o":"m 49 936 l 385 936 l 385 526 l 506 658 l 883 658 l 624 374 l 897 0 l 542 0 l 415 199 l 385 164 l 385 0 l 49 0 l 49 936 z "},"ķ":{"ha":918,"x_min":49,"x_max":897,"o":"m 49 936 l 385 936 l 385 526 l 506 658 l 883 658 l 624 374 l 897 0 l 542 0 l 415 199 l 385 164 l 385 0 l 49 0 l 49 936 m 317 -51 l 565 -51 l 475 -397 l 265 -397 l 317 -51 z "},"ĸ":{"ha":918,"x_min":49,"x_max":897,"o":"m 49 658 l 385 658 l 385 513 l 506 658 l 883 658 l 624 360 l 897 0 l 542 0 l 415 185 l 385 150 l 385 0 l 49 0 l 49 658 z "},"l":{"ha":510,"x_min":49,"x_max":503,"o":"m 313 -14 q 109 43 169 -14 q 49 225 49 100 l 49 936 l 385 936 l 385 269 q 395 231 385 243 q 433 218 406 218 q 503 231 472 218 l 503 22 q 417 -6 456 3 q 313 -14 378 -14 z "},"ĺ":{"ha":510,"x_min":49,"x_max":503,"o":"m 231 1364 l 489 1364 l 343 1050 l 97 1050 l 231 1364 m 313 -14 q 109 43 169 -14 q 49 225 49 100 l 49 936 l 385 936 l 385 269 q 395 231 385 243 q 433 218 406 218 q 503 231 472 218 l 503 22 q 417 -6 456 3 q 313 -14 378 -14 z "},"ľ":{"ha":510,"x_min":49,"x_max":503,"o":"m 167 1319 l 415 1319 l 325 974 l 115 974 l 167 1319 m 313 -14 q 109 43 169 -14 q 49 225 49 100 l 49 936 l 385 936 l 385 269 q 395 231 385 243 q 433 218 406 218 q 503 231 472 218 l 503 22 q 417 -6 456 3 q 313 -14 378 -14 z "},"ļ":{"ha":510,"x_min":49,"x_max":503,"o":"m 313 -14 q 109 43 169 -14 q 49 225 49 100 l 49 936 l 385 936 l 385 269 q 395 231 385 243 q 433 218 406 218 q 503 231 472 218 l 503 22 q 417 -6 456 3 q 313 -14 378 -14 m 183 -51 l 432 -51 l 342 -397 l 132 -397 l 183 -51 z "},"ŀ":{"ha":571,"x_min":49,"x_max":657,"o":"m 313 -14 q 109 43 169 -14 q 49 225 49 100 l 49 936 l 385 936 l 385 269 q 395 231 385 243 q 433 218 406 218 q 503 231 472 218 l 503 22 q 417 -6 456 3 q 313 -14 378 -14 m 440 626 l 657 626 l 657 431 l 440 431 l 440 626 z "},"ḷ":{"ha":510,"x_min":49,"x_max":503,"o":"m 313 -14 q 109 43 169 -14 q 49 225 49 100 l 49 936 l 385 936 l 385 269 q 395 231 385 243 q 433 218 406 218 q 503 231 472 218 l 503 22 q 417 -6 456 3 q 313 -14 378 -14 m 167 -100 l 383 -100 l 383 -296 l 167 -296 l 167 -100 z "},"ḹ":{"ha":510,"x_min":-24,"x_max":503,"o":"m -24 1208 l 461 1208 l 461 1014 l -24 1014 l -24 1208 m 313 -14 q 109 43 169 -14 q 49 225 49 100 l 49 936 l 385 936 l 385 269 q 395 231 385 243 q 433 218 406 218 q 503 231 472 218 l 503 22 q 417 -6 456 3 q 313 -14 378 -14 m 167 -100 l 383 -100 l 383 -296 l 167 -296 l 167 -100 z "},"ḻ":{"ha":510,"x_min":29,"x_max":514,"o":"m 313 -14 q 109 43 169 -14 q 49 225 49 100 l 49 936 l 385 936 l 385 269 q 395 231 385 243 q 433 218 406 218 q 503 231 472 218 l 503 22 q 417 -6 456 3 q 313 -14 378 -14 m 29 -103 l 514 -103 l 514 -297 l 29 -297 l 29 -103 z "},"ł":{"ha":510,"x_min":-40,"x_max":503,"o":"m 433 218 q 503 231 472 218 l 503 22 q 417 -6 456 3 q 313 -14 378 -14 q 109 43 169 -14 q 49 225 49 100 l 49 314 l -40 275 l -40 510 l 49 549 l 49 936 l 385 936 l 385 696 l 476 736 l 476 501 l 385 461 l 385 269 q 395 231 385 243 q 433 218 406 218 z "},"m":{"ha":1207,"x_min":49,"x_max":1165,"o":"m 49 658 l 360 658 l 367 618 q 569 672 463 672 q 660 658 626 672 q 718 611 694 643 q 819 657 765 642 q 942 672 874 672 q 1112 611 1058 672 q 1165 424 1165 550 l 1165 0 l 836 0 l 836 383 q 828 415 836 406 q 797 425 819 425 q 758 407 775 425 l 758 0 l 449 0 l 449 392 q 442 417 449 410 q 418 425 435 425 q 371 400 392 425 l 371 0 l 49 0 l 49 658 z "},"ṃ":{"ha":1207,"x_min":49,"x_max":1165,"o":"m 49 658 l 360 658 l 367 618 q 569 672 463 672 q 660 658 626 672 q 718 611 694 643 q 819 657 765 642 q 942 672 874 672 q 1112 611 1058 672 q 1165 424 1165 550 l 1165 0 l 836 0 l 836 383 q 828 415 836 406 q 797 425 819 425 q 758 407 775 425 l 758 0 l 449 0 l 449 392 q 442 417 449 410 q 418 425 435 425 q 371 400 392 425 l 371 0 l 49 0 l 49 658 m 511 -100 l 728 -100 l 728 -296 l 511 -296 l 511 -100 z "},"n":{"ha":869,"x_min":49,"x_max":828,"o":"m 49 658 l 364 658 l 371 621 q 472 657 410 642 q 603 672 535 672 q 774 611 719 672 q 828 424 828 550 l 828 0 l 492 0 l 492 381 q 446 425 492 425 q 413 417 431 425 q 385 397 394 408 l 385 0 l 49 0 l 49 658 z "},"ń":{"ha":869,"x_min":49,"x_max":828,"o":"m 388 1039 l 646 1039 l 500 725 l 254 725 l 388 1039 m 49 658 l 364 658 l 371 621 q 472 657 410 642 q 603 672 535 672 q 774 611 719 672 q 828 424 828 550 l 828 0 l 492 0 l 492 381 q 446 425 492 425 q 413 417 431 425 q 385 397 394 408 l 385 0 l 49 0 l 49 658 z "},"ŉ":{"ha":876,"x_min":-228,"x_max":835,"o":"m -176 889 l 72 889 l -18 543 l -228 543 l -176 889 m 56 658 l 371 658 l 378 621 q 479 657 417 642 q 610 672 542 672 q 781 611 726 672 q 835 424 835 550 l 835 0 l 499 0 l 499 381 q 453 425 499 425 q 419 417 438 425 q 392 397 401 408 l 392 0 l 56 0 l 56 658 z "},"ň":{"ha":869,"x_min":49,"x_max":828,"o":"m 64 1025 l 304 1025 l 406 876 l 513 1025 l 746 1025 l 503 725 l 307 725 l 64 1025 m 49 658 l 364 658 l 371 621 q 472 657 410 642 q 603 672 535 672 q 774 611 719 672 q 828 424 828 550 l 828 0 l 492 0 l 492 381 q 446 425 492 425 q 413 417 431 425 q 385 397 394 408 l 385 0 l 49 0 l 49 658 z "},"ņ":{"ha":869,"x_min":49,"x_max":828,"o":"m 49 658 l 364 658 l 371 621 q 472 657 410 642 q 603 672 535 672 q 774 611 719 672 q 828 424 828 550 l 828 0 l 492 0 l 492 381 q 446 425 492 425 q 413 417 431 425 q 385 397 394 408 l 385 0 l 49 0 l 49 658 m 331 -51 l 579 -51 l 489 -397 l 279 -397 l 331 -51 z "},"ṅ":{"ha":869,"x_min":49,"x_max":828,"o":"m 317 963 l 533 963 l 533 767 l 317 767 l 317 963 m 49 658 l 364 658 l 371 621 q 472 657 410 642 q 603 672 535 672 q 774 611 719 672 q 828 424 828 550 l 828 0 l 492 0 l 492 381 q 446 425 492 425 q 413 417 431 425 q 385 397 394 408 l 385 0 l 49 0 l 49 658 z "},"ṇ":{"ha":869,"x_min":49,"x_max":828,"o":"m 49 658 l 364 658 l 371 621 q 472 657 410 642 q 603 672 535 672 q 774 611 719 672 q 828 424 828 550 l 828 0 l 492 0 l 492 381 q 446 425 492 425 q 413 417 431 425 q 385 397 394 408 l 385 0 l 49 0 l 49 658 m 328 -100 l 544 -100 l 544 -296 l 328 -296 l 328 -100 z "},"ŋ":{"ha":869,"x_min":49,"x_max":828,"o":"m 547 -325 q 343 -287 431 -325 l 343 -79 q 426 -93 383 -93 q 492 -37 492 -93 l 492 381 q 446 425 492 425 q 413 417 431 425 q 385 397 394 408 l 385 0 l 49 0 l 49 658 l 364 658 l 371 621 q 472 657 410 642 q 603 672 535 672 q 774 611 719 672 q 828 424 828 550 l 828 -60 q 759 -253 828 -182 q 547 -325 690 -325 z "},"ṉ":{"ha":869,"x_min":49,"x_max":828,"o":"m 49 658 l 364 658 l 371 621 q 472 657 410 642 q 603 672 535 672 q 774 611 719 672 q 828 424 828 550 l 828 0 l 492 0 l 492 381 q 446 425 492 425 q 413 417 431 425 q 385 397 394 408 l 385 0 l 49 0 l 49 658 m 200 -94 l 685 -94 l 685 -289 l 200 -289 l 200 -94 z "},"ñ":{"ha":869,"x_min":49,"x_max":828,"o":"m 578 732 q 511 740 544 732 q 426 764 478 747 q 356 785 385 778 q 299 793 326 793 q 153 736 210 793 l 153 932 q 214 966 175 951 q 294 981 253 981 q 360 973 329 981 q 438 950 392 965 q 512 927 482 935 q 574 919 542 919 q 656 935 619 919 q 710 976 692 951 l 710 781 q 658 747 696 761 q 578 732 619 732 m 49 658 l 364 658 l 371 621 q 472 657 410 642 q 603 672 535 672 q 774 611 719 672 q 828 424 828 550 l 828 0 l 492 0 l 492 381 q 446 425 492 425 q 413 417 431 425 q 385 397 394 408 l 385 0 l 49 0 l 49 658 z "},"o":{"ha":871,"x_min":21,"x_max":850,"o":"m 435 -14 q 21 329 21 -14 q 435 672 21 672 q 850 329 850 672 q 435 -14 850 -14 m 435 226 q 490 249 472 226 q 507 329 507 272 q 490 409 507 386 q 435 432 472 432 q 381 409 399 432 q 364 329 364 386 q 381 249 364 272 q 435 226 399 226 z "},"ó":{"ha":871,"x_min":21,"x_max":850,"o":"m 415 1039 l 674 1039 l 528 725 l 282 725 l 415 1039 m 435 -14 q 21 329 21 -14 q 435 672 21 672 q 850 329 850 672 q 435 -14 850 -14 m 435 226 q 490 249 472 226 q 507 329 507 272 q 490 409 507 386 q 435 432 472 432 q 381 409 399 432 q 364 329 364 386 q 381 249 364 272 q 435 226 399 226 z "},"ŏ":{"ha":871,"x_min":21,"x_max":850,"o":"m 435 725 q 211 805 293 725 q 129 1031 129 885 l 344 1031 q 365 943 344 978 q 435 908 386 908 q 505 943 483 908 q 526 1031 526 978 l 742 1031 q 659 804 742 883 q 435 725 576 725 m 435 -14 q 21 329 21 -14 q 435 672 21 672 q 850 329 850 672 q 435 -14 850 -14 m 435 226 q 490 249 472 226 q 507 329 507 272 q 490 409 507 386 q 435 432 472 432 q 381 409 399 432 q 364 329 364 386 q 381 249 364 272 q 435 226 399 226 z "},"ǒ":{"ha":871,"x_min":21,"x_max":850,"o":"m 94 1025 l 335 1025 l 436 876 l 543 1025 l 776 1025 l 533 725 l 338 725 l 94 1025 m 435 -14 q 21 329 21 -14 q 435 672 21 672 q 850 329 850 672 q 435 -14 850 -14 m 435 226 q 490 249 472 226 q 507 329 507 272 q 490 409 507 386 q 435 432 472 432 q 381 409 399 432 q 364 329 364 386 q 381 249 364 272 q 435 226 399 226 z "},"ô":{"ha":871,"x_min":21,"x_max":850,"o":"m 338 1025 l 533 1025 l 776 725 l 543 725 l 436 874 l 335 725 l 94 725 l 338 1025 m 435 -14 q 21 329 21 -14 q 435 672 21 672 q 850 329 850 672 q 435 -14 850 -14 m 435 226 q 490 249 472 226 q 507 329 507 272 q 490 409 507 386 q 435 432 472 432 q 381 409 399 432 q 364 329 364 386 q 381 249 364 272 q 435 226 399 226 z "},"ố":{"ha":871,"x_min":21,"x_max":974,"o":"m 729 1147 l 974 1147 l 858 908 l 625 908 l 729 1147 m 304 958 l 547 958 l 767 725 l 504 725 l 426 831 l 353 725 l 85 725 l 304 958 m 435 -14 q 21 329 21 -14 q 435 672 21 672 q 850 329 850 672 q 435 -14 850 -14 m 435 226 q 490 249 472 226 q 507 329 507 272 q 490 409 507 386 q 435 432 472 432 q 381 409 399 432 q 364 329 364 386 q 381 249 364 272 q 435 226 399 226 z "},"ộ":{"ha":871,"x_min":21,"x_max":850,"o":"m 338 1025 l 533 1025 l 776 725 l 543 725 l 436 874 l 335 725 l 94 725 l 338 1025 m 435 -14 q 21 329 21 -14 q 435 672 21 672 q 850 329 850 672 q 435 -14 850 -14 m 435 226 q 490 249 472 226 q 507 329 507 272 q 490 409 507 386 q 435 432 472 432 q 381 409 399 432 q 364 329 364 386 q 381 249 364 272 q 435 226 399 226 m 328 -100 l 544 -100 l 544 -296 l 328 -296 l 328 -100 z "},"ồ":{"ha":871,"x_min":-108,"x_max":850,"o":"m -108 1147 l 136 1147 l 240 908 l 7 908 l -108 1147 m 318 958 l 561 958 l 781 725 l 513 725 l 439 831 l 361 725 l 99 725 l 318 958 m 435 -14 q 21 329 21 -14 q 435 672 21 672 q 850 329 850 672 q 435 -14 850 -14 m 435 226 q 490 249 472 226 q 507 329 507 272 q 490 409 507 386 q 435 432 472 432 q 381 409 399 432 q 364 329 364 386 q 381 249 364 272 q 435 226 399 226 z "},"ổ":{"ha":871,"x_min":21,"x_max":964,"o":"m 649 988 q 718 997 699 989 q 738 1019 738 1006 q 726 1036 738 1032 q 690 1040 715 1040 q 624 1026 660 1040 l 624 1154 q 785 1171 688 1171 q 916 1135 868 1171 q 964 1043 964 1099 q 940 961 964 993 q 867 919 915 929 l 867 876 l 649 876 l 649 988 m 313 958 l 556 958 l 775 725 l 513 725 l 435 831 l 361 725 l 93 725 l 313 958 m 435 -14 q 21 329 21 -14 q 435 672 21 672 q 850 329 850 672 q 435 -14 850 -14 m 435 226 q 490 249 472 226 q 507 329 507 272 q 490 409 507 386 q 435 432 472 432 q 381 409 399 432 q 364 329 364 386 q 381 249 364 272 q 435 226 399 226 z "},"ỗ":{"ha":871,"x_min":21,"x_max":850,"o":"m 578 1021 q 512 1028 544 1021 q 435 1051 479 1036 q 364 1072 390 1065 q 311 1079 338 1079 q 172 1025 226 1079 l 172 1199 q 231 1231 193 1218 q 307 1244 268 1244 q 371 1237 340 1244 q 446 1214 401 1229 q 516 1193 488 1200 q 574 1186 544 1186 q 653 1201 618 1186 q 704 1240 688 1217 l 704 1067 q 655 1035 692 1049 q 578 1021 618 1021 m 436 725 q 233 790 306 725 q 160 986 160 856 l 346 986 q 368 915 346 942 q 436 888 390 888 q 503 915 482 888 q 525 986 525 942 l 711 986 q 638 790 711 856 q 436 725 565 725 m 435 -14 q 21 329 21 -14 q 435 672 21 672 q 850 329 850 672 q 435 -14 850 -14 m 435 226 q 490 249 472 226 q 507 329 507 272 q 490 409 507 386 q 435 432 472 432 q 381 409 399 432 q 364 329 364 386 q 381 249 364 272 q 435 226 399 226 z "},"ö":{"ha":871,"x_min":21,"x_max":850,"o":"m 164 963 l 381 963 l 381 767 l 164 767 l 164 963 m 490 963 l 707 963 l 707 767 l 490 767 l 490 963 m 435 -14 q 21 329 21 -14 q 435 672 21 672 q 850 329 850 672 q 435 -14 850 -14 m 435 226 q 490 249 472 226 q 507 329 507 272 q 490 409 507 386 q 435 432 472 432 q 381 409 399 432 q 364 329 364 386 q 381 249 364 272 q 435 226 399 226 z "},"ọ":{"ha":871,"x_min":21,"x_max":850,"o":"m 435 -14 q 21 329 21 -14 q 435 672 21 672 q 850 329 850 672 q 435 -14 850 -14 m 435 226 q 490 249 472 226 q 507 329 507 272 q 490 409 507 386 q 435 432 472 432 q 381 409 399 432 q 364 329 364 386 q 381 249 364 272 q 435 226 399 226 m 326 -100 l 543 -100 l 543 -296 l 326 -296 l 326 -100 z "},"ò":{"ha":871,"x_min":21,"x_max":850,"o":"m 161 1039 l 419 1039 l 553 725 l 307 725 l 161 1039 m 435 -14 q 21 329 21 -14 q 435 672 21 672 q 850 329 850 672 q 435 -14 850 -14 m 435 226 q 490 249 472 226 q 507 329 507 272 q 490 409 507 386 q 435 432 472 432 q 381 409 399 432 q 364 329 364 386 q 381 249 364 272 q 435 226 399 226 z "},"ỏ":{"ha":871,"x_min":21,"x_max":850,"o":"m 315 838 q 433 892 433 844 q 417 922 433 913 q 364 931 400 931 q 286 917 321 931 l 286 1047 q 467 1068 360 1068 q 621 1026 565 1068 q 676 919 676 985 q 650 826 676 858 q 563 775 624 794 l 563 725 l 315 725 l 315 838 m 435 -14 q 21 329 21 -14 q 435 672 21 672 q 850 329 850 672 q 435 -14 850 -14 m 435 226 q 490 249 472 226 q 507 329 507 272 q 490 409 507 386 q 435 432 472 432 q 381 409 399 432 q 364 329 364 386 q 381 249 364 272 q 435 226 399 226 z "},"ơ":{"ha":1065,"x_min":21,"x_max":1072,"o":"m 435 -14 q 21 329 21 -14 q 435 672 21 672 q 714 610 613 672 q 813 640 788 610 q 838 744 838 671 l 1072 744 q 1019 509 1072 589 q 844 406 967 429 q 850 329 850 374 q 435 -14 850 -14 m 435 226 q 490 249 472 226 q 507 329 507 272 q 490 409 507 386 q 435 432 472 432 q 381 409 399 432 q 364 329 364 386 q 381 249 364 272 q 435 226 399 226 z "},"ớ":{"ha":1065,"x_min":21,"x_max":1072,"o":"m 443 1039 l 701 1039 l 556 725 l 310 725 l 443 1039 m 435 -14 q 21 329 21 -14 q 435 672 21 672 q 714 610 613 672 q 813 640 788 610 q 838 744 838 671 l 1072 744 q 1019 509 1072 589 q 844 406 967 429 q 850 329 850 374 q 435 -14 850 -14 m 435 226 q 490 249 472 226 q 507 329 507 272 q 490 409 507 386 q 435 432 472 432 q 381 409 399 432 q 364 329 364 386 q 381 249 364 272 q 435 226 399 226 z "},"ợ":{"ha":1065,"x_min":21,"x_max":1072,"o":"m 435 -14 q 21 329 21 -14 q 435 672 21 672 q 714 610 613 672 q 813 640 788 610 q 838 744 838 671 l 1072 744 q 1019 509 1072 589 q 844 406 967 429 q 850 329 850 374 q 435 -14 850 -14 m 435 226 q 490 249 472 226 q 507 329 507 272 q 490 409 507 386 q 435 432 472 432 q 381 409 399 432 q 364 329 364 386 q 381 249 364 272 q 435 226 399 226 m 325 -100 l 542 -100 l 542 -296 l 325 -296 l 325 -100 z "},"ờ":{"ha":1065,"x_min":21,"x_max":1072,"o":"m 178 1039 l 436 1039 l 569 725 l 324 725 l 178 1039 m 435 -14 q 21 329 21 -14 q 435 672 21 672 q 714 610 613 672 q 813 640 788 610 q 838 744 838 671 l 1072 744 q 1019 509 1072 589 q 844 406 967 429 q 850 329 850 374 q 435 -14 850 -14 m 435 226 q 490 249 472 226 q 507 329 507 272 q 490 409 507 386 q 435 432 472 432 q 381 409 399 432 q 364 329 364 386 q 381 249 364 272 q 435 226 399 226 z "},"ở":{"ha":1065,"x_min":21,"x_max":1072,"o":"m 307 838 q 425 892 425 844 q 408 922 425 913 q 356 931 392 931 q 278 917 313 931 l 278 1047 q 458 1068 351 1068 q 613 1026 557 1068 q 668 919 668 985 q 642 826 668 858 q 554 775 615 794 l 554 725 l 307 725 l 307 838 m 435 -14 q 21 329 21 -14 q 435 672 21 672 q 714 610 613 672 q 813 640 788 610 q 838 744 838 671 l 1072 744 q 1019 509 1072 589 q 844 406 967 429 q 850 329 850 374 q 435 -14 850 -14 m 435 226 q 490 249 472 226 q 507 329 507 272 q 490 409 507 386 q 435 432 472 432 q 381 409 399 432 q 364 329 364 386 q 381 249 364 272 q 435 226 399 226 z "},"ỡ":{"ha":1065,"x_min":21,"x_max":1072,"o":"m 592 725 q 525 733 558 725 q 440 757 492 740 q 369 778 399 771 q 313 786 340 786 q 167 729 224 786 l 167 925 q 228 959 189 944 q 308 974 267 974 q 374 966 343 974 q 451 943 406 958 q 526 920 496 928 q 588 913 556 913 q 669 928 633 913 q 724 969 706 944 l 724 774 q 672 740 710 754 q 592 725 633 725 m 435 -14 q 21 329 21 -14 q 435 672 21 672 q 714 610 613 672 q 813 640 788 610 q 838 744 838 671 l 1072 744 q 1019 509 1072 589 q 844 406 967 429 q 850 329 850 374 q 435 -14 850 -14 m 435 226 q 490 249 472 226 q 507 329 507 272 q 490 409 507 386 q 435 432 472 432 q 381 409 399 432 q 364 329 364 386 q 381 249 364 272 q 435 226 399 226 z "},"ő":{"ha":871,"x_min":21,"x_max":871,"o":"m 210 1007 l 496 1007 l 338 725 l 78 725 l 210 1007 m 585 1007 l 871 1007 l 713 725 l 453 725 l 585 1007 m 435 -14 q 21 329 21 -14 q 435 672 21 672 q 850 329 850 672 q 435 -14 850 -14 m 435 226 q 490 249 472 226 q 507 329 507 272 q 490 409 507 386 q 435 432 472 432 q 381 409 399 432 q 364 329 364 386 q 381 249 364 272 q 435 226 399 226 z "},"ō":{"ha":871,"x_min":21,"x_max":850,"o":"m 179 975 l 664 975 l 664 781 l 179 781 l 179 975 m 435 -14 q 21 329 21 -14 q 435 672 21 672 q 850 329 850 672 q 435 -14 850 -14 m 435 226 q 490 249 472 226 q 507 329 507 272 q 490 409 507 386 q 435 432 472 432 q 381 409 399 432 q 364 329 364 386 q 381 249 364 272 q 435 226 399 226 z "},"ø":{"ha":871,"x_min":21,"x_max":850,"o":"m 250 8 q 21 329 21 72 q 435 672 21 672 q 519 668 479 672 l 546 733 l 653 733 l 618 650 q 850 329 850 586 q 435 -14 850 -14 q 350 -10 390 -14 l 324 -75 l 217 -75 l 250 8 m 435 460 q 360 430 386 460 q 335 329 335 400 q 349 249 335 276 l 435 460 m 435 199 q 510 228 483 199 q 536 329 536 258 q 521 411 536 378 l 435 199 z "},"ǿ":{"ha":871,"x_min":21,"x_max":850,"o":"m 319 1039 l 578 1039 l 432 725 l 186 725 l 319 1039 m 250 8 q 21 329 21 72 q 435 672 21 672 q 519 668 479 672 l 546 733 l 653 733 l 618 650 q 850 329 850 586 q 435 -14 850 -14 q 350 -10 390 -14 l 324 -75 l 217 -75 l 250 8 m 435 460 q 360 430 386 460 q 335 329 335 400 q 349 249 335 276 l 435 460 m 435 199 q 510 228 483 199 q 536 329 536 258 q 521 411 536 378 l 435 199 z "},"õ":{"ha":871,"x_min":21,"x_max":850,"o":"m 582 760 q 515 767 549 760 q 431 792 482 775 q 360 813 389 806 q 303 821 331 821 q 157 764 214 821 l 157 960 q 218 994 179 979 q 299 1008 257 1008 q 365 1001 333 1008 q 442 978 396 993 q 516 955 486 963 q 578 947 546 947 q 660 963 624 947 q 714 1004 696 979 l 714 808 q 662 774 700 789 q 582 760 624 760 m 435 -14 q 21 329 21 -14 q 435 672 21 672 q 850 329 850 672 q 435 -14 850 -14 m 435 226 q 490 249 472 226 q 507 329 507 272 q 490 409 507 386 q 435 432 472 432 q 381 409 399 432 q 364 329 364 386 q 381 249 364 272 q 435 226 399 226 z "},"œ":{"ha":1325,"x_min":21,"x_max":1304,"o":"m 1304 239 l 865 239 q 1058 183 910 183 q 1176 193 1117 183 q 1271 217 1235 203 l 1271 36 q 968 -14 1167 -14 q 713 47 818 -14 q 435 -14 611 -14 q 21 329 21 -14 q 435 672 21 672 q 703 617 604 672 q 932 672 793 672 q 1203 588 1103 672 q 1304 351 1304 504 l 1304 239 m 1017 419 q 999 458 1017 443 q 943 474 982 474 q 884 456 903 474 q 865 407 865 438 l 1017 407 l 1017 419 m 435 226 q 490 249 472 226 q 507 329 507 272 q 490 409 507 386 q 435 432 472 432 q 381 409 399 432 q 364 329 364 386 q 381 249 364 272 q 435 226 399 226 z "},"p":{"ha":872,"x_min":49,"x_max":851,"o":"m 49 658 l 340 658 l 356 615 q 439 658 394 643 q 540 672 483 672 q 772 591 693 672 q 851 338 851 510 q 767 75 851 164 q 528 -14 682 -14 q 451 -7 492 -14 q 385 11 411 0 l 385 -278 l 49 -278 l 49 658 m 443 226 q 492 251 475 226 q 508 333 508 276 q 492 410 508 389 q 443 432 476 432 q 412 427 425 432 q 385 411 399 422 l 385 247 q 412 231 399 236 q 443 226 425 226 z "},"þ":{"ha":872,"x_min":49,"x_max":851,"o":"m 49 972 l 385 972 l 385 647 q 456 665 410 657 q 540 672 503 672 q 772 587 692 672 q 851 328 851 501 q 767 71 851 156 q 528 -14 683 -14 q 451 -7 492 -14 q 385 11 411 0 l 385 -300 l 49 -300 l 49 972 m 443 226 q 492 251 475 226 q 508 333 508 276 q 492 410 508 389 q 443 432 476 432 q 412 427 425 432 q 385 411 399 422 l 385 247 q 412 231 399 236 q 443 226 425 226 z "},"q":{"ha":983,"x_min":21,"x_max":935,"o":"m 744 -336 q 549 -278 610 -336 q 488 -97 488 -221 l 488 11 q 421 -7 461 0 q 344 -14 381 -14 q 21 317 21 -14 q 105 581 21 489 q 336 672 189 672 q 435 658 393 672 q 517 615 476 643 l 532 658 l 824 658 l 824 -53 q 833 -92 824 -79 q 865 -104 842 -104 q 935 -92 903 -104 l 935 -300 q 849 -328 888 -319 q 744 -336 810 -336 m 429 226 q 460 231 447 226 q 488 247 474 236 l 488 411 q 462 427 472 422 q 433 432 451 432 q 383 406 401 432 q 364 322 364 379 q 380 247 364 267 q 429 226 396 226 z "},"r":{"ha":596,"x_min":49,"x_max":603,"o":"m 49 658 l 378 658 l 385 621 q 483 657 424 642 q 603 672 542 672 l 603 425 q 484 417 547 425 q 385 397 421 410 l 385 0 l 49 0 l 49 658 z "},"ŕ":{"ha":596,"x_min":49,"x_max":603,"o":"m 217 1039 l 475 1039 l 329 725 l 83 725 l 217 1039 m 49 658 l 378 658 l 385 621 q 483 657 424 642 q 603 672 542 672 l 603 425 q 484 417 547 425 q 385 397 421 410 l 385 0 l 49 0 l 49 658 z "},"ř":{"ha":596,"x_min":-104,"x_max":603,"o":"m -104 1025 l 136 1025 l 238 876 l 344 1025 l 578 1025 l 335 725 l 139 725 l -104 1025 m 49 658 l 378 658 l 385 621 q 483 657 424 642 q 603 672 542 672 l 603 425 q 484 417 547 425 q 385 397 421 410 l 385 0 l 49 0 l 49 658 z "},"ŗ":{"ha":596,"x_min":35,"x_max":603,"o":"m 49 658 l 378 658 l 385 621 q 483 657 424 642 q 603 672 542 672 l 603 425 q 484 417 547 425 q 385 397 421 410 l 385 0 l 49 0 l 49 658 m 86 -51 l 335 -51 l 244 -397 l 35 -397 l 86 -51 z "},"ṛ":{"ha":596,"x_min":49,"x_max":603,"o":"m 49 658 l 378 658 l 385 621 q 483 657 424 642 q 603 672 542 672 l 603 425 q 484 417 547 425 q 385 397 421 410 l 385 0 l 49 0 l 49 658 m 107 -100 l 324 -100 l 324 -296 l 107 -296 l 107 -100 z "},"ṝ":{"ha":596,"x_min":49,"x_max":603,"o":"m 49 961 l 533 961 l 533 767 l 49 767 l 49 961 m 49 658 l 378 658 l 385 621 q 483 657 424 642 q 603 672 542 672 l 603 425 q 484 417 547 425 q 385 397 421 410 l 385 0 l 49 0 l 49 658 m 107 -100 l 324 -100 l 324 -296 l 107 -296 l 107 -100 z "},"ṟ":{"ha":596,"x_min":-25,"x_max":603,"o":"m 49 658 l 378 658 l 385 621 q 483 657 424 642 q 603 672 542 672 l 603 425 q 484 417 547 425 q 385 397 421 410 l 385 0 l 49 0 l 49 658 m -25 -94 l 460 -94 l 460 -289 l -25 -289 l -25 -94 z "},"s":{"ha":704,"x_min":21,"x_max":683,"o":"m 332 -14 q 155 -1 239 -14 q 26 33 71 13 l 26 246 q 144 206 72 221 q 265 190 217 190 q 324 192 307 190 q 340 206 340 194 q 323 221 340 214 q 271 236 306 228 q 192 260 197 258 q 60 337 99 294 q 21 457 21 379 q 376 672 21 672 q 524 663 443 672 q 647 639 606 653 l 647 428 q 551 457 603 446 q 461 468 500 468 q 389 465 414 468 q 364 450 364 463 q 379 438 364 443 q 432 422 394 432 q 500 406 468 415 q 612 359 572 385 q 667 297 651 333 q 683 206 683 261 q 593 44 683 103 q 332 -14 503 -14 z "},"ś":{"ha":704,"x_min":21,"x_max":683,"o":"m 329 1039 l 588 1039 l 442 725 l 196 725 l 329 1039 m 332 -14 q 155 -1 239 -14 q 26 33 71 13 l 26 246 q 144 206 72 221 q 265 190 217 190 q 324 192 307 190 q 340 206 340 194 q 323 221 340 214 q 271 236 306 228 q 192 260 197 258 q 60 337 99 294 q 21 457 21 379 q 376 672 21 672 q 524 663 443 672 q 647 639 606 653 l 647 428 q 551 457 603 446 q 461 468 500 468 q 389 465 414 468 q 364 450 364 463 q 379 438 364 443 q 432 422 394 432 q 500 406 468 415 q 612 359 572 385 q 667 297 651 333 q 683 206 683 261 q 593 44 683 103 q 332 -14 503 -14 z "},"š":{"ha":704,"x_min":10,"x_max":692,"o":"m 10 1025 l 250 1025 l 351 876 l 458 1025 l 692 1025 l 449 725 l 253 725 l 10 1025 m 332 -14 q 155 -1 239 -14 q 26 33 71 13 l 26 246 q 144 206 72 221 q 265 190 217 190 q 324 192 307 190 q 340 206 340 194 q 323 221 340 214 q 271 236 306 228 q 192 260 197 258 q 60 337 99 294 q 21 457 21 379 q 376 672 21 672 q 524 663 443 672 q 647 639 606 653 l 647 428 q 551 457 603 446 q 461 468 500 468 q 389 465 414 468 q 364 450 364 463 q 379 438 364 443 q 432 422 394 432 q 500 406 468 415 q 612 359 572 385 q 667 297 651 333 q 683 206 683 261 q 593 44 683 103 q 332 -14 503 -14 z "},"ş":{"ha":704,"x_min":21,"x_max":683,"o":"m 683 206 q 613 58 683 115 q 406 -11 542 1 l 392 -51 q 501 -89 460 -51 q 542 -185 542 -126 q 481 -294 542 -254 q 306 -333 421 -333 q 239 -330 279 -333 q 183 -322 199 -326 l 183 -215 q 264 -226 224 -226 q 333 -214 310 -226 q 357 -178 357 -201 q 306 -139 357 -139 l 203 -139 l 239 -10 q 116 7 172 -4 q 26 33 60 18 l 26 246 q 144 206 72 221 q 265 190 217 190 q 324 192 307 190 q 340 206 340 194 q 323 221 340 214 q 271 236 306 228 q 192 260 197 258 q 60 337 99 294 q 21 457 21 379 q 376 672 21 672 q 524 663 443 672 q 647 639 606 653 l 647 428 q 551 457 603 446 q 461 468 500 468 q 389 465 414 468 q 364 450 364 463 q 379 438 364 443 q 432 422 394 432 q 500 406 468 415 q 612 359 572 385 q 667 297 651 333 q 683 206 683 261 z "},"ŝ":{"ha":704,"x_min":6,"x_max":688,"o":"m 249 1025 l 444 1025 l 688 725 l 454 725 l 347 874 l 246 725 l 6 725 l 249 1025 m 332 -14 q 155 -1 239 -14 q 26 33 71 13 l 26 246 q 144 206 72 221 q 265 190 217 190 q 324 192 307 190 q 340 206 340 194 q 323 221 340 214 q 271 236 306 228 q 192 260 197 258 q 60 337 99 294 q 21 457 21 379 q 376 672 21 672 q 524 663 443 672 q 647 639 606 653 l 647 428 q 551 457 603 446 q 461 468 500 468 q 389 465 414 468 q 364 450 364 463 q 379 438 364 443 q 432 422 394 432 q 500 406 468 415 q 612 359 572 385 q 667 297 651 333 q 683 206 683 261 q 593 44 683 103 q 332 -14 503 -14 z "},"ș":{"ha":704,"x_min":21,"x_max":683,"o":"m 332 -14 q 155 -1 239 -14 q 26 33 71 13 l 26 246 q 144 206 72 221 q 265 190 217 190 q 324 192 307 190 q 340 206 340 194 q 323 221 340 214 q 271 236 306 228 q 192 260 197 258 q 60 337 99 294 q 21 457 21 379 q 376 672 21 672 q 524 663 443 672 q 647 639 606 653 l 647 428 q 551 457 603 446 q 461 468 500 468 q 389 465 414 468 q 364 450 364 463 q 379 438 364 443 q 432 422 394 432 q 500 406 468 415 q 612 359 572 385 q 667 297 651 333 q 683 206 683 261 q 593 44 683 103 q 332 -14 503 -14 m 219 -51 l 499 -51 l 428 -335 l 172 -335 l 219 -51 z "},"ṡ":{"ha":704,"x_min":21,"x_max":683,"o":"m 217 963 l 433 963 l 433 767 l 217 767 l 217 963 m 332 -14 q 155 -1 239 -14 q 26 33 71 13 l 26 246 q 144 206 72 221 q 265 190 217 190 q 324 192 307 190 q 340 206 340 194 q 323 221 340 214 q 271 236 306 228 q 192 260 197 258 q 60 337 99 294 q 21 457 21 379 q 376 672 21 672 q 524 663 443 672 q 647 639 606 653 l 647 428 q 551 457 603 446 q 461 468 500 468 q 389 465 414 468 q 364 450 364 463 q 379 438 364 443 q 432 422 394 432 q 500 406 468 415 q 612 359 572 385 q 667 297 651 333 q 683 206 683 261 q 593 44 683 103 q 332 -14 503 -14 z "},"ṣ":{"ha":704,"x_min":21,"x_max":683,"o":"m 332 -14 q 155 -1 239 -14 q 26 33 71 13 l 26 246 q 144 206 72 221 q 265 190 217 190 q 324 192 307 190 q 340 206 340 194 q 323 221 340 214 q 271 236 306 228 q 192 260 197 258 q 60 337 99 294 q 21 457 21 379 q 376 672 21 672 q 524 663 443 672 q 647 639 606 653 l 647 428 q 551 457 603 446 q 461 468 500 468 q 389 465 414 468 q 364 450 364 463 q 379 438 364 443 q 432 422 394 432 q 500 406 468 415 q 612 359 572 385 q 667 297 651 333 q 683 206 683 261 q 593 44 683 103 q 332 -14 503 -14 m 250 -100 l 467 -100 l 467 -296 l 250 -296 l 250 -100 z "},"ß":{"ha":913,"x_min":42,"x_max":892,"o":"m 578 -14 q 476 -6 525 -14 q 399 17 426 3 l 399 231 q 438 222 413 225 q 483 218 464 218 q 549 288 549 218 q 475 343 549 343 l 400 343 l 400 551 l 458 551 q 549 624 549 551 q 525 672 549 654 q 454 689 501 689 q 380 663 403 689 q 357 597 357 638 l 357 0 l 42 0 l 42 622 q 88 807 42 728 q 224 929 135 886 q 438 972 314 972 q 669 925 574 972 q 813 802 765 878 q 861 642 861 726 q 839 530 861 578 q 778 453 817 482 q 863 385 835 425 q 892 271 892 344 q 854 122 892 186 q 746 22 817 58 q 578 -14 675 -14 z "},"ə":{"ha":788,"x_min":21,"x_max":767,"o":"m 382 -14 q 115 67 210 -14 q 21 307 21 149 l 21 419 l 460 419 q 401 462 440 449 q 274 475 361 475 q 152 465 214 475 q 54 442 90 456 l 54 622 q 192 659 107 646 q 371 672 278 672 q 661 589 556 672 q 767 332 767 506 q 722 152 767 231 q 590 30 676 74 q 382 -14 504 -14 m 382 185 q 441 203 422 185 q 460 251 460 221 l 308 251 l 308 239 q 326 200 308 215 q 382 185 343 185 z "},"t":{"ha":550,"x_min":-7,"x_max":557,"o":"m 353 -14 q 72 258 72 -14 l 72 417 l -7 417 l -7 658 l 72 658 l 72 788 l 408 856 l 408 658 l 543 658 l 536 417 l 408 417 l 408 276 q 474 218 408 218 q 557 232 517 218 l 557 24 q 353 -14 469 -14 z "},"ŧ":{"ha":550,"x_min":-7,"x_max":557,"o":"m 353 -14 q 72 251 75 -14 l -7 251 l -7 421 l 72 421 l 72 450 l -7 450 l -7 658 l 72 658 l 72 788 l 408 856 l 408 658 l 543 658 l 536 450 l 408 450 l 408 421 l 542 421 l 542 251 l 413 251 q 474 218 424 218 q 557 232 517 218 l 557 24 q 353 -14 469 -14 z "},"ť":{"ha":778,"x_min":-7,"x_max":801,"o":"m 553 1121 l 801 1121 l 711 775 l 501 775 l 553 1121 m 353 -14 q 72 258 72 -14 l 72 417 l -7 417 l -7 658 l 72 658 l 72 788 l 408 856 l 408 658 l 543 658 l 536 417 l 408 417 l 408 276 q 474 218 408 218 q 557 232 517 218 l 557 24 q 353 -14 469 -14 z "},"ţ":{"ha":550,"x_min":-7,"x_max":571,"o":"m 421 -51 q 530 -89 489 -51 q 571 -185 571 -126 q 510 -294 571 -254 q 335 -333 450 -333 q 268 -330 308 -333 q 213 -322 228 -326 l 213 -215 q 293 -226 253 -226 q 363 -214 339 -226 q 386 -178 386 -201 q 335 -139 386 -139 l 232 -139 l 269 -7 q 72 258 72 31 l 72 417 l -7 417 l -7 658 l 72 658 l 72 788 l 408 856 l 408 658 l 543 658 l 536 417 l 408 417 l 408 276 q 474 218 408 218 q 557 232 517 218 l 557 24 q 436 -10 507 1 l 421 -51 z "},"ț":{"ha":550,"x_min":-7,"x_max":557,"o":"m 353 -14 q 72 258 72 -14 l 72 417 l -7 417 l -7 658 l 72 658 l 72 788 l 408 856 l 408 658 l 543 658 l 536 417 l 408 417 l 408 276 q 474 218 408 218 q 557 232 517 218 l 557 24 q 353 -14 469 -14 m 225 -51 l 474 -51 l 383 -397 l 174 -397 l 225 -51 z "},"ẗ":{"ha":561,"x_min":-7,"x_max":568,"o":"m -7 1093 l 210 1093 l 210 897 l -7 897 l -7 1093 m 319 1093 l 536 1093 l 536 897 l 319 897 l 319 1093 m 364 -14 q 83 258 83 -14 l 83 417 l 4 417 l 4 658 l 83 658 l 83 788 l 419 856 l 419 658 l 554 658 l 547 417 l 419 417 l 419 276 q 485 218 419 218 q 568 232 528 218 l 568 24 q 364 -14 481 -14 z "},"ṭ":{"ha":550,"x_min":-7,"x_max":557,"o":"m 353 -14 q 72 258 72 -14 l 72 417 l -7 417 l -7 658 l 72 658 l 72 788 l 408 856 l 408 658 l 543 658 l 536 417 l 408 417 l 408 276 q 474 218 408 218 q 557 232 517 218 l 557 24 q 353 -14 469 -14 m 199 -72 l 415 -72 l 415 -268 l 199 -268 l 199 -72 z "},"ṯ":{"ha":550,"x_min":-7,"x_max":557,"o":"m 353 -14 q 72 258 72 -14 l 72 417 l -7 417 l -7 658 l 72 658 l 72 788 l 408 856 l 408 658 l 543 658 l 536 417 l 408 417 l 408 276 q 474 218 408 218 q 557 232 517 218 l 557 24 q 353 -14 469 -14 m 36 -67 l 521 -67 l 521 -261 l 36 -261 l 36 -67 z "},"u":{"ha":869,"x_min":42,"x_max":821,"o":"m 283 -14 q 106 52 171 -14 q 42 242 42 118 l 42 658 l 378 658 l 378 278 q 424 233 378 233 q 457 242 439 233 q 485 261 475 250 l 485 658 l 821 658 l 821 0 l 506 0 l 499 38 q 403 0 460 14 q 283 -14 347 -14 z "},"ú":{"ha":869,"x_min":42,"x_max":821,"o":"m 410 1039 l 668 1039 l 522 725 l 276 725 l 410 1039 m 283 -14 q 106 52 171 -14 q 42 242 42 118 l 42 658 l 378 658 l 378 278 q 424 233 378 233 q 457 242 439 233 q 485 261 475 250 l 485 658 l 821 658 l 821 0 l 506 0 l 499 38 q 403 0 460 14 q 283 -14 347 -14 z "},"ŭ":{"ha":869,"x_min":42,"x_max":821,"o":"m 439 725 q 215 805 297 725 q 133 1031 133 885 l 349 1031 q 369 943 349 978 q 439 908 390 908 q 509 943 488 908 q 531 1031 531 978 l 746 1031 q 663 804 746 883 q 439 725 581 725 m 283 -14 q 106 52 171 -14 q 42 242 42 118 l 42 658 l 378 658 l 378 278 q 424 233 378 233 q 457 242 439 233 q 485 261 475 250 l 485 658 l 821 658 l 821 0 l 506 0 l 499 38 q 403 0 460 14 q 283 -14 347 -14 z "},"ǔ":{"ha":869,"x_min":42,"x_max":821,"o":"m 88 1025 l 328 1025 l 429 876 l 536 1025 l 769 1025 l 526 725 l 331 725 l 88 1025 m 283 -14 q 106 52 171 -14 q 42 242 42 118 l 42 658 l 378 658 l 378 278 q 424 233 378 233 q 457 242 439 233 q 485 261 475 250 l 485 658 l 821 658 l 821 0 l 506 0 l 499 38 q 403 0 460 14 q 283 -14 347 -14 z "},"û":{"ha":869,"x_min":42,"x_max":821,"o":"m 332 1025 l 528 1025 l 771 725 l 538 725 l 431 874 l 329 725 l 89 725 l 332 1025 m 283 -14 q 106 52 171 -14 q 42 242 42 118 l 42 658 l 378 658 l 378 278 q 424 233 378 233 q 457 242 439 233 q 485 261 475 250 l 485 658 l 821 658 l 821 0 l 506 0 l 499 38 q 403 0 460 14 q 283 -14 347 -14 z "},"ü":{"ha":869,"x_min":42,"x_max":821,"o":"m 163 963 l 379 963 l 379 767 l 163 767 l 163 963 m 489 963 l 706 963 l 706 767 l 489 767 l 489 963 m 283 -14 q 106 52 171 -14 q 42 242 42 118 l 42 658 l 378 658 l 378 278 q 424 233 378 233 q 457 242 439 233 q 485 261 475 250 l 485 658 l 821 658 l 821 0 l 506 0 l 499 38 q 403 0 460 14 q 283 -14 347 -14 z "},"ǘ":{"ha":869,"x_min":42,"x_max":821,"o":"m 389 1207 l 636 1207 l 533 1006 l 311 1006 l 389 1207 m 164 963 l 375 963 l 375 778 l 164 778 l 164 963 m 482 963 l 693 963 l 693 778 l 482 778 l 482 963 m 283 -14 q 106 52 171 -14 q 42 242 42 118 l 42 658 l 378 658 l 378 278 q 424 233 378 233 q 457 242 439 233 q 485 261 475 250 l 485 658 l 821 658 l 821 0 l 506 0 l 499 38 q 403 0 460 14 q 283 -14 347 -14 z "},"ǚ":{"ha":869,"x_min":42,"x_max":821,"o":"m 115 1168 l 360 1168 l 438 1067 l 518 1168 l 758 1168 l 551 967 l 322 967 l 115 1168 m 165 924 l 376 924 l 376 739 l 165 739 l 165 924 m 483 924 l 694 924 l 694 739 l 483 739 l 483 924 m 283 -14 q 106 52 171 -14 q 42 242 42 118 l 42 658 l 378 658 l 378 278 q 424 233 378 233 q 457 242 439 233 q 485 261 475 250 l 485 658 l 821 658 l 821 0 l 506 0 l 499 38 q 403 0 460 14 q 283 -14 347 -14 z "},"ǜ":{"ha":869,"x_min":42,"x_max":821,"o":"m 232 1207 l 479 1207 l 557 1006 l 335 1006 l 232 1207 m 175 963 l 386 963 l 386 778 l 175 778 l 175 963 m 493 963 l 704 963 l 704 778 l 493 778 l 493 963 m 283 -14 q 106 52 171 -14 q 42 242 42 118 l 42 658 l 378 658 l 378 278 q 424 233 378 233 q 457 242 439 233 q 485 261 475 250 l 485 658 l 821 658 l 821 0 l 506 0 l 499 38 q 403 0 460 14 q 283 -14 347 -14 z "},"ǖ":{"ha":869,"x_min":42,"x_max":821,"o":"m 193 1194 l 678 1194 l 678 1000 l 193 1000 l 193 1194 m 164 935 l 381 935 l 381 739 l 164 739 l 164 935 m 490 935 l 707 935 l 707 739 l 490 739 l 490 935 m 283 -14 q 106 52 171 -14 q 42 242 42 118 l 42 658 l 378 658 l 378 278 q 424 233 378 233 q 457 242 439 233 q 485 261 475 250 l 485 658 l 821 658 l 821 0 l 506 0 l 499 38 q 403 0 460 14 q 283 -14 347 -14 z "},"ụ":{"ha":869,"x_min":42,"x_max":821,"o":"m 283 -14 q 106 52 171 -14 q 42 242 42 118 l 42 658 l 378 658 l 378 278 q 424 233 378 233 q 457 242 439 233 q 485 261 475 250 l 485 658 l 821 658 l 821 0 l 506 0 l 499 38 q 403 0 460 14 q 283 -14 347 -14 m 321 -100 l 538 -100 l 538 -296 l 321 -296 l 321 -100 z "},"ù":{"ha":869,"x_min":42,"x_max":821,"o":"m 193 1039 l 451 1039 l 585 725 l 339 725 l 193 1039 m 283 -14 q 106 52 171 -14 q 42 242 42 118 l 42 658 l 378 658 l 378 278 q 424 233 378 233 q 457 242 439 233 q 485 261 475 250 l 485 658 l 821 658 l 821 0 l 506 0 l 499 38 q 403 0 460 14 q 283 -14 347 -14 z "},"ủ":{"ha":869,"x_min":42,"x_max":821,"o":"m 311 838 q 429 892 429 844 q 413 922 429 913 q 360 931 396 931 q 282 917 317 931 l 282 1047 q 463 1068 356 1068 q 617 1026 561 1068 q 672 919 672 985 q 646 826 672 858 q 558 775 619 794 l 558 725 l 311 725 l 311 838 m 283 -14 q 106 52 171 -14 q 42 242 42 118 l 42 658 l 378 658 l 378 278 q 424 233 378 233 q 457 242 439 233 q 485 261 475 250 l 485 658 l 821 658 l 821 0 l 506 0 l 499 38 q 403 0 460 14 q 283 -14 347 -14 z "},"ư":{"ha":1121,"x_min":42,"x_max":1142,"o":"m 283 -14 q 106 52 171 -14 q 42 242 42 118 l 42 658 l 378 658 l 378 278 q 424 233 378 233 q 457 242 439 233 q 485 261 475 250 l 485 658 l 821 658 l 821 613 q 877 628 858 614 q 901 668 896 642 q 907 744 907 694 l 1142 744 q 1110 551 1142 624 q 1010 442 1079 478 q 821 396 940 406 l 821 0 l 506 0 l 499 38 q 403 0 460 14 q 283 -14 347 -14 z "},"ứ":{"ha":1121,"x_min":42,"x_max":1142,"o":"m 435 1039 l 693 1039 l 547 725 l 301 725 l 435 1039 m 283 -14 q 106 52 171 -14 q 42 242 42 118 l 42 658 l 378 658 l 378 278 q 424 233 378 233 q 457 242 439 233 q 485 261 475 250 l 485 658 l 821 658 l 821 613 q 877 628 858 614 q 901 668 896 642 q 907 744 907 694 l 1142 744 q 1110 551 1142 624 q 1010 442 1079 478 q 821 396 940 406 l 821 0 l 506 0 l 499 38 q 403 0 460 14 q 283 -14 347 -14 z "},"ự":{"ha":1121,"x_min":42,"x_max":1142,"o":"m 283 -14 q 106 52 171 -14 q 42 242 42 118 l 42 658 l 378 658 l 378 278 q 424 233 378 233 q 457 242 439 233 q 485 261 475 250 l 485 658 l 821 658 l 821 613 q 877 628 858 614 q 901 668 896 642 q 907 744 907 694 l 1142 744 q 1110 551 1142 624 q 1010 442 1079 478 q 821 396 940 406 l 821 0 l 506 0 l 499 38 q 403 0 460 14 q 283 -14 347 -14 m 325 -100 l 542 -100 l 542 -296 l 325 -296 l 325 -100 z "},"ừ":{"ha":1121,"x_min":42,"x_max":1142,"o":"m 168 1039 l 426 1039 l 560 725 l 314 725 l 168 1039 m 283 -14 q 106 52 171 -14 q 42 242 42 118 l 42 658 l 378 658 l 378 278 q 424 233 378 233 q 457 242 439 233 q 485 261 475 250 l 485 658 l 821 658 l 821 613 q 877 628 858 614 q 901 668 896 642 q 907 744 907 694 l 1142 744 q 1110 551 1142 624 q 1010 442 1079 478 q 821 396 940 406 l 821 0 l 506 0 l 499 38 q 403 0 460 14 q 283 -14 347 -14 z "},"ử":{"ha":1121,"x_min":42,"x_max":1142,"o":"m 311 838 q 429 892 429 844 q 413 922 429 913 q 360 931 396 931 q 282 917 317 931 l 282 1047 q 463 1068 356 1068 q 617 1026 561 1068 q 672 919 672 985 q 646 826 672 858 q 558 775 619 794 l 558 725 l 311 725 l 311 838 m 283 -14 q 106 52 171 -14 q 42 242 42 118 l 42 658 l 378 658 l 378 278 q 424 233 378 233 q 457 242 439 233 q 485 261 475 250 l 485 658 l 821 658 l 821 613 q 877 628 858 614 q 901 668 896 642 q 907 744 907 694 l 1142 744 q 1110 551 1142 624 q 1010 442 1079 478 q 821 396 940 406 l 821 0 l 506 0 l 499 38 q 403 0 460 14 q 283 -14 347 -14 z "},"ữ":{"ha":1121,"x_min":42,"x_max":1142,"o":"m 579 725 q 513 733 546 725 q 428 757 479 740 q 357 778 386 771 q 300 786 328 786 q 154 729 211 786 l 154 925 q 215 959 176 944 q 296 974 254 974 q 362 966 331 974 q 439 943 393 958 q 513 920 483 928 q 575 913 543 913 q 657 928 621 913 q 711 969 693 944 l 711 774 q 659 740 697 754 q 579 725 621 725 m 283 -14 q 106 52 171 -14 q 42 242 42 118 l 42 658 l 378 658 l 378 278 q 424 233 378 233 q 457 242 439 233 q 485 261 475 250 l 485 658 l 821 658 l 821 613 q 877 628 858 614 q 901 668 896 642 q 907 744 907 694 l 1142 744 q 1110 551 1142 624 q 1010 442 1079 478 q 821 396 940 406 l 821 0 l 506 0 l 499 38 q 403 0 460 14 q 283 -14 347 -14 z "},"ű":{"ha":869,"x_min":42,"x_max":858,"o":"m 197 1007 l 483 1007 l 325 725 l 65 725 l 197 1007 m 572 1007 l 858 1007 l 700 725 l 440 725 l 572 1007 m 283 -14 q 106 52 171 -14 q 42 242 42 118 l 42 658 l 378 658 l 378 278 q 424 233 378 233 q 457 242 439 233 q 485 261 475 250 l 485 658 l 821 658 l 821 0 l 506 0 l 499 38 q 403 0 460 14 q 283 -14 347 -14 z "},"ū":{"ha":869,"x_min":42,"x_max":821,"o":"m 196 975 l 681 975 l 681 781 l 196 781 l 196 975 m 283 -14 q 106 52 171 -14 q 42 242 42 118 l 42 658 l 378 658 l 378 278 q 424 233 378 233 q 457 242 439 233 q 485 261 475 250 l 485 658 l 821 658 l 821 0 l 506 0 l 499 38 q 403 0 460 14 q 283 -14 347 -14 z "},"ų":{"ha":869,"x_min":42,"x_max":821,"o":"m 706 0 q 638 -106 638 -51 q 653 -140 638 -131 q 703 -149 669 -149 q 741 -144 721 -149 q 774 -133 761 -140 l 774 -281 q 700 -298 746 -290 q 607 -306 654 -306 q 456 -270 510 -306 q 401 -161 401 -235 q 431 -68 401 -110 q 506 0 460 -26 l 499 38 q 403 0 460 14 q 283 -14 347 -14 q 106 52 171 -14 q 42 242 42 118 l 42 658 l 378 658 l 378 278 q 424 233 378 233 q 457 242 439 233 q 485 261 475 250 l 485 658 l 821 658 l 821 0 l 706 0 z "},"ů":{"ha":869,"x_min":42,"x_max":821,"o":"m 432 725 q 276 781 332 725 q 219 924 219 838 q 275 1067 219 1011 q 432 1124 331 1124 q 590 1067 533 1124 q 646 924 646 1011 q 590 781 646 836 q 432 725 533 725 m 432 853 q 488 873 468 853 q 507 924 507 893 q 488 974 507 954 q 432 994 468 994 q 376 974 396 994 q 357 924 357 954 q 376 873 357 893 q 432 853 396 853 m 283 -14 q 106 52 171 -14 q 42 242 42 118 l 42 658 l 378 658 l 378 278 q 424 233 378 233 q 457 242 439 233 q 485 261 475 250 l 485 658 l 821 658 l 821 0 l 506 0 l 499 38 q 403 0 460 14 q 283 -14 347 -14 z "},"ũ":{"ha":869,"x_min":42,"x_max":821,"o":"m 574 732 q 507 740 540 732 q 422 764 474 747 q 351 785 381 778 q 294 793 322 793 q 149 736 206 793 l 149 932 q 210 966 171 951 q 290 981 249 981 q 356 973 325 981 q 433 950 388 965 q 508 927 478 935 q 569 919 538 919 q 651 935 615 919 q 706 976 688 951 l 706 781 q 653 747 692 761 q 574 732 615 732 m 283 -14 q 106 52 171 -14 q 42 242 42 118 l 42 658 l 378 658 l 378 278 q 424 233 378 233 q 457 242 439 233 q 485 261 475 250 l 485 658 l 821 658 l 821 0 l 506 0 l 499 38 q 403 0 460 14 q 283 -14 347 -14 z "},"v":{"ha":913,"x_min":21,"x_max":892,"o":"m 21 658 l 371 658 l 456 356 l 542 658 l 892 658 l 631 0 l 282 0 l 21 658 z "},"w":{"ha":1131,"x_min":21,"x_max":1110,"o":"m 21 658 l 340 658 l 396 433 l 438 556 l 438 658 l 679 658 l 738 433 l 790 658 l 1110 658 l 935 0 l 639 0 l 567 213 l 494 0 l 196 0 l 21 658 z "},"ẃ":{"ha":1131,"x_min":21,"x_max":1110,"o":"m 568 1039 l 826 1039 l 681 725 l 435 725 l 568 1039 m 21 658 l 340 658 l 396 433 l 438 556 l 438 658 l 679 658 l 738 433 l 790 658 l 1110 658 l 935 0 l 639 0 l 567 213 l 494 0 l 196 0 l 21 658 z "},"ŵ":{"ha":1131,"x_min":21,"x_max":1110,"o":"m 469 1025 l 665 1025 l 908 725 l 675 725 l 568 874 l 467 725 l 226 725 l 469 1025 m 21 658 l 340 658 l 396 433 l 438 556 l 438 658 l 679 658 l 738 433 l 790 658 l 1110 658 l 935 0 l 639 0 l 567 213 l 494 0 l 196 0 l 21 658 z "},"ẅ":{"ha":1131,"x_min":21,"x_max":1110,"o":"m 296 963 l 513 963 l 513 767 l 296 767 l 296 963 m 622 963 l 839 963 l 839 767 l 622 767 l 622 963 m 21 658 l 340 658 l 396 433 l 438 556 l 438 658 l 679 658 l 738 433 l 790 658 l 1110 658 l 935 0 l 639 0 l 567 213 l 494 0 l 196 0 l 21 658 z "},"ẁ":{"ha":1131,"x_min":21,"x_max":1110,"o":"m 290 1039 l 549 1039 l 682 725 l 436 725 l 290 1039 m 21 658 l 340 658 l 396 433 l 438 556 l 438 658 l 679 658 l 738 433 l 790 658 l 1110 658 l 935 0 l 639 0 l 567 213 l 494 0 l 196 0 l 21 658 z "},"x":{"ha":919,"x_min":21,"x_max":899,"o":"m 278 335 l 32 658 l 394 658 l 460 572 l 525 658 l 888 658 l 642 335 l 899 0 l 532 0 l 460 94 l 388 0 l 21 0 l 278 335 z "},"y":{"ha":940,"x_min":21,"x_max":947,"o":"m 318 -244 q 208 -237 251 -244 q 122 -212 165 -231 l 122 1 q 206 -12 163 -12 q 277 -6 250 -12 q 322 21 304 1 l 21 658 l 372 658 l 488 331 l 597 658 l 947 658 l 721 79 q 561 -162 658 -79 q 318 -244 464 -244 z "},"ý":{"ha":940,"x_min":21,"x_max":947,"o":"m 494 1039 l 753 1039 l 607 725 l 361 725 l 494 1039 m 318 -244 q 208 -237 251 -244 q 122 -212 165 -231 l 122 1 q 206 -12 163 -12 q 277 -6 250 -12 q 322 21 304 1 l 21 658 l 372 658 l 488 331 l 597 658 l 947 658 l 721 79 q 561 -162 658 -79 q 318 -244 464 -244 z "},"ŷ":{"ha":940,"x_min":21,"x_max":947,"o":"m 390 1025 l 586 1025 l 829 725 l 596 725 l 489 874 l 388 725 l 147 725 l 390 1025 m 318 -244 q 208 -237 251 -244 q 122 -212 165 -231 l 122 1 q 206 -12 163 -12 q 277 -6 250 -12 q 322 21 304 1 l 21 658 l 372 658 l 488 331 l 597 658 l 947 658 l 721 79 q 561 -162 658 -79 q 318 -244 464 -244 z "},"ÿ":{"ha":940,"x_min":21,"x_max":947,"o":"m 217 1001 l 433 1001 l 433 806 l 217 806 l 217 1001 m 543 1001 l 760 1001 l 760 806 l 543 806 l 543 1001 m 318 -244 q 208 -237 251 -244 q 122 -212 165 -231 l 122 1 q 206 -12 163 -12 q 277 -6 250 -12 q 322 21 304 1 l 21 658 l 372 658 l 488 331 l 597 658 l 947 658 l 721 79 q 561 -162 658 -79 q 318 -244 464 -244 z "},"ẏ":{"ha":940,"x_min":21,"x_max":947,"o":"m 379 963 l 596 963 l 596 767 l 379 767 l 379 963 m 318 -244 q 208 -237 251 -244 q 122 -212 165 -231 l 122 1 q 206 -12 163 -12 q 277 -6 250 -12 q 322 21 304 1 l 21 658 l 372 658 l 488 331 l 597 658 l 947 658 l 721 79 q 561 -162 658 -79 q 318 -244 464 -244 z "},"ỵ":{"ha":940,"x_min":21,"x_max":947,"o":"m 318 -244 q 208 -237 251 -244 q 122 -212 165 -231 l 122 1 q 206 -12 163 -12 q 277 -6 250 -12 q 322 21 304 1 l 21 658 l 372 658 l 488 331 l 597 658 l 947 658 l 721 79 q 561 -162 658 -79 q 318 -244 464 -244 m 679 -100 l 896 -100 l 896 -296 l 679 -296 l 679 -100 z "},"ỳ":{"ha":940,"x_min":21,"x_max":947,"o":"m 215 1039 l 474 1039 l 607 725 l 361 725 l 215 1039 m 318 -244 q 208 -237 251 -244 q 122 -212 165 -231 l 122 1 q 206 -12 163 -12 q 277 -6 250 -12 q 322 21 304 1 l 21 658 l 372 658 l 488 331 l 597 658 l 947 658 l 721 79 q 561 -162 658 -79 q 318 -244 464 -244 z "},"ỷ":{"ha":940,"x_min":21,"x_max":947,"o":"m 369 838 q 488 892 488 844 q 471 922 488 913 q 418 931 454 931 q 340 917 375 931 l 340 1047 q 521 1068 414 1068 q 675 1026 619 1068 q 731 919 731 985 q 704 826 731 858 q 617 775 678 794 l 617 725 l 369 725 l 369 838 m 318 -244 q 208 -237 251 -244 q 122 -212 165 -231 l 122 1 q 206 -12 163 -12 q 277 -6 250 -12 q 322 21 304 1 l 21 658 l 372 658 l 488 331 l 597 658 l 947 658 l 721 79 q 561 -162 658 -79 q 318 -244 464 -244 z "},"ỹ":{"ha":940,"x_min":21,"x_max":947,"o":"m 635 732 q 568 740 601 732 q 483 764 535 747 q 413 785 442 778 q 356 793 383 793 q 210 736 267 793 l 210 932 q 271 966 232 951 q 351 981 310 981 q 417 973 386 981 q 494 950 449 965 q 569 927 539 935 q 631 919 599 919 q 713 935 676 919 q 767 976 749 951 l 767 781 q 715 747 753 761 q 635 732 676 732 m 318 -244 q 208 -237 251 -244 q 122 -212 165 -231 l 122 1 q 206 -12 163 -12 q 277 -6 250 -12 q 322 21 304 1 l 21 658 l 372 658 l 488 331 l 597 658 l 947 658 l 721 79 q 561 -162 658 -79 q 318 -244 464 -244 z "},"z":{"ha":703,"x_min":21,"x_max":682,"o":"m 21 176 l 242 401 l 28 401 l 28 658 l 671 658 l 671 464 l 461 242 l 682 242 l 682 0 l 21 0 l 21 176 z "},"ź":{"ha":703,"x_min":21,"x_max":682,"o":"m 349 1039 l 607 1039 l 461 725 l 215 725 l 349 1039 m 21 176 l 242 401 l 28 401 l 28 658 l 671 658 l 671 464 l 461 242 l 682 242 l 682 0 l 21 0 l 21 176 z "},"ž":{"ha":703,"x_min":8,"x_max":690,"o":"m 8 1025 l 249 1025 l 350 876 l 457 1025 l 690 1025 l 447 725 l 251 725 l 8 1025 m 21 176 l 242 401 l 28 401 l 28 658 l 671 658 l 671 464 l 461 242 l 682 242 l 682 0 l 21 0 l 21 176 z "},"ż":{"ha":703,"x_min":21,"x_max":682,"o":"m 236 963 l 453 963 l 453 767 l 236 767 l 236 963 m 21 176 l 242 401 l 28 401 l 28 658 l 671 658 l 671 464 l 461 242 l 682 242 l 682 0 l 21 0 l 21 176 z "},"ẓ":{"ha":703,"x_min":21,"x_max":682,"o":"m 21 176 l 242 401 l 28 401 l 28 658 l 671 658 l 671 464 l 461 242 l 682 242 l 682 0 l 21 0 l 21 176 m 222 -100 l 439 -100 l 439 -296 l 222 -296 l 222 -100 z "},"ﬁ":{"ha":861,"x_min":-7,"x_max":813,"o":"m 71 417 l -7 417 l -7 658 l 71 658 l 71 672 q 107 814 71 749 q 217 919 143 879 q 399 958 292 958 q 611 926 528 958 l 611 713 q 528 726 574 726 q 440 709 472 726 q 407 667 407 692 l 407 658 l 813 658 l 813 0 l 476 0 l 476 417 l 407 417 l 407 0 l 71 0 l 71 417 z "},"ﬂ":{"ha":861,"x_min":-7,"x_max":813,"o":"m 71 417 l -7 417 l -7 658 l 71 658 l 71 672 q 109 817 71 753 q 222 920 147 882 q 399 958 296 958 q 599 928 504 958 l 813 928 l 813 0 l 483 0 l 483 417 l 400 417 l 400 0 l 71 0 l 71 417 m 489 658 l 489 725 q 397 667 397 725 l 397 658 l 489 658 z "},"ª":{"ha":460,"x_min":21,"x_max":439,"o":"m 150 528 q 57 558 93 528 q 21 650 21 589 q 179 774 21 774 l 261 774 l 261 778 q 244 794 261 788 q 196 800 228 800 q 67 781 132 800 l 67 881 q 143 901 97 893 q 233 908 189 908 q 383 869 328 908 q 439 754 439 831 l 439 536 l 275 536 l 267 561 q 150 528 226 528 m 219 629 q 261 646 244 629 l 261 681 l 228 681 q 201 675 208 681 q 193 656 193 669 q 219 629 193 629 z "},"º":{"ha":501,"x_min":21,"x_max":481,"o":"m 250 528 q 21 718 21 528 q 250 908 21 908 q 481 718 481 908 q 250 528 481 528 m 250 661 q 281 674 271 661 q 290 718 290 688 q 281 762 290 749 q 250 775 271 775 q 220 763 229 775 q 211 718 211 750 q 220 674 211 686 q 250 661 229 661 z "},"ⁿ":{"ha":479,"x_min":28,"x_max":458,"o":"m 28 900 l 201 900 l 204 881 q 264 900 229 892 q 335 908 299 908 q 428 874 399 908 q 458 771 458 840 l 458 536 l 274 536 l 274 747 q 249 771 274 771 q 229 767 240 771 q 211 757 218 763 l 211 536 l 28 536 l 28 900 z "},"Δ":{"ha":878,"x_min":21,"x_max":857,"o":"m 21 174 l 306 894 l 569 894 l 857 172 l 857 0 l 21 0 l 21 174 m 538 254 l 438 503 l 338 254 l 538 254 z "},"Ω":{"ha":1033,"x_min":21,"x_max":1013,"o":"m 31 243 l 146 243 q 53 363 85 293 q 21 515 21 432 q 149 848 21 731 q 517 965 276 965 q 885 848 757 965 q 1013 515 1013 731 q 888 243 1013 332 l 1003 243 l 1003 0 l 543 0 l 543 254 q 640 356 611 297 q 669 494 669 414 q 517 681 669 681 q 364 494 364 681 q 393 356 364 414 q 490 254 422 297 l 490 0 l 31 0 l 31 243 z "},"μ":{"ha":876,"x_min":49,"x_max":828,"o":"m 49 658 l 385 658 l 385 278 q 431 233 385 233 q 464 242 446 233 q 492 261 482 250 l 492 658 l 828 658 l 828 0 l 513 0 l 506 38 q 453 1 488 15 q 385 -14 419 -14 l 385 -199 l 49 -199 l 49 658 z "},"π":{"ha":979,"x_min":7,"x_max":972,"o":"m 768 -14 q 488 258 488 -14 l 488 388 l 424 388 l 424 0 l 88 0 l 88 388 l 7 388 l 7 658 l 904 658 l 904 388 l 824 388 l 824 276 q 889 218 824 218 q 972 232 932 218 l 972 24 q 768 -14 885 -14 z "},"ก":{"ha":906,"x_min":21,"x_max":857,"o":"m 35 235 q 62 324 35 281 q 133 383 89 367 l 21 424 l 21 639 q 206 728 101 693 q 429 764 310 764 q 676 721 581 764 q 814 608 771 678 q 857 451 857 538 l 857 0 l 507 0 l 507 431 q 486 508 507 485 q 410 531 465 531 q 304 508 354 531 l 304 506 l 442 456 l 442 324 q 378 226 378 303 l 378 0 l 35 0 l 35 235 z "},"ถ":{"ha":906,"x_min":21,"x_max":857,"o":"m 183 0 q 74 40 114 0 q 35 144 35 79 l 35 235 q 62 324 35 281 q 133 383 89 367 l 21 424 l 21 639 q 206 728 101 693 q 429 764 310 764 q 676 721 581 764 q 814 608 771 678 q 857 451 857 538 l 857 0 l 507 0 l 507 431 q 486 508 507 485 q 410 531 465 531 q 304 508 354 531 l 304 506 l 442 456 l 442 324 q 378 242 378 303 l 378 229 q 413 194 378 194 l 444 194 l 444 0 l 183 0 z "},"ภ":{"ha":938,"x_min":21,"x_max":889,"o":"m 21 208 l 49 208 q 83 243 83 208 l 83 258 q 165 383 83 351 l 53 424 l 53 639 q 238 728 133 693 q 461 764 342 764 q 708 721 613 764 q 846 608 803 678 q 889 451 889 538 l 889 0 l 539 0 l 539 431 q 518 508 539 485 q 442 531 497 531 q 336 508 386 531 l 336 506 l 474 456 l 474 324 q 436 297 446 314 q 426 246 426 279 l 426 144 q 387 40 426 79 q 278 0 347 0 l 21 0 l 21 208 z "},"ฤ":{"ha":906,"x_min":21,"x_max":857,"o":"m 507 431 q 486 508 507 485 q 410 531 465 531 q 304 508 354 531 l 304 506 l 442 456 l 442 324 q 378 242 378 303 l 378 229 q 413 194 378 194 l 444 194 l 444 0 l 183 0 q 74 40 114 0 q 35 144 35 79 l 35 235 q 62 324 35 281 q 133 383 89 367 l 21 424 l 21 639 q 206 728 101 693 q 429 764 310 764 q 676 721 581 764 q 814 608 771 678 q 857 451 857 538 l 857 -222 l 507 -222 l 507 431 z "},"ฦ":{"ha":938,"x_min":21,"x_max":889,"o":"m 539 431 q 518 508 539 485 q 442 531 497 531 q 336 508 386 531 l 336 506 l 474 456 l 474 324 q 436 297 446 314 q 426 246 426 279 l 426 144 q 387 40 426 79 q 278 0 347 0 l 21 0 l 21 208 l 49 208 q 83 243 83 208 l 83 258 q 102 336 83 306 q 165 383 121 367 l 53 424 l 53 639 q 238 728 133 693 q 461 764 342 764 q 708 721 613 764 q 846 608 803 678 q 889 451 889 538 l 889 -222 l 539 -222 l 539 431 z "},"ฎ":{"ha":938,"x_min":21,"x_max":889,"o":"m 186 -46 q 295 -15 242 -25 q 418 -6 349 -6 q 486 -10 449 -6 q 539 -19 524 -14 l 539 431 q 518 508 539 485 q 442 531 497 531 q 336 508 386 531 l 336 506 l 474 456 l 474 324 q 436 297 446 314 q 426 246 426 279 l 426 144 q 381 40 426 81 q 265 0 336 0 l 21 0 l 21 208 l 49 208 q 83 243 83 208 l 83 258 q 102 336 83 306 q 165 383 121 367 l 53 424 l 53 639 q 238 728 133 693 q 461 764 342 764 q 708 721 613 764 q 846 608 803 678 q 889 451 889 538 l 889 -269 l 597 -269 q 511 -240 556 -249 q 406 -231 467 -231 q 291 -243 349 -231 q 186 -278 233 -256 l 186 -46 z "},"ฏ":{"ha":938,"x_min":21,"x_max":889,"o":"m 625 -279 q 393 -218 485 -279 q 327 -256 367 -243 q 229 -268 288 -268 l 119 -268 l 136 -58 l 194 -58 q 240 -49 225 -58 q 260 -17 254 -39 l 456 -17 q 503 -58 465 -58 q 539 -15 539 -58 l 539 431 q 518 508 539 485 q 442 531 497 531 q 336 508 386 531 l 336 506 l 474 456 l 474 324 q 436 297 446 314 q 426 246 426 279 l 426 144 q 381 40 426 81 q 265 0 336 0 l 21 0 l 21 208 l 49 208 q 83 243 83 208 l 83 258 q 102 336 83 306 q 165 383 121 367 l 53 424 l 53 639 q 238 728 133 693 q 461 764 342 764 q 708 721 613 764 q 846 608 803 678 q 889 451 889 538 l 889 -4 q 821 -203 889 -126 q 625 -279 753 -279 z "},"ญ":{"ha":1346,"x_min":21,"x_max":1311,"o":"m 929 -125 q 726 -108 821 -125 q 585 -65 631 -92 l 585 139 q 731 94 633 111 q 911 76 828 76 q 1051 121 1051 76 q 1043 142 1051 132 q 893 126 978 126 q 600 202 706 126 q 494 429 494 278 l 494 444 q 476 511 494 492 q 404 531 458 531 q 304 508 354 531 l 304 506 l 442 456 l 442 324 q 378 242 378 303 l 378 229 q 413 194 378 194 l 444 194 l 444 0 l 183 0 q 74 40 114 0 q 35 144 35 79 l 35 235 q 62 324 35 281 q 133 383 89 367 l 21 424 l 21 639 q 424 764 208 764 q 733 685 642 764 q 824 479 824 606 l 824 450 q 839 386 824 406 q 893 367 854 367 q 947 386 932 367 q 963 450 963 406 l 963 750 l 1299 750 l 1299 435 q 1243 260 1299 333 q 1293 190 1275 232 q 1311 99 1311 147 q 1209 -65 1311 -6 q 929 -125 1107 -125 z "},"ข":{"ha":860,"x_min":21,"x_max":811,"o":"m 424 -14 q 144 63 247 -14 q 42 274 42 139 l 42 299 q 54 365 42 336 q 90 429 67 394 q 111 463 104 450 q 118 489 118 476 q 110 517 118 508 q 81 525 101 525 l 21 525 l 47 750 l 294 750 q 416 713 376 750 q 456 606 456 675 q 440 533 456 567 q 396 457 425 500 q 360 394 371 417 q 349 347 349 372 l 349 321 q 369 273 349 289 q 424 257 390 257 q 483 277 463 257 q 504 331 504 297 l 504 750 l 811 750 l 811 279 q 710 62 811 138 q 424 -14 610 -14 z "},"ฃ":{"ha":893,"x_min":21,"x_max":844,"o":"m 457 -14 q 177 52 279 -14 q 75 239 75 118 l 75 261 q 100 344 75 306 q 171 431 125 382 q 208 474 196 457 q 221 503 221 490 q 215 523 221 517 q 199 529 210 529 q 175 515 185 529 l 175 464 l 21 464 l 21 750 l 199 750 l 199 711 q 262 738 219 725 q 342 750 304 750 q 461 712 419 750 q 503 606 503 674 q 484 515 503 554 q 429 428 465 476 q 393 375 404 394 q 382 335 382 356 l 382 321 q 403 273 382 289 q 457 257 424 257 q 517 277 496 257 q 538 331 538 297 l 538 750 l 844 750 l 844 279 q 744 62 844 138 q 457 -14 643 -14 z "},"ช":{"ha":882,"x_min":21,"x_max":833,"o":"m 435 -14 q 149 59 256 -14 q 42 264 42 132 l 42 289 q 55 361 42 331 q 92 429 68 392 q 103 447 94 433 q 115 471 111 461 q 118 489 118 481 q 110 517 118 508 q 81 525 101 525 l 21 525 l 47 750 l 281 750 q 402 713 363 750 q 442 606 442 675 q 428 529 442 561 q 390 454 415 497 q 359 397 369 422 q 349 343 349 372 l 349 319 q 371 273 349 289 q 435 257 393 257 q 502 273 478 257 q 526 319 526 289 l 526 344 q 513 388 526 374 q 474 403 499 403 l 447 403 l 460 628 l 472 628 q 514 646 501 628 q 526 710 526 664 l 526 764 l 833 764 l 833 721 q 815 594 833 644 q 751 515 797 544 q 815 444 796 489 q 833 339 833 400 l 833 285 q 785 128 833 196 q 646 23 736 60 q 435 -14 556 -14 z "},"ซ":{"ha":879,"x_min":21,"x_max":831,"o":"m 443 -14 q 163 52 265 -14 q 61 239 61 118 l 61 261 q 86 344 61 306 q 157 431 111 382 q 194 474 182 457 q 207 503 207 490 q 201 523 207 517 q 185 529 196 529 q 161 515 171 529 l 161 464 l 21 464 l 21 750 l 199 750 l 199 711 q 259 738 221 725 q 335 750 297 750 q 442 718 403 750 q 488 628 481 686 q 515 647 507 629 q 524 710 524 665 l 524 764 l 831 764 l 831 721 q 813 594 831 644 q 749 515 794 544 q 812 444 793 489 q 831 339 831 400 l 831 279 q 730 62 831 138 q 443 -14 629 -14 m 443 257 q 503 277 482 257 q 524 331 524 297 l 524 363 q 511 406 524 392 q 476 421 499 421 l 458 421 l 463 493 q 411 418 446 463 q 378 371 389 389 q 368 335 368 353 l 368 321 q 389 273 368 289 q 443 257 410 257 z "},"ค":{"ha":922,"x_min":49,"x_max":874,"o":"m 49 425 q 160 681 49 597 q 461 764 272 764 q 762 681 650 764 q 874 425 874 597 l 874 0 l 538 0 l 538 396 q 522 462 538 444 q 461 479 506 479 q 401 462 417 479 q 385 396 385 444 l 385 360 q 444 372 414 372 l 500 372 l 499 142 l 444 142 q 385 131 408 142 l 385 0 l 49 0 l 49 425 z "},"ฅ":{"ha":922,"x_min":49,"x_max":874,"o":"m 49 546 q 110 704 49 644 q 274 764 171 764 q 376 747 326 764 q 460 693 425 729 q 545 747 494 729 q 650 764 596 764 q 815 706 757 764 q 874 546 874 647 l 874 0 l 538 0 l 538 436 q 533 470 538 461 q 514 479 529 479 q 498 473 504 479 q 485 454 492 467 l 438 454 q 426 474 431 468 q 410 479 421 479 q 390 470 394 479 q 385 436 385 461 l 385 360 q 444 372 414 372 l 500 372 l 499 142 l 444 142 q 385 131 408 142 l 385 0 l 49 0 l 49 546 z "},"ศ":{"ha":961,"x_min":49,"x_max":947,"o":"m 49 425 q 160 681 49 597 q 461 764 272 764 q 604 749 535 764 l 604 750 l 947 750 l 931 519 l 854 519 q 874 406 874 474 l 874 0 l 538 0 l 538 396 q 522 462 538 444 q 461 479 506 479 q 401 462 417 479 q 385 396 385 444 l 385 360 q 444 372 414 372 l 500 372 l 499 142 l 444 142 q 385 131 408 142 l 385 0 l 49 0 l 49 425 z "},"ด":{"ha":926,"x_min":21,"x_max":878,"o":"m 358 -14 q 109 69 197 -14 q 21 342 21 151 q 131 658 21 553 q 474 764 242 764 q 778 678 679 764 q 878 458 878 592 l 878 0 l 557 0 l 557 393 q 538 457 557 435 q 465 479 519 479 q 388 447 411 479 q 364 342 364 415 q 381 244 364 271 q 450 218 399 218 q 519 231 488 218 l 519 17 q 358 -14 458 -14 z "},"ต":{"ha":944,"x_min":21,"x_max":896,"o":"m 358 -14 q 110 74 199 -14 q 21 354 21 163 q 101 660 21 557 q 313 764 182 764 q 403 747 364 764 q 478 693 443 731 q 565 747 513 729 q 671 764 617 764 q 833 710 771 764 q 896 569 896 657 l 896 0 l 575 0 l 575 429 q 568 468 575 457 q 543 479 561 479 q 522 472 532 479 q 507 454 513 465 l 443 454 q 410 479 431 479 q 374 447 388 479 q 361 354 361 415 q 380 249 361 281 q 450 218 399 218 q 519 231 488 218 l 519 17 q 358 -14 458 -14 z "},"ท":{"ha":908,"x_min":49,"x_max":860,"o":"m 49 750 l 361 750 l 371 706 q 473 747 413 731 q 600 764 533 764 q 791 698 722 764 q 860 508 860 632 l 860 0 l 524 0 l 524 456 q 460 517 524 517 q 418 508 443 517 q 385 489 393 500 l 385 0 l 49 0 l 49 750 z "},"ฑ":{"ha":901,"x_min":21,"x_max":853,"o":"m 78 201 q 102 306 78 260 q 171 413 126 353 q 209 467 197 447 q 221 503 221 486 q 199 529 221 529 q 175 515 185 529 l 175 464 l 21 464 l 21 750 l 199 750 l 199 711 q 256 738 221 726 q 328 750 290 750 q 435 719 390 750 q 508 751 463 739 q 601 764 554 764 q 788 699 722 764 q 853 508 853 633 l 853 0 l 518 0 l 518 511 q 515 525 518 521 q 503 529 511 529 q 493 527 499 529 q 486 522 488 525 q 477 434 486 469 q 449 353 468 399 q 422 281 431 313 q 414 204 414 249 l 414 0 l 78 0 l 78 201 z "},"น":{"ha":908,"x_min":49,"x_max":860,"o":"m 308 -14 q 121 53 193 -14 q 49 242 49 121 l 49 750 l 385 750 l 385 294 q 449 233 385 233 q 490 242 465 233 q 524 261 515 250 l 524 750 l 860 750 l 860 0 l 547 0 l 538 44 q 435 3 496 19 q 308 -14 375 -14 z "},"ม":{"ha":908,"x_min":49,"x_max":860,"o":"m 600 -14 q 473 3 533 -14 q 371 44 413 19 l 361 0 l 49 0 l 49 750 l 385 750 l 385 261 q 418 242 393 250 q 460 233 443 233 q 524 294 524 233 l 524 750 l 860 750 l 860 242 q 788 53 860 121 q 600 -14 715 -14 z "},"ฌ":{"ha":1333,"x_min":21,"x_max":1285,"o":"m 1025 -14 q 810 44 904 -14 l 800 0 l 494 0 l 494 431 q 476 508 494 486 q 404 531 458 531 q 304 508 354 531 l 304 506 l 442 456 l 442 324 q 378 242 378 303 l 378 229 q 413 194 378 194 l 444 194 l 444 0 l 183 0 q 74 40 114 0 q 35 144 35 79 l 35 235 q 62 324 35 281 q 133 383 89 367 l 21 424 l 21 639 q 424 764 208 764 q 733 677 643 764 q 824 451 824 590 l 824 261 q 854 242 832 250 q 892 233 876 233 q 935 248 922 233 q 949 294 949 263 l 949 750 l 1285 750 l 1285 242 q 1213 53 1285 121 q 1025 -14 1140 -14 z "},"ณ":{"ha":1340,"x_min":21,"x_max":1292,"o":"m 754 -14 q 567 53 639 -14 q 494 242 494 121 l 494 431 q 476 508 494 486 q 404 531 458 531 q 304 508 354 531 l 304 506 l 442 456 l 442 324 q 378 242 378 303 l 378 229 q 413 194 378 194 l 444 194 l 444 0 l 183 0 q 74 40 114 0 q 35 144 35 79 l 35 235 q 62 324 35 281 q 133 383 89 367 l 21 424 l 21 639 q 424 764 208 764 q 737 676 643 764 q 831 451 831 589 l 831 294 q 844 248 831 263 q 888 233 857 233 q 925 242 903 233 q 956 261 947 250 l 956 750 l 1292 750 l 1292 0 l 979 0 l 969 44 q 754 -14 875 -14 z "},"ฒ":{"ha":1406,"x_min":21,"x_max":1357,"o":"m 358 -14 q 110 74 199 -14 q 21 354 21 163 q 101 660 21 557 q 313 764 182 764 q 403 747 364 764 q 478 693 443 731 q 565 747 513 729 q 671 764 617 764 q 833 710 771 764 q 896 569 896 657 l 896 261 q 926 242 904 250 q 964 233 949 233 q 1008 248 994 233 q 1021 294 1021 263 l 1021 750 l 1357 750 l 1357 242 q 1285 53 1357 121 q 1097 -14 1213 -14 q 882 44 976 -14 l 872 0 l 575 0 l 575 429 q 568 468 575 457 q 543 479 561 479 q 522 472 532 479 q 507 454 513 465 l 443 454 q 410 479 431 479 q 374 447 388 479 q 361 354 361 415 q 380 249 361 281 q 450 218 399 218 q 519 231 488 218 l 519 17 q 358 -14 458 -14 z "},"ฆ":{"ha":914,"x_min":21,"x_max":865,"o":"m 606 -14 q 482 2 539 -14 q 383 44 425 18 l 374 0 l 61 0 l 61 211 q 90 312 61 264 q 167 415 118 360 q 209 470 197 453 q 221 503 221 488 q 215 523 221 517 q 199 529 210 529 q 175 515 185 529 l 175 464 l 21 464 l 21 750 l 228 750 l 228 711 q 291 738 249 725 q 371 750 333 750 q 481 708 443 750 q 518 597 518 667 q 499 488 518 531 q 444 396 481 444 q 408 340 419 361 q 397 292 397 318 l 397 261 q 431 242 406 250 q 472 233 456 233 q 536 294 536 233 l 536 750 l 865 750 l 865 242 q 793 53 865 121 q 606 -14 721 -14 z "},"ธ":{"ha":788,"x_min":21,"x_max":767,"o":"m 401 -14 q 198 5 297 -14 q 33 54 99 24 l 33 299 l 313 299 l 313 219 q 344 213 322 215 q 383 211 367 211 q 458 247 458 211 q 416 284 458 269 q 269 322 374 299 l 229 331 q 72 402 122 354 q 21 533 21 450 q 111 704 21 644 q 407 764 201 764 q 590 754 507 764 q 719 731 674 744 l 719 513 q 605 542 678 531 q 476 553 532 553 q 389 549 414 553 q 364 529 364 546 q 401 505 364 517 q 511 475 438 493 l 581 458 q 724 382 682 432 q 767 239 767 332 q 672 51 767 115 q 401 -14 576 -14 z "},"ร":{"ha":704,"x_min":21,"x_max":683,"o":"m 332 -14 q 155 -1 239 -14 q 26 33 71 13 l 26 253 q 147 213 75 229 q 265 197 218 197 q 322 203 304 197 q 340 224 340 208 q 321 253 340 242 q 253 282 301 264 q 192 304 243 285 q 60 391 100 342 q 21 524 21 440 q 111 699 21 633 q 376 764 201 764 q 525 754 447 764 q 647 731 603 744 l 647 513 q 549 542 604 531 q 454 553 494 553 q 387 547 410 553 q 364 524 364 540 q 385 494 364 506 q 460 465 407 482 q 501 450 461 464 q 612 394 572 424 q 667 325 651 365 q 683 224 683 285 q 592 51 683 117 q 332 -14 501 -14 z "},"จ":{"ha":804,"x_min":21,"x_max":783,"o":"m 392 -14 q 277 -5 335 -14 q 193 18 219 4 l 115 226 l 21 226 l 33 457 l 306 457 l 388 239 q 440 379 440 281 q 401 497 440 461 q 268 533 363 533 q 150 523 215 533 q 22 496 85 513 l 22 711 q 188 751 99 738 q 353 764 276 764 q 607 720 513 764 q 742 592 701 676 q 783 378 783 507 q 728 164 783 253 q 583 31 672 75 q 392 -14 493 -14 z "},"ว":{"ha":767,"x_min":21,"x_max":746,"o":"m 331 -14 q 21 42 139 -14 l 21 331 q 133 287 72 303 q 246 271 194 271 q 367 292 331 271 q 403 375 403 314 q 367 458 403 436 q 249 479 331 479 q 131 467 190 479 q 24 432 72 456 l 24 708 q 333 764 160 764 q 645 672 544 764 q 746 375 746 581 q 644 77 746 168 q 331 -14 543 -14 z "},"ง":{"ha":888,"x_min":21,"x_max":867,"o":"m 440 -14 q 325 -5 388 -14 q 221 19 263 4 l 21 532 l 332 532 l 457 211 q 507 273 490 225 q 524 394 524 321 q 415 521 524 521 l 365 521 l 365 750 l 493 750 q 769 661 672 750 q 867 396 867 572 q 754 86 867 186 q 440 -14 642 -14 z "},"ฐ":{"ha":861,"x_min":21,"x_max":847,"o":"m 392 -14 q 277 -5 335 -14 q 193 18 219 4 l 115 226 l 21 226 l 33 457 l 306 457 l 388 239 q 426 294 413 258 q 440 379 440 329 q 404 498 440 463 q 275 533 368 533 q 152 523 221 533 q 22 496 83 513 l 22 711 q 188 751 99 738 q 353 764 276 764 q 507 750 433 764 l 847 750 l 831 519 l 754 519 q 783 378 783 449 q 728 164 783 253 q 583 31 672 75 q 392 -14 493 -14 m 497 -311 q 315 -262 382 -311 q 259 -298 293 -286 q 190 -310 225 -310 l 31 -310 l 42 -90 l 153 -90 q 194 -83 182 -90 q 213 -53 206 -75 l 397 -53 q 456 -99 408 -99 q 492 -87 478 -99 q 506 -56 506 -75 l 506 -22 l 763 -22 l 763 -62 q 732 -188 763 -132 q 641 -278 701 -244 q 497 -311 581 -311 z "},"ฉ":{"ha":872,"x_min":21,"x_max":824,"o":"m 279 -14 q 96 53 165 -14 q 26 242 26 119 l 26 417 l 363 417 l 363 294 q 376 248 363 263 q 419 233 389 233 q 459 241 440 233 q 488 261 478 249 l 488 379 q 448 498 488 463 q 307 533 408 533 q 165 523 250 533 q 21 496 79 513 l 21 711 q 197 751 97 738 q 392 764 297 764 q 724 668 624 764 q 824 378 824 572 l 824 0 l 511 0 l 501 44 q 403 2 460 18 q 279 -14 346 -14 z "},"ล":{"ha":863,"x_min":21,"x_max":814,"o":"m 289 -14 q 94 42 168 -14 q 21 221 21 97 q 99 416 21 347 q 328 485 176 485 l 493 485 l 493 500 q 361 538 493 538 q 231 527 301 538 q 97 497 160 517 l 97 711 q 253 750 160 736 q 435 764 346 764 q 718 683 622 764 q 814 439 814 601 l 814 0 l 493 0 l 493 289 l 424 289 q 378 277 392 289 q 364 236 364 265 q 407 188 364 188 q 454 194 428 188 l 454 11 q 289 -14 389 -14 z "},"ส":{"ha":901,"x_min":21,"x_max":888,"o":"m 289 -14 q 94 42 168 -14 q 21 222 21 99 q 99 417 21 349 q 328 485 176 485 l 493 485 l 493 500 q 361 538 493 538 q 231 527 301 538 q 97 497 160 517 l 97 711 q 253 750 160 736 q 435 764 346 764 q 574 750 504 764 l 888 750 l 871 519 l 797 519 q 814 411 814 482 l 814 0 l 493 0 l 493 289 l 424 289 q 378 277 392 289 q 364 236 364 265 q 407 188 364 188 q 454 194 428 188 l 454 11 q 289 -14 389 -14 z "},"บ":{"ha":922,"x_min":49,"x_max":874,"o":"m 461 -14 q 161 76 274 -14 q 49 339 49 165 l 49 750 l 385 750 l 385 354 q 401 278 385 300 q 461 257 417 257 q 522 278 506 257 q 538 354 538 300 l 538 750 l 874 750 l 874 339 q 761 76 874 165 q 461 -14 649 -14 z "},"ป":{"ha":922,"x_min":49,"x_max":874,"o":"m 461 -14 q 161 76 274 -14 q 49 339 49 165 l 49 750 l 385 750 l 385 354 q 401 278 385 300 q 461 257 417 257 q 522 278 506 257 q 538 354 538 300 l 538 972 l 874 972 l 874 339 q 761 76 874 165 q 461 -14 649 -14 z "},"ษ":{"ha":938,"x_min":49,"x_max":938,"o":"m 461 -14 q 161 76 274 -14 q 49 339 49 165 l 49 750 l 385 750 l 385 354 q 401 278 385 300 q 461 257 417 257 q 522 278 506 257 q 538 354 538 300 l 538 372 l 456 372 l 456 603 l 538 603 l 538 750 l 874 750 l 874 603 l 938 603 l 918 372 l 874 372 l 874 339 q 761 76 874 165 q 461 -14 649 -14 z "},"ย":{"ha":913,"x_min":21,"x_max":864,"o":"m 444 -14 q 128 58 236 -14 q 21 250 21 129 q 38 328 21 293 q 82 388 54 364 q 25 525 25 442 q 102 703 25 643 q 328 764 179 764 q 493 739 428 764 l 493 556 q 426 563 461 563 q 368 525 368 563 q 380 498 368 507 q 411 489 392 489 l 472 489 l 472 294 l 410 294 q 377 284 389 294 q 365 256 365 274 q 383 223 365 235 q 444 211 401 211 q 506 229 485 211 q 528 281 528 247 l 528 750 l 864 750 l 864 283 q 753 62 864 138 q 444 -14 643 -14 z "},"ผ":{"ha":917,"x_min":49,"x_max":868,"o":"m 49 625 q 76 714 49 678 q 156 750 104 750 l 419 750 l 431 558 l 374 558 q 336 518 336 558 l 336 393 l 408 521 l 508 521 l 581 393 l 581 750 l 868 750 l 868 0 l 588 0 l 458 236 l 329 0 l 49 0 l 49 625 z "},"ฝ":{"ha":917,"x_min":49,"x_max":868,"o":"m 49 625 q 76 714 49 678 q 156 750 104 750 l 419 750 l 431 558 l 374 558 q 336 518 336 558 l 336 393 l 408 521 l 508 521 l 581 393 l 581 972 l 868 972 l 868 0 l 588 0 l 458 236 l 329 0 l 49 0 l 49 625 z "},"ฟ":{"ha":1051,"x_min":7,"x_max":1071,"o":"m 7 750 l 299 750 l 368 469 l 396 581 l 396 750 l 629 750 l 689 469 l 781 972 l 1071 972 l 863 0 l 590 0 l 528 247 l 460 0 l 189 0 l 7 750 z "},"พ":{"ha":1051,"x_min":7,"x_max":1044,"o":"m 7 750 l 299 750 l 368 469 l 396 581 l 396 750 l 629 750 l 689 469 l 754 750 l 1044 750 l 863 0 l 590 0 l 528 247 l 460 0 l 189 0 l 7 750 z "},"ห":{"ha":886,"x_min":49,"x_max":838,"o":"m 49 750 l 385 750 l 385 568 l 444 568 q 501 633 501 568 l 501 750 l 838 750 l 838 597 q 819 505 838 546 q 767 442 801 464 q 838 290 838 399 l 838 0 l 501 0 l 501 246 q 444 311 501 311 l 385 311 l 385 0 l 49 0 l 49 750 z "},"ฬ":{"ha":1051,"x_min":7,"x_max":1078,"o":"m 7 750 l 299 750 l 368 469 l 400 581 l 400 663 l 625 663 l 689 469 l 718 599 q 724 639 724 619 q 706 685 724 671 q 651 700 688 700 l 624 700 l 653 869 l 700 869 q 761 886 742 869 q 789 940 781 903 l 796 972 l 1078 972 l 1063 906 q 958 772 1039 799 q 1007 672 1007 739 q 999 607 1007 643 l 863 0 l 590 0 l 528 247 l 460 0 l 189 0 l 7 750 z "},"อ":{"ha":854,"x_min":28,"x_max":833,"o":"m 388 -14 q 190 5 285 -14 q 28 54 94 24 l 28 456 l 411 456 l 422 264 l 328 264 l 328 218 q 393 211 353 211 q 469 249 449 211 q 490 369 490 286 q 448 499 490 464 q 311 533 406 533 q 176 523 251 533 q 36 493 100 513 l 36 711 q 211 750 111 736 q 392 764 311 764 q 728 669 622 764 q 833 369 833 575 q 388 -14 833 -14 z "},"ฮ":{"ha":914,"x_min":28,"x_max":900,"o":"m 388 -14 q 190 5 285 -14 q 28 54 94 24 l 28 456 l 411 456 l 422 264 l 328 264 l 328 218 q 393 211 353 211 q 469 249 449 211 q 490 369 490 286 q 448 499 490 464 q 311 533 406 533 q 176 523 251 533 q 36 493 100 513 l 36 711 q 211 750 111 736 q 392 764 311 764 q 556 750 475 764 l 900 750 l 883 519 l 800 519 q 833 369 833 453 q 388 -14 833 -14 z "},"า":{"ha":646,"x_min":0,"x_max":597,"o":"m 290 392 q 265 467 290 443 q 183 492 240 492 q 0 453 90 492 l 0 708 q 113 748 44 732 q 250 764 182 764 q 513 683 428 764 q 597 444 597 603 l 597 0 l 290 0 l 290 392 z "},"ำ":{"ha":646,"x_min":-426,"x_max":597,"o":"m -214 793 q -365 849 -304 793 q -426 992 -426 904 q -365 1135 -426 1079 q -214 1190 -304 1190 q -62 1135 -124 1190 q -1 992 -1 1079 q -62 849 -1 904 q -214 793 -124 793 m -214 947 q -183 960 -196 947 q -169 992 -169 974 q -183 1023 -169 1010 q -214 1036 -196 1036 q -245 1023 -232 1036 q -258 992 -258 1010 q -245 960 -258 974 q -214 947 -232 947 m 290 392 q 265 467 290 443 q 183 492 240 492 q 0 453 90 492 l 0 708 q 113 748 44 732 q 250 764 182 764 q 513 683 428 764 q 597 444 597 603 l 597 0 l 290 0 l 290 392 z "},"ๅ":{"ha":646,"x_min":0,"x_max":597,"o":"m 290 392 q 265 467 290 443 q 183 492 240 492 q 0 453 90 492 l 0 708 q 113 748 44 732 q 250 764 182 764 q 513 683 428 764 q 597 444 597 603 l 597 -222 l 290 -222 l 290 392 z "},"ะ":{"ha":454,"x_min":21,"x_max":433,"o":"m 21 679 l 258 679 l 258 614 l 433 614 l 424 397 l 21 397 l 21 679 m 21 331 l 258 331 l 258 265 l 433 265 l 426 49 l 21 49 l 21 331 z "},"เ":{"ha":486,"x_min":49,"x_max":465,"o":"m 197 0 q 88 40 128 0 q 49 144 49 79 l 49 750 l 392 750 l 392 243 q 426 208 392 208 l 465 208 l 465 0 l 197 0 z "},"แ":{"ha":903,"x_min":49,"x_max":882,"o":"m 197 0 q 88 40 128 0 q 49 144 49 79 l 49 750 l 378 750 l 378 243 q 413 208 378 208 l 451 208 l 451 0 l 197 0 m 628 0 q 519 40 558 0 q 479 144 479 79 l 479 750 l 808 750 l 808 243 q 843 208 808 208 l 882 208 l 882 0 l 628 0 z "},"ไ":{"ha":472,"x_min":-42,"x_max":493,"o":"m 207 0 q 98 40 138 0 q 58 144 58 79 l 58 644 q 67 707 58 678 q 93 756 76 736 l -42 756 l -42 964 l 493 964 l 493 782 q 407 734 435 772 q 379 629 379 696 l 379 243 q 414 208 379 208 l 453 208 l 453 0 l 207 0 z "},"ใ":{"ha":461,"x_min":-49,"x_max":482,"o":"m 174 0 q 65 40 104 0 q 25 144 25 79 l 25 458 q 42 542 25 507 q 92 624 58 576 q 120 666 111 650 q 129 697 129 682 q 85 725 129 725 q -49 688 13 725 l -49 906 q 221 968 60 968 q 413 920 344 968 q 482 779 482 872 q 464 697 482 732 q 411 617 446 661 q 363 542 379 575 q 346 469 346 510 l 346 243 q 381 208 346 208 l 419 208 l 419 0 l 174 0 z "},"โ":{"ha":476,"x_min":-42,"x_max":497,"o":"m 225 0 q 116 40 156 0 q 76 144 76 79 l 76 629 q -42 782 76 761 l -42 964 l 497 964 l 497 756 l 363 756 q 388 707 379 736 q 397 644 397 678 l 397 243 q 432 208 397 208 l 471 208 l 471 0 l 225 0 z "},"ℊ":{"ha":872,"x_min":21,"x_max":824,"o":"m 325 -244 q 219 -240 288 -244 q 124 -231 150 -236 l 124 -12 q 197 -25 153 -19 q 274 -31 240 -31 q 488 21 488 -31 l 488 33 q 421 15 461 22 q 344 8 381 8 q 163 37 233 8 q 56 133 92 65 q 21 315 21 200 q 62 510 21 429 q 174 631 103 590 q 336 672 246 672 q 435 658 393 672 q 517 615 476 643 l 532 658 l 824 658 l 824 100 q 709 -152 824 -60 q 325 -244 594 -244 m 429 226 q 460 231 447 226 q 488 247 474 236 l 488 411 q 462 427 472 422 q 433 432 451 432 q 383 405 401 432 q 364 321 364 378 q 380 246 364 265 q 429 226 396 226 z "},"⁄":{"ha":329,"x_min":-229,"x_max":558,"o":"m 214 919 l 558 919 l 115 0 l -229 0 l 214 919 z "},"½":{"ha":1036,"x_min":21,"x_max":1015,"o":"m 86 685 l 21 671 l 21 849 l 329 908 l 329 514 l 86 514 l 86 685 m 563 894 l 879 894 l 415 0 l 99 0 l 563 894 m 621 85 q 658 121 640 107 q 706 156 675 135 q 751 190 742 179 q 760 214 760 200 q 749 233 760 228 q 715 238 738 238 q 672 230 697 238 q 625 211 646 222 l 625 363 q 713 385 658 375 q 819 394 767 394 q 962 361 911 394 q 1013 271 1013 328 q 1002 218 1013 239 q 969 178 992 197 l 932 147 l 1015 147 l 1015 0 l 621 0 l 621 85 z "},"⅓":{"ha":1044,"x_min":21,"x_max":1024,"o":"m 86 685 l 21 671 l 21 849 l 329 908 l 329 514 l 86 514 l 86 685 m 563 894 l 879 894 l 415 0 l 99 0 l 563 894 m 804 -14 q 708 -7 771 -14 q 622 10 646 0 l 622 128 q 680 109 649 115 q 738 103 711 103 q 776 108 764 103 q 789 124 789 113 q 781 137 789 133 q 753 140 772 140 l 682 140 l 689 239 l 750 239 q 776 242 769 239 q 782 254 782 244 q 733 272 782 272 q 676 266 706 272 q 628 249 647 260 l 628 367 q 708 384 653 376 q 804 392 763 392 q 963 358 910 392 q 1017 271 1017 324 q 986 189 1017 222 q 1024 113 1024 167 q 804 -14 1024 -14 z "},"⅔":{"ha":1124,"x_min":21,"x_max":1103,"o":"m 21 599 q 58 635 40 621 q 106 669 75 649 q 151 703 142 693 q 160 728 160 714 q 149 747 160 742 q 115 751 138 751 q 72 744 97 751 q 25 725 46 736 l 25 876 q 113 899 58 889 q 219 908 167 908 q 362 875 311 908 q 413 785 413 842 q 402 732 413 753 q 369 692 392 711 l 332 661 l 415 661 l 415 514 l 21 514 l 21 599 m 642 894 l 958 894 l 494 0 l 178 0 l 642 894 m 883 -14 q 788 -7 850 -14 q 701 10 725 0 l 701 128 q 759 109 728 115 q 817 103 790 103 q 856 108 843 103 q 868 124 868 113 q 860 137 868 133 q 832 140 851 140 l 761 140 l 768 239 l 829 239 q 855 242 849 239 q 861 254 861 244 q 813 272 861 272 q 756 266 785 272 q 707 249 726 260 l 707 367 q 787 384 732 376 q 883 392 842 392 q 1042 358 989 392 q 1096 271 1096 324 q 1065 189 1096 222 q 1103 113 1103 167 q 883 -14 1103 -14 z "},"¼":{"ha":990,"x_min":21,"x_max":969,"o":"m 86 685 l 21 671 l 21 849 l 329 908 l 329 514 l 86 514 l 86 685 m 563 894 l 879 894 l 415 0 l 99 0 l 563 894 m 704 47 l 542 47 l 542 182 l 711 394 l 929 394 l 929 193 l 969 193 l 969 47 l 929 47 l 929 0 l 704 0 l 704 47 m 774 181 l 774 247 l 719 181 l 774 181 z "},"¾":{"ha":1026,"x_min":21,"x_max":1006,"o":"m 203 503 q 107 510 169 503 q 21 526 44 517 l 21 644 q 78 626 47 632 q 136 619 110 619 q 175 624 163 619 q 188 640 188 629 q 179 653 188 650 q 151 657 171 657 l 81 657 l 88 756 l 149 756 q 174 758 168 756 q 181 771 181 761 q 132 789 181 789 q 75 783 104 789 q 26 765 46 776 l 26 883 q 106 901 51 893 q 203 908 161 908 q 362 874 308 908 q 415 788 415 840 q 385 706 415 739 q 422 629 422 683 q 203 503 422 503 m 599 894 l 915 894 l 451 0 l 135 0 l 599 894 m 740 47 l 578 47 l 578 182 l 747 394 l 965 394 l 965 193 l 1006 193 l 1006 47 l 965 47 l 965 0 l 740 0 l 740 47 m 810 181 l 810 247 l 756 181 l 810 181 z "},"⅛":{"ha":1040,"x_min":21,"x_max":1019,"o":"m 86 685 l 21 671 l 21 849 l 329 908 l 329 514 l 86 514 l 86 685 m 563 894 l 879 894 l 415 0 l 99 0 l 563 894 m 803 -14 q 646 19 704 -14 q 588 113 588 51 q 599 160 588 136 q 628 196 610 183 q 597 267 597 224 q 803 392 597 392 q 1010 267 1010 392 q 1002 228 1010 247 q 981 194 994 208 q 1019 113 1019 163 q 960 19 1019 51 q 803 -14 901 -14 m 817 232 q 838 264 838 242 q 803 290 838 290 q 769 264 769 290 q 789 238 769 242 l 817 232 m 803 88 q 846 115 846 88 q 818 143 846 138 l 783 150 q 761 119 761 143 q 803 88 761 88 z "},"⅜":{"ha":1078,"x_min":21,"x_max":1057,"o":"m 203 503 q 107 510 169 503 q 21 526 44 517 l 21 644 q 78 626 47 632 q 136 619 110 619 q 175 624 163 619 q 188 640 188 629 q 179 653 188 650 q 151 657 171 657 l 81 657 l 88 756 l 149 756 q 174 758 168 756 q 181 771 181 761 q 132 789 181 789 q 75 783 104 789 q 26 765 46 776 l 26 883 q 106 901 51 893 q 203 908 161 908 q 362 874 308 908 q 415 788 415 840 q 385 706 415 739 q 422 629 422 683 q 203 503 422 503 m 600 894 l 917 894 l 453 0 l 136 0 l 600 894 m 840 -14 q 683 19 742 -14 q 625 113 625 51 q 636 160 625 136 q 665 196 647 183 q 635 267 635 224 q 840 392 635 392 q 1047 267 1047 392 q 1040 228 1047 247 q 1018 194 1032 208 q 1057 113 1057 163 q 998 19 1057 51 q 840 -14 939 -14 m 854 232 q 875 264 875 242 q 840 290 875 290 q 807 264 807 290 q 826 238 807 242 l 854 232 m 840 88 q 883 115 883 88 q 856 143 883 138 l 821 150 q 799 119 799 143 q 840 88 799 88 z "},"⅝":{"ha":1051,"x_min":21,"x_max":1031,"o":"m 186 503 q 93 509 140 503 q 21 526 46 515 l 21 649 q 72 634 40 639 q 128 629 104 629 q 176 656 176 629 q 168 674 176 668 q 140 679 160 679 l 22 679 l 22 736 l 32 894 l 385 894 l 379 778 l 236 778 l 235 756 l 256 756 q 370 727 333 756 q 407 635 407 699 q 354 538 407 574 q 186 503 301 503 m 574 894 l 890 894 l 426 0 l 110 0 l 574 894 m 814 -14 q 657 19 715 -14 q 599 113 599 51 q 610 160 599 136 q 639 196 621 183 q 608 267 608 224 q 814 392 608 392 q 1021 267 1021 392 q 1013 228 1021 247 q 992 194 1006 208 q 1031 113 1031 163 q 972 19 1031 51 q 814 -14 913 -14 m 828 232 q 849 264 849 242 q 814 290 849 290 q 781 264 781 290 q 800 238 781 242 l 828 232 m 814 88 q 857 115 857 88 q 829 143 857 138 l 794 150 q 772 119 772 143 q 814 88 772 88 z "},"⅞":{"ha":1039,"x_min":21,"x_max":1018,"o":"m 168 735 l 21 735 l 21 894 l 419 894 l 419 785 l 300 514 l 71 514 l 168 735 m 561 894 l 878 894 l 414 0 l 97 0 l 561 894 m 801 -14 q 644 19 703 -14 q 586 113 586 51 q 597 160 586 136 q 626 196 608 183 q 596 267 596 224 q 801 392 596 392 q 1008 267 1008 392 q 1001 228 1008 247 q 979 194 993 208 q 1018 113 1018 163 q 959 19 1018 51 q 801 -14 900 -14 m 815 232 q 836 264 836 242 q 801 290 836 290 q 768 264 768 290 q 788 238 768 242 l 815 232 m 801 88 q 844 115 844 88 q 817 143 844 138 l 782 150 q 760 119 760 143 q 801 88 760 88 z "},"₀":{"ha":522,"x_min":21,"x_max":501,"o":"m 261 -178 q 79 -126 138 -178 q 21 25 21 -75 q 79 176 21 125 q 261 228 138 228 q 443 176 385 228 q 501 25 501 125 q 443 -126 501 -75 q 261 -178 385 -178 m 261 -39 q 291 -24 282 -39 q 300 25 300 -8 q 291 73 300 57 q 261 89 282 89 q 231 73 240 89 q 222 25 222 57 q 231 -24 222 -8 q 261 -39 240 -39 z "},"₁":{"ha":322,"x_min":21,"x_max":329,"o":"m 86 4 l 21 -10 l 21 168 l 329 228 l 329 -167 l 86 -167 l 86 4 z "},"₂":{"ha":436,"x_min":21,"x_max":415,"o":"m 21 -82 q 58 -46 40 -60 q 106 -11 75 -32 q 151 23 142 13 q 160 47 160 33 q 149 66 160 61 q 115 71 138 71 q 72 63 97 71 q 25 44 46 56 l 25 196 q 113 218 58 208 q 219 228 167 228 q 362 194 311 228 q 413 104 413 161 q 402 51 413 72 q 369 11 392 31 l 332 -19 l 415 -19 l 415 -167 l 21 -167 l 21 -82 z "},"₃":{"ha":443,"x_min":21,"x_max":422,"o":"m 203 -178 q 107 -171 169 -178 q 21 -154 44 -164 l 21 -36 q 78 -55 47 -49 q 136 -61 110 -61 q 175 -56 163 -61 q 188 -40 188 -51 q 179 -27 188 -31 q 151 -24 171 -24 l 81 -24 l 88 75 l 149 75 q 174 78 168 75 q 181 90 181 81 q 132 108 181 108 q 75 102 104 108 q 26 85 46 96 l 26 203 q 106 220 51 213 q 203 228 161 228 q 362 194 308 228 q 415 107 415 160 q 385 25 415 58 q 422 -51 422 3 q 203 -178 422 -178 z "},"₄":{"ha":414,"x_min":-7,"x_max":421,"o":"m 156 -119 l -7 -119 l -7 15 l 163 228 l 381 228 l 381 26 l 421 26 l 421 -119 l 381 -119 l 381 -167 l 156 -167 l 156 -119 m 225 14 l 225 81 l 171 14 l 225 14 z "},"₅":{"ha":428,"x_min":21,"x_max":407,"o":"m 186 -178 q 93 -172 140 -178 q 21 -154 46 -165 l 21 -32 q 72 -47 40 -42 q 128 -51 104 -51 q 176 -25 176 -51 q 168 -7 176 -12 q 140 -1 160 -1 l 22 -1 l 22 56 l 32 214 l 385 214 l 379 97 l 236 97 l 235 75 l 256 75 q 370 47 333 75 q 407 -46 407 18 q 354 -142 407 -107 q 186 -178 301 -178 z "},"₆":{"ha":447,"x_min":21,"x_max":426,"o":"m 224 -178 q 76 -134 132 -178 q 21 -12 21 -90 l 21 53 q 78 180 21 132 q 246 228 136 228 q 324 223 285 228 q 386 210 364 218 l 386 101 q 272 121 346 121 q 210 110 233 121 q 186 85 186 99 l 186 83 q 219 97 197 92 q 264 101 242 101 q 386 68 346 101 q 426 -35 426 35 q 374 -141 426 -104 q 224 -178 321 -178 m 225 -76 q 267 -40 267 -76 q 258 -12 267 -22 q 226 -3 249 -3 q 186 -14 206 -3 l 186 -35 q 195 -67 186 -57 q 225 -76 204 -76 z "},"₇":{"ha":413,"x_min":7,"x_max":406,"o":"m 154 54 l 7 54 l 7 214 l 406 214 l 406 104 l 286 -167 l 57 -167 l 154 54 z "},"₈":{"ha":474,"x_min":21,"x_max":453,"o":"m 236 -178 q 79 -145 138 -178 q 21 -51 21 -112 q 32 -4 21 -28 q 61 32 43 19 q 31 103 31 60 q 236 228 31 228 q 443 103 443 228 q 435 64 443 83 q 414 31 428 44 q 453 -51 453 -1 q 394 -145 453 -112 q 236 -178 335 -178 m 250 68 q 271 100 271 78 q 236 126 271 126 q 203 100 203 126 q 222 74 203 78 l 250 68 m 236 -76 q 279 -49 279 -76 q 251 -21 279 -26 l 217 -14 q 194 -44 194 -21 q 236 -76 194 -76 z "},"₉":{"ha":447,"x_min":21,"x_max":426,"o":"m 201 -178 q 123 -173 163 -178 q 61 -160 83 -168 l 61 -51 q 175 -71 101 -71 q 238 -60 214 -71 q 261 -35 261 -49 l 261 -33 q 228 -47 250 -42 q 183 -51 206 -51 q 61 -18 101 -51 q 21 85 21 15 q 76 191 21 154 q 228 228 131 228 q 372 185 318 228 q 426 63 426 142 l 426 -3 q 369 -130 426 -82 q 201 -178 311 -178 m 221 53 q 261 64 242 53 l 261 85 q 252 117 261 107 q 222 126 243 126 q 181 90 181 126 q 190 63 181 72 q 221 53 199 53 z "},"⁰":{"ha":522,"x_min":21,"x_max":501,"o":"m 261 503 q 79 554 138 503 q 21 706 21 606 q 79 857 21 806 q 261 908 138 908 q 443 857 385 908 q 501 706 501 806 q 443 554 501 606 q 261 503 385 503 m 261 642 q 291 657 282 642 q 300 706 300 672 q 291 753 300 738 q 261 769 282 769 q 231 753 240 769 q 222 706 222 738 q 231 657 222 672 q 261 642 240 642 z "}}}
